{
copyright = "Copyright (c) 2015, Cadson Demak (info@cadsondemak.com)";
customParameters = (
{
name = vendorID;
value = CDK;
},
{
name = description;
value = "Copyright (c) 2015, Cadson Demak (info@cadsondemak.com)";
},
{
name = license;

glyphs = (
{
glyphname = A;
lastChange = "2015-10-27 15:04:14 +0000";
layers = (
{
layerId = "AD8C1534-DD1F-4D30-8D71-C3A36519B1B2";
name = "Bold Italic";
paths = (
{
closed = 1;
nodes = (
"199 0 LINE",
"202 16 LINE",
"178 26 OFFCURVE",
"156 35 OFFCURVE",
"128 39 CURVE",
"415 562 LINE",
"485 41 LINE",
"467 38 OFFCURVE",
"440 32 OFFCURVE",
"404 20 CURVE",
"400 0 LINE",
"701 0 LINE",
"704 18 LINE",
"681 27 OFFCURVE",
"657 35 OFFCURVE",
"634 40 CURVE",
"531 704 LINE",
"423 704 LINE",
"51 42 LINE",
"42 41 OFFCURVE",
"-1 30 OFFCURVE",
"-29 21 CURVE",
"-33 0 LINE"
);
},
{
closed = 1;
nodes = (
"507 178 LINE",
"517 228 LINE",
"190 228 LINE",
"180 178 LINE"
);
}
);
width = 746;
}
);
leftKerningGroup = A;
note = A;
rightKerningGroup = A;
unicode = 0041;
},
{
glyphname = Aacute;
lastChange = "2015-10-27 13:18:37 +0000";
layers = (
{
layerId = "AD8C1534-DD1F-4D30-8D71-C3A36519B1B2";
name = "Bold Italic";
paths = (
{
closed = 1;
nodes = (
"199 0 LINE",
"202 16 LINE",
"178 26 OFFCURVE",
"156 35 OFFCURVE",
"128 39 CURVE",
"415 562 LINE",
"485 41 LINE",
"467 38 OFFCURVE",
"440 32 OFFCURVE",
"404 20 CURVE",
"400 0 LINE",
"701 0 LINE",
"704 18 LINE",
"681 27 OFFCURVE",
"657 35 OFFCURVE",
"634 40 CURVE",
"531 704 LINE",
"423 704 LINE",
"51 42 LINE",
"42 41 OFFCURVE",
"-1 30 OFFCURVE",
"-29 21 CURVE",
"-33 0 LINE"
);
},
{
closed = 1;
nodes = (
"507 178 LINE",
"517 228 LINE",
"190 228 LINE",
"180 178 LINE"
);
},
{
closed = 1;
nodes = (
"592 879 LINE SMOOTH",
"627 898 OFFCURVE",
"647 916 OFFCURVE",
"652 940 CURVE SMOOTH",
"656 959 OFFCURVE",
"646 982 OFFCURVE",
"614 982 CURVE SMOOTH",
"582 982 OFFCURVE",
"553 954 OFFCURVE",
"546 947 CURVE",
"403 821 LINE",
"420 786 LINE"
);
}
);
width = 746;
}
);
leftKerningGroup = A;
note = Aacute;
rightKerningGroup = A;
unicode = 00C1;
},
{
glyphname = Abreve;
lastChange = "2015-10-27 13:18:36 +0000";
layers = (
{
layerId = "AD8C1534-DD1F-4D30-8D71-C3A36519B1B2";
name = "Bold Italic";
paths = (
{
closed = 1;
nodes = (
"199 0 LINE",
"202 16 LINE",
"178 26 OFFCURVE",
"156 35 OFFCURVE",
"128 39 CURVE",
"415 562 LINE",
"485 41 LINE",
"467 38 OFFCURVE",
"440 32 OFFCURVE",
"404 20 CURVE",
"400 0 LINE",
"701 0 LINE",
"704 18 LINE",
"681 27 OFFCURVE",
"657 35 OFFCURVE",
"634 40 CURVE",
"531 704 LINE",
"423 704 LINE",
"51 42 LINE",
"42 41 OFFCURVE",
"-1 30 OFFCURVE",
"-29 21 CURVE",
"-33 0 LINE"
);
},
{
closed = 1;
nodes = (
"507 178 LINE",
"517 228 LINE",
"190 228 LINE",
"180 178 LINE"
);
},
{
closed = 1;
nodes = (
"587 781 OFFCURVE",
"660 824 OFFCURVE",
"693 915 CURVE",
"611 915 LINE",
"588 842 OFFCURVE",
"542 833 OFFCURVE",
"503 833 CURVE SMOOTH",
"464 833 OFFCURVE",
"420 842 OFFCURVE",
"428 915 CURVE",
"347 915 LINE",
"343 824 OFFCURVE",
"398 781 OFFCURVE",
"492 781 CURVE SMOOTH"
);
}
);
width = 746;
}
);
leftKerningGroup = A;
note = Abreve;
rightKerningGroup = A;
unicode = 0102;
},
{
glyphname = Abreveacute;
lastChange = "2015-10-27 13:18:36 +0000";
layers = (
{
layerId = "AD8C1534-DD1F-4D30-8D71-C3A36519B1B2";
name = "Bold Italic";
paths = (
{
closed = 1;
nodes = (
"199 0 LINE",
"202 16 LINE",
"178 26 OFFCURVE",
"156 35 OFFCURVE",
"128 39 CURVE",
"415 562 LINE",
"485 41 LINE",
"467 38 OFFCURVE",
"440 32 OFFCURVE",
"404 20 CURVE",
"400 0 LINE",
"701 0 LINE",
"704 18 LINE",
"681 27 OFFCURVE",
"657 35 OFFCURVE",
"634 40 CURVE",
"531 704 LINE",
"423 704 LINE",
"51 42 LINE",
"42 41 OFFCURVE",
"-1 30 OFFCURVE",
"-29 21 CURVE",
"-33 0 LINE"
);
},
{
closed = 1;
nodes = (
"507 178 LINE",
"517 228 LINE",
"190 228 LINE",
"180 178 LINE"
);
},
{
closed = 1;
nodes = (
"592 787 OFFCURVE",
"665 830 OFFCURVE",
"698 921 CURVE",
"616 921 LINE",
"594 848 OFFCURVE",
"548 839 OFFCURVE",
"509 839 CURVE SMOOTH",
"469 839 OFFCURVE",
"426 848 OFFCURVE",
"434 921 CURVE",
"351 921 LINE",
"348 830 OFFCURVE",
"404 787 OFFCURVE",
"498 787 CURVE SMOOTH"
);
},
{
closed = 1;
nodes = (
"626 981 LINE SMOOTH",
"667 1001 OFFCURVE",
"694 1026 OFFCURVE",
"699 1050 CURVE SMOOTH",
"703 1069 OFFCURVE",
"692 1090 OFFCURVE",
"663 1090 CURVE SMOOTH",
"639 1090 OFFCURVE",
"612 1071 OFFCURVE",
"586 1046 CURVE SMOOTH",
"495 958 LINE",
"513 927 LINE"
);
}
);
width = 746;
}
);
leftKerningGroup = A;
note = Abreveacute;
rightKerningGroup = A;
unicode = 1EAE;
},
{
glyphname = Abrevedotbelow;
lastChange = "2015-10-27 13:18:36 +0000";
layers = (
{
layerId = "AD8C1534-DD1F-4D30-8D71-C3A36519B1B2";
name = "Bold Italic";
paths = (
{
closed = 1;
nodes = (
"199 0 LINE",
"202 16 LINE",
"178 26 OFFCURVE",
"156 35 OFFCURVE",
"128 39 CURVE",
"415 562 LINE",
"485 41 LINE",
"467 38 OFFCURVE",
"440 32 OFFCURVE",
"404 20 CURVE",
"400 0 LINE",
"701 0 LINE",
"704 18 LINE",
"681 27 OFFCURVE",
"657 35 OFFCURVE",
"634 40 CURVE",
"531 704 LINE",
"423 704 LINE",
"51 42 LINE",
"42 41 OFFCURVE",
"-1 30 OFFCURVE",
"-29 21 CURVE",
"-33 0 LINE"
);
},
{
closed = 1;
nodes = (
"329 -178 OFFCURVE",
"357 -151 OFFCURVE",
"365 -116 CURVE SMOOTH",
"372 -81 OFFCURVE",
"354 -54 OFFCURVE",
"318 -54 CURVE SMOOTH",
"282 -54 OFFCURVE",
"253 -81 OFFCURVE",
"247 -116 CURVE SMOOTH",
"239 -151 OFFCURVE",
"257 -178 OFFCURVE",
"293 -178 CURVE SMOOTH"
);
},
{
closed = 1;
nodes = (
"507 178 LINE",
"517 228 LINE",
"190 228 LINE",
"180 178 LINE"
);
},
{
closed = 1;
nodes = (
"581 780 OFFCURVE",
"655 823 OFFCURVE",
"687 914 CURVE",
"605 914 LINE",
"583 841 OFFCURVE",
"537 832 OFFCURVE",
"497 832 CURVE SMOOTH",
"458 832 OFFCURVE",
"415 841 OFFCURVE",
"422 914 CURVE",
"341 914 LINE",
"337 823 OFFCURVE",
"393 780 OFFCURVE",
"487 780 CURVE SMOOTH"
);
}
);
width = 746;
}
);
leftKerningGroup = A;
note = Abrevedotbelow;
rightKerningGroup = A;
unicode = 1EB6;
},
{
glyphname = Abrevegrave;
lastChange = "2015-10-27 13:18:36 +0000";
layers = (
{
layerId = "AD8C1534-DD1F-4D30-8D71-C3A36519B1B2";
name = "Bold Italic";
paths = (
{
closed = 1;
nodes = (
"199 0 LINE",
"202 16 LINE",
"178 26 OFFCURVE",
"156 35 OFFCURVE",
"128 39 CURVE",
"415 562 LINE",
"485 41 LINE",
"467 38 OFFCURVE",
"440 32 OFFCURVE",
"404 20 CURVE",
"400 0 LINE",
"701 0 LINE",
"704 18 LINE",
"681 27 OFFCURVE",
"657 35 OFFCURVE",
"634 40 CURVE",
"531 704 LINE",
"423 704 LINE",
"51 42 LINE",
"42 41 OFFCURVE",
"-1 30 OFFCURVE",
"-29 21 CURVE",
"-33 0 LINE"
);
},
{
closed = 1;
nodes = (
"507 178 LINE",
"517 228 LINE",
"190 228 LINE",
"180 178 LINE"
);
},
{
closed = 1;
nodes = (
"593 787 OFFCURVE",
"666 830 OFFCURVE",
"699 921 CURVE",
"617 921 LINE",
"595 848 OFFCURVE",
"549 839 OFFCURVE",
"510 839 CURVE SMOOTH",
"470 839 OFFCURVE",
"427 848 OFFCURVE",
"435 921 CURVE",
"352 921 LINE",
"348 830 OFFCURVE",
"405 787 OFFCURVE",
"499 787 CURVE SMOOTH"
);
},
{
closed = 1;
nodes = (
"569 958 LINE",
"516 1046 LINE SMOOTH",
"499 1071 OFFCURVE",
"479 1090 OFFCURVE",
"454 1090 CURVE SMOOTH",
"425 1090 OFFCURVE",
"407 1069 OFFCURVE",
"403 1050 CURVE SMOOTH",
"398 1026 OFFCURVE",
"414 1001 OFFCURVE",
"448 981 CURVE SMOOTH",
"540 927 LINE"
);
}
);
width = 746;
}
);
leftKerningGroup = A;
note = Abrevegrave;
rightKerningGroup = A;
unicode = 1EB0;
},
{
glyphname = Abrevehookabove;
lastChange = "2015-10-27 13:18:36 +0000";
layers = (
{
layerId = "AD8C1534-DD1F-4D30-8D71-C3A36519B1B2";
name = "Bold Italic";
paths = (
{
closed = 1;
nodes = (
"199 0 LINE",
"202 16 LINE",
"178 26 OFFCURVE",
"156 35 OFFCURVE",
"128 39 CURVE",
"415 562 LINE",
"485 41 LINE",
"467 38 OFFCURVE",
"440 32 OFFCURVE",
"404 20 CURVE",
"400 0 LINE",
"701 0 LINE",
"704 18 LINE",
"681 27 OFFCURVE",
"657 35 OFFCURVE",
"634 40 CURVE",
"531 704 LINE",
"423 704 LINE",
"51 42 LINE",
"42 41 OFFCURVE",
"-1 30 OFFCURVE",
"-29 21 CURVE",
"-33 0 LINE"
);
},
{
closed = 1;
nodes = (
"507 178 LINE",
"517 228 LINE",
"190 228 LINE",
"180 178 LINE"
);
},
{
closed = 1;
nodes = (
"592 787 OFFCURVE",
"665 830 OFFCURVE",
"698 921 CURVE",
"616 921 LINE",
"594 848 OFFCURVE",
"548 839 OFFCURVE",
"509 839 CURVE SMOOTH",
"469 839 OFFCURVE",
"426 848 OFFCURVE",
"434 921 CURVE",
"351 921 LINE",
"348 830 OFFCURVE",
"404 787 OFFCURVE",
"498 787 CURVE SMOOTH"
);
},
{
closed = 1;
nodes = (
"556 938 LINE",
"574 986 LINE",
"620 990 OFFCURVE",
"658 1008 OFFCURVE",
"668 1061 CURVE SMOOTH",
"680 1119 OFFCURVE",
"635 1141 OFFCURVE",
"584 1141 CURVE SMOOTH",
"556 1141 OFFCURVE",
"528 1134 OFFCURVE",
"509 1126 CURVE",
"507 1090 LINE",
"525 1098 OFFCURVE",
"546 1102 OFFCURVE",
"562 1102 CURVE SMOOTH",
"596 1102 OFFCURVE",
"610 1084 OFFCURVE",
"605 1062 CURVE SMOOTH",
"598 1029 OFFCURVE",
"571 1017 OFFCURVE",
"547 1017 CURVE SMOOTH",
"516 1017 LINE",
"503 938 LINE"
);
}
);
width = 746;
}
);
leftKerningGroup = A;
note = Abrevehookabove;
rightKerningGroup = A;
unicode = 1EB2;
},
{
glyphname = Abrevetilde;
lastChange = "2015-10-27 13:18:36 +0000";
layers = (
{
layerId = "AD8C1534-DD1F-4D30-8D71-C3A36519B1B2";
name = "Bold Italic";
paths = (
{
closed = 1;
nodes = (
"199 0 LINE",
"202 16 LINE",
"178 26 OFFCURVE",
"156 35 OFFCURVE",
"128 39 CURVE",
"415 562 LINE",
"485 41 LINE",
"467 38 OFFCURVE",
"440 32 OFFCURVE",
"404 20 CURVE",
"400 0 LINE",
"701 0 LINE",
"704 18 LINE",
"681 27 OFFCURVE",
"657 35 OFFCURVE",
"634 40 CURVE",
"531 704 LINE",
"423 704 LINE",
"51 42 LINE",
"42 41 OFFCURVE",
"-1 30 OFFCURVE",
"-29 21 CURVE",
"-33 0 LINE"
);
},
{
closed = 1;
nodes = (
"507 178 LINE",
"517 228 LINE",
"190 228 LINE",
"180 178 LINE"
);
},
{
closed = 1;
nodes = (
"592 787 OFFCURVE",
"665 830 OFFCURVE",
"698 921 CURVE",
"616 921 LINE",
"594 848 OFFCURVE",
"548 839 OFFCURVE",
"509 839 CURVE SMOOTH",
"469 839 OFFCURVE",
"426 848 OFFCURVE",
"434 921 CURVE",
"351 921 LINE",
"348 830 OFFCURVE",
"404 787 OFFCURVE",
"498 787 CURVE SMOOTH"
);
},
{
closed = 1;
nodes = (
"406 984 LINE",
"418 1016 OFFCURVE",
"446 1036 OFFCURVE",
"477 1036 CURVE SMOOTH",
"520 1036 OFFCURVE",
"548 985 OFFCURVE",
"604 985 CURVE SMOOTH",
"675 985 OFFCURVE",
"720 1031 OFFCURVE",
"742 1101 CURVE",
"693 1101 LINE",
"673 1056 OFFCURVE",
"638 1047 OFFCURVE",
"615 1047 CURVE SMOOTH",
"577 1047 OFFCURVE",
"561 1098 OFFCURVE",
"493 1098 CURVE SMOOTH",
"429 1098 OFFCURVE",
"381 1060 OFFCURVE",
"356 984 CURVE"
);
}
);
width = 746;
}
);
leftKerningGroup = A;
note = Abrevetilde;
rightKerningGroup = A;
unicode = 1EB4;
},
{
glyphname = Acaron;
lastChange = "2015-10-27 13:18:36 +0000";
layers = (
{
layerId = "AD8C1534-DD1F-4D30-8D71-C3A36519B1B2";
name = "Bold Italic";
paths = (
{
closed = 1;
nodes = (
"199 0 LINE",
"202 16 LINE",
"178 26 OFFCURVE",
"156 35 OFFCURVE",
"128 39 CURVE",
"415 562 LINE",
"485 41 LINE",
"467 38 OFFCURVE",
"440 32 OFFCURVE",
"404 20 CURVE",
"400 0 LINE",
"701 0 LINE",
"704 18 LINE",
"681 27 OFFCURVE",
"657 35 OFFCURVE",
"634 40 CURVE",
"531 704 LINE",
"423 704 LINE",
"51 42 LINE",
"42 41 OFFCURVE",
"-1 30 OFFCURVE",
"-29 21 CURVE",
"-33 0 LINE"
);
},
{
closed = 1;
nodes = (
"507 178 LINE",
"517 228 LINE",
"190 228 LINE",
"180 178 LINE"
);
},
{
closed = 1;
nodes = (
"468 786 OFFCURVE",
"519 786 OFFCURVE",
"528 786 CURVE",
"558 822 OFFCURVE",
"658 900 OFFCURVE",
"706 929 CURVE",
"656 974 LINE",
"609 942 OFFCURVE",
"538 882 OFFCURVE",
"507 846 CURVE",
"506 846 OFFCURVE",
"504 846 OFFCURVE",
"503 846 CURVE",
"489 882 OFFCURVE",
"442 942 OFFCURVE",
"409 974 CURVE",
"340 929 LINE",
"376 900 OFFCURVE",
"443 822 OFFCURVE",
"459 786 CURVE"
);
}
);
width = 746;
}
);
leftKerningGroup = A;
note = Acaron;
rightKerningGroup = A;
unicode = 01CD;
},
{
glyphname = Acircumflex;
lastChange = "2015-10-27 13:18:37 +0000";
layers = (
{
layerId = "AD8C1534-DD1F-4D30-8D71-C3A36519B1B2";
name = "Bold Italic";
paths = (
{
closed = 1;
nodes = (
"199 0 LINE",
"202 16 LINE",
"178 26 OFFCURVE",
"156 35 OFFCURVE",
"128 39 CURVE",
"415 562 LINE",
"485 41 LINE",
"467 38 OFFCURVE",
"440 32 OFFCURVE",
"404 20 CURVE",
"400 0 LINE",
"701 0 LINE",
"704 18 LINE",
"681 27 OFFCURVE",
"657 35 OFFCURVE",
"634 40 CURVE",
"531 704 LINE",
"423 704 LINE",
"51 42 LINE",
"42 41 OFFCURVE",
"-1 30 OFFCURVE",
"-29 21 CURVE",
"-33 0 LINE"
);
},
{
closed = 1;
nodes = (
"507 178 LINE",
"517 228 LINE",
"190 228 LINE",
"180 178 LINE"
);
},
{
closed = 1;
nodes = (
"416 816 OFFCURVE",
"488 876 OFFCURVE",
"516 912 CURVE",
"517 912 OFFCURVE",
"519 912 OFFCURVE",
"520 912 CURVE",
"537 876 OFFCURVE",
"583 816 OFFCURVE",
"616 783 CURVE",
"685 829 LINE",
"649 857 OFFCURVE",
"582 936 OFFCURVE",
"565 972 CURVE",
"557 972 OFFCURVE",
"505 972 OFFCURVE",
"496 972 CURVE",
"467 936 OFFCURVE",
"369 857 OFFCURVE",
"320 829 CURVE",
"371 783 LINE"
);
}
);
width = 746;
}
);
leftKerningGroup = A;
note = Acircumflex;
rightKerningGroup = A;
unicode = 00C2;
},
{
glyphname = Acircumflexacute;
lastChange = "2015-10-27 13:18:36 +0000";
layers = (
{
layerId = "AD8C1534-DD1F-4D30-8D71-C3A36519B1B2";
name = "Bold Italic";
paths = (
{
closed = 1;
nodes = (
"199 0 LINE",
"202 16 LINE",
"178 26 OFFCURVE",
"156 35 OFFCURVE",
"128 39 CURVE",
"415 562 LINE",
"485 41 LINE",
"467 38 OFFCURVE",
"440 32 OFFCURVE",
"404 20 CURVE",
"400 0 LINE",
"701 0 LINE",
"704 18 LINE",
"681 27 OFFCURVE",
"657 35 OFFCURVE",
"634 40 CURVE",
"531 704 LINE",
"423 704 LINE",
"51 42 LINE",
"42 41 OFFCURVE",
"-1 30 OFFCURVE",
"-29 21 CURVE",
"-33 0 LINE"
);
},
{
closed = 1;
nodes = (
"507 178 LINE",
"517 228 LINE",
"190 228 LINE",
"180 178 LINE"
);
},
{
closed = 1;
nodes = (
"418 816 OFFCURVE",
"489 876 OFFCURVE",
"518 912 CURVE",
"522 912 LINE",
"539 876 OFFCURVE",
"585 816 OFFCURVE",
"617 783 CURVE",
"686 829 LINE",
"650 857 OFFCURVE",
"584 936 OFFCURVE",
"567 972 CURVE",
"498 972 LINE",
"468 936 OFFCURVE",
"369 857 OFFCURVE",
"321 829 CURVE",
"372 783 LINE"
);
},
{
closed = 1;
nodes = (
"773 976 LINE SMOOTH",
"815 996 OFFCURVE",
"842 1021 OFFCURVE",
"847 1045 CURVE SMOOTH",
"851 1064 OFFCURVE",
"840 1085 OFFCURVE",
"811 1085 CURVE SMOOTH",
"786 1085 OFFCURVE",
"758 1066 OFFCURVE",
"732 1041 CURVE SMOOTH",
"643 953 LINE",
"660 922 LINE"
);
}
);
width = 746;
}
);
leftKerningGroup = A;
note = Acircumflexacute;
rightKerningGroup = A;
unicode = 1EA4;
},
{
glyphname = Acircumflexdotbelow;
lastChange = "2015-10-27 13:18:36 +0000";
layers = (
{
layerId = "AD8C1534-DD1F-4D30-8D71-C3A36519B1B2";
name = "Bold Italic";
paths = (
{
closed = 1;
nodes = (
"199 0 LINE",
"202 16 LINE",
"178 26 OFFCURVE",
"156 35 OFFCURVE",
"128 39 CURVE",
"415 562 LINE",
"485 41 LINE",
"467 38 OFFCURVE",
"440 32 OFFCURVE",
"404 20 CURVE",
"400 0 LINE",
"701 0 LINE",
"704 18 LINE",
"681 27 OFFCURVE",
"657 35 OFFCURVE",
"634 40 CURVE",
"531 704 LINE",
"423 704 LINE",
"51 42 LINE",
"42 41 OFFCURVE",
"-1 30 OFFCURVE",
"-29 21 CURVE",
"-33 0 LINE"
);
},
{
closed = 1;
nodes = (
"336 -178 OFFCURVE",
"364 -151 OFFCURVE",
"372 -116 CURVE SMOOTH",
"378 -81 OFFCURVE",
"361 -54 OFFCURVE",
"324 -54 CURVE SMOOTH",
"289 -54 OFFCURVE",
"260 -81 OFFCURVE",
"253 -116 CURVE SMOOTH",
"246 -151 OFFCURVE",
"264 -178 OFFCURVE",
"300 -178 CURVE SMOOTH"
);
},
{
closed = 1;
nodes = (
"507 178 LINE",
"517 228 LINE",
"190 228 LINE",
"180 178 LINE"
);
},
{
closed = 1;
nodes = (
"417 815 OFFCURVE",
"489 875 OFFCURVE",
"517 911 CURVE",
"518 911 OFFCURVE",
"520 911 OFFCURVE",
"521 911 CURVE",
"538 875 OFFCURVE",
"584 815 OFFCURVE",
"617 782 CURVE",
"686 828 LINE",
"650 856 OFFCURVE",
"583 935 OFFCURVE",
"566 971 CURVE",
"558 971 OFFCURVE",
"506 971 OFFCURVE",
"497 971 CURVE",
"468 935 OFFCURVE",
"370 856 OFFCURVE",
"321 828 CURVE",
"372 782 LINE"
);
}
);
width = 746;
}
);
leftKerningGroup = A;
note = Acircumflexdotbelow;
rightKerningGroup = A;
unicode = 1EAC;
},
{
glyphname = Acircumflexgrave;
lastChange = "2015-10-27 13:18:36 +0000";
layers = (
{
layerId = "AD8C1534-DD1F-4D30-8D71-C3A36519B1B2";
name = "Bold Italic";
paths = (
{
closed = 1;
nodes = (
"199 0 LINE",
"202 16 LINE",
"178 26 OFFCURVE",
"156 35 OFFCURVE",
"128 39 CURVE",
"415 562 LINE",
"485 41 LINE",
"467 38 OFFCURVE",
"440 32 OFFCURVE",
"404 20 CURVE",
"400 0 LINE",
"701 0 LINE",
"704 18 LINE",
"681 27 OFFCURVE",
"657 35 OFFCURVE",
"634 40 CURVE",
"531 704 LINE",
"423 704 LINE",
"51 42 LINE",
"42 41 OFFCURVE",
"-1 30 OFFCURVE",
"-29 21 CURVE",
"-33 0 LINE"
);
},
{
closed = 1;
nodes = (
"507 178 LINE",
"517 228 LINE",
"190 228 LINE",
"180 178 LINE"
);
},
{
closed = 1;
nodes = (
"415 953 LINE",
"361 1041 LINE SMOOTH",
"345 1066 OFFCURVE",
"324 1085 OFFCURVE",
"300 1085 CURVE SMOOTH",
"271 1085 OFFCURVE",
"252 1064 OFFCURVE",
"249 1045 CURVE SMOOTH",
"244 1021 OFFCURVE",
"259 996 OFFCURVE",
"294 976 CURVE SMOOTH",
"386 922 LINE"
);
},
{
closed = 1;
nodes = (
"418 816 OFFCURVE",
"489 876 OFFCURVE",
"518 912 CURVE",
"522 912 LINE",
"539 876 OFFCURVE",
"585 816 OFFCURVE",
"617 783 CURVE",
"686 829 LINE",
"650 857 OFFCURVE",
"584 936 OFFCURVE",
"567 972 CURVE",
"498 972 LINE",
"468 936 OFFCURVE",
"369 857 OFFCURVE",
"321 829 CURVE",
"372 783 LINE"
);
}
);
width = 746;
}
);
leftKerningGroup = A;
note = Acircumflexgrave;
rightKerningGroup = A;
unicode = 1EA6;
},
{
glyphname = Acircumflexhookabove;
lastChange = "2015-10-27 13:18:36 +0000";
layers = (
{
layerId = "AD8C1534-DD1F-4D30-8D71-C3A36519B1B2";
name = "Bold Italic";
paths = (
{
closed = 1;
nodes = (
"199 0 LINE",
"202 16 LINE",
"178 26 OFFCURVE",
"156 35 OFFCURVE",
"128 39 CURVE",
"415 562 LINE",
"485 41 LINE",
"467 38 OFFCURVE",
"440 32 OFFCURVE",
"404 20 CURVE",
"400 0 LINE",
"701 0 LINE",
"704 18 LINE",
"681 27 OFFCURVE",
"657 35 OFFCURVE",
"634 40 CURVE",
"531 704 LINE",
"423 704 LINE",
"51 42 LINE",
"42 41 OFFCURVE",
"-1 30 OFFCURVE",
"-29 21 CURVE",
"-33 0 LINE"
);
},
{
closed = 1;
nodes = (
"507 178 LINE",
"517 228 LINE",
"190 228 LINE",
"180 178 LINE"
);
},
{
closed = 1;
nodes = (
"418 816 OFFCURVE",
"489 876 OFFCURVE",
"518 912 CURVE",
"522 912 LINE",
"539 876 OFFCURVE",
"585 816 OFFCURVE",
"617 783 CURVE",
"686 829 LINE",
"650 857 OFFCURVE",
"584 936 OFFCURVE",
"567 972 CURVE",
"498 972 LINE",
"468 936 OFFCURVE",
"369 857 OFFCURVE",
"321 829 CURVE",
"372 783 LINE"
);
},
{
closed = 1;
nodes = (
"692 933 LINE",
"710 981 LINE",
"756 985 OFFCURVE",
"795 1003 OFFCURVE",
"805 1056 CURVE SMOOTH",
"817 1114 OFFCURVE",
"771 1136 OFFCURVE",
"720 1136 CURVE SMOOTH",
"692 1136 OFFCURVE",
"664 1129 OFFCURVE",
"645 1121 CURVE",
"643 1085 LINE",
"661 1093 OFFCURVE",
"683 1097 OFFCURVE",
"698 1097 CURVE SMOOTH",
"732 1097 OFFCURVE",
"746 1079 OFFCURVE",
"741 1057 CURVE SMOOTH",
"734 1024 OFFCURVE",
"708 1012 OFFCURVE",
"684 1012 CURVE SMOOTH",
"652 1012 LINE",
"640 933 LINE"
);
}
);
width = 746;
}
);
leftKerningGroup = A;
note = Acircumflexhookabove;
rightKerningGroup = A;
unicode = 1EA8;
},
{
glyphname = Acircumflextilde;
lastChange = "2015-10-27 13:18:36 +0000";
layers = (
{
layerId = "AD8C1534-DD1F-4D30-8D71-C3A36519B1B2";
name = "Bold Italic";
paths = (
{
closed = 1;
nodes = (
"199 0 LINE",
"202 16 LINE",
"178 26 OFFCURVE",
"156 35 OFFCURVE",
"128 39 CURVE",
"415 562 LINE",
"485 41 LINE",
"467 38 OFFCURVE",
"440 32 OFFCURVE",
"404 20 CURVE",
"400 0 LINE",
"701 0 LINE",
"704 18 LINE",
"681 27 OFFCURVE",
"657 35 OFFCURVE",
"634 40 CURVE",
"531 704 LINE",
"423 704 LINE",
"51 42 LINE",
"42 41 OFFCURVE",
"-1 30 OFFCURVE",
"-29 21 CURVE",
"-33 0 LINE"
);
},
{
closed = 1;
nodes = (
"507 178 LINE",
"517 228 LINE",
"190 228 LINE",
"180 178 LINE"
);
},
{
closed = 1;
nodes = (
"418 816 OFFCURVE",
"489 876 OFFCURVE",
"518 912 CURVE",
"522 912 LINE",
"539 876 OFFCURVE",
"585 816 OFFCURVE",
"617 783 CURVE",
"686 829 LINE",
"650 857 OFFCURVE",
"584 936 OFFCURVE",
"567 972 CURVE",
"498 972 LINE",
"468 936 OFFCURVE",
"369 857 OFFCURVE",
"321 829 CURVE",
"372 783 LINE"
);
},
{
closed = 1;
nodes = (
"415 1004 LINE",
"427 1036 OFFCURVE",
"455 1056 OFFCURVE",
"486 1056 CURVE SMOOTH",
"529 1056 OFFCURVE",
"557 1005 OFFCURVE",
"612 1005 CURVE SMOOTH",
"684 1005 OFFCURVE",
"729 1051 OFFCURVE",
"751 1121 CURVE",
"702 1121 LINE",
"682 1076 OFFCURVE",
"646 1067 OFFCURVE",
"624 1067 CURVE SMOOTH",
"586 1067 OFFCURVE",
"569 1118 OFFCURVE",
"502 1118 CURVE SMOOTH",
"438 1118 OFFCURVE",
"390 1080 OFFCURVE",
"365 1004 CURVE"
);
}
);
width = 746;
}
);
leftKerningGroup = A;
note = Acircumflextilde;
rightKerningGroup = A;
unicode = 1EAA;
},
{
glyphname = Adieresis;
lastChange = "2015-10-27 13:18:36 +0000";
layers = (
{
layerId = "AD8C1534-DD1F-4D30-8D71-C3A36519B1B2";
name = "Bold Italic";
paths = (
{
closed = 1;
nodes = (
"199 0 LINE",
"202 16 LINE",
"178 26 OFFCURVE",
"156 35 OFFCURVE",
"128 39 CURVE",
"415 562 LINE",
"485 41 LINE",
"467 38 OFFCURVE",
"440 32 OFFCURVE",
"404 20 CURVE",
"400 0 LINE",
"701 0 LINE",
"704 18 LINE",
"681 27 OFFCURVE",
"657 35 OFFCURVE",
"634 40 CURVE",
"531 704 LINE",
"423 704 LINE",
"51 42 LINE",
"42 41 OFFCURVE",
"-1 30 OFFCURVE",
"-29 21 CURVE",
"-33 0 LINE"
);
},
{
closed = 1;
nodes = (
"507 178 LINE",
"517 228 LINE",
"190 228 LINE",
"180 178 LINE"
);
},
{
closed = 1;
nodes = (
"398 785 OFFCURVE",
"427 812 OFFCURVE",
"435 847 CURVE SMOOTH",
"442 882 OFFCURVE",
"424 909 OFFCURVE",
"388 909 CURVE SMOOTH",
"353 909 OFFCURVE",
"324 882 OFFCURVE",
"318 847 CURVE SMOOTH",
"310 812 OFFCURVE",
"327 785 OFFCURVE",
"362 785 CURVE SMOOTH"
);
},
{
closed = 1;
nodes = (
"629 785 OFFCURVE",
"658 812 OFFCURVE",
"665 847 CURVE SMOOTH",
"672 882 OFFCURVE",
"655 909 OFFCURVE",
"618 909 CURVE SMOOTH",
"582 909 OFFCURVE",
"554 882 OFFCURVE",
"547 847 CURVE SMOOTH",
"540 812 OFFCURVE",
"556 785 OFFCURVE",
"592 785 CURVE SMOOTH"
);
}
);
width = 746;
}
);
leftKerningGroup = A;
note = Adieresis;
rightKerningGroup = A;
unicode = 00C4;
},
{
glyphname = Adotbelow;
lastChange = "2015-10-27 13:18:36 +0000";
layers = (
{
layerId = "AD8C1534-DD1F-4D30-8D71-C3A36519B1B2";
name = "Bold Italic";
paths = (
{
closed = 1;
nodes = (
"199 0 LINE",
"202 16 LINE",
"178 26 OFFCURVE",
"156 35 OFFCURVE",
"128 39 CURVE",
"415 562 LINE",
"485 41 LINE",
"467 38 OFFCURVE",
"440 32 OFFCURVE",
"404 20 CURVE",
"400 0 LINE",
"701 0 LINE",
"704 18 LINE",
"681 27 OFFCURVE",
"657 35 OFFCURVE",
"634 40 CURVE",
"531 704 LINE",
"423 704 LINE",
"51 42 LINE",
"42 41 OFFCURVE",
"-1 30 OFFCURVE",
"-29 21 CURVE",
"-33 0 LINE"
);
},
{
closed = 1;
nodes = (
"334 -178 OFFCURVE",
"362 -151 OFFCURVE",
"370 -116 CURVE SMOOTH",
"376 -81 OFFCURVE",
"359 -54 OFFCURVE",
"323 -54 CURVE SMOOTH",
"287 -54 OFFCURVE",
"258 -81 OFFCURVE",
"252 -116 CURVE SMOOTH",
"244 -151 OFFCURVE",
"262 -178 OFFCURVE",
"298 -178 CURVE SMOOTH"
);
},
{
closed = 1;
nodes = (
"507 178 LINE",
"517 228 LINE",
"190 228 LINE",
"180 178 LINE"
);
}
);
width = 746;
}
);
leftKerningGroup = A;
note = Adotbelow;
rightKerningGroup = A;
unicode = 1EA0;
},
{
glyphname = Agrave;
lastChange = "2015-10-27 13:18:37 +0000";
layers = (
{
layerId = "AD8C1534-DD1F-4D30-8D71-C3A36519B1B2";
name = "Bold Italic";
paths = (
{
closed = 1;
nodes = (
"199 0 LINE",
"202 16 LINE",
"178 26 OFFCURVE",
"156 35 OFFCURVE",
"128 39 CURVE",
"415 562 LINE",
"485 41 LINE",
"467 38 OFFCURVE",
"440 32 OFFCURVE",
"404 20 CURVE",
"400 0 LINE",
"701 0 LINE",
"704 18 LINE",
"681 27 OFFCURVE",
"657 35 OFFCURVE",
"634 40 CURVE",
"531 704 LINE",
"423 704 LINE",
"51 42 LINE",
"42 41 OFFCURVE",
"-1 30 OFFCURVE",
"-29 21 CURVE",
"-33 0 LINE"
);
},
{
closed = 1;
nodes = (
"507 178 LINE",
"517 228 LINE",
"190 228 LINE",
"180 178 LINE"
);
},
{
closed = 1;
nodes = (
"601 821 LINE",
"509 948 LINE",
"505 955 OFFCURVE",
"487 982 OFFCURVE",
"455 982 CURVE SMOOTH",
"421 982 OFFCURVE",
"403 959 OFFCURVE",
"399 940 CURVE SMOOTH",
"395 916 OFFCURVE",
"408 898 OFFCURVE",
"435 879 CURVE SMOOTH",
"570 786 LINE"
);
}
);
width = 746;
}
);
leftKerningGroup = A;
note = Agrave;
rightKerningGroup = A;
unicode = 00C0;
},
{
glyphname = Ahookabove;
lastChange = "2015-10-27 13:18:36 +0000";
layers = (
{
layerId = "AD8C1534-DD1F-4D30-8D71-C3A36519B1B2";
name = "Bold Italic";
paths = (
{
closed = 1;
nodes = (
"199 0 LINE",
"202 16 LINE",
"178 26 OFFCURVE",
"156 35 OFFCURVE",
"128 39 CURVE",
"415 562 LINE",
"485 41 LINE",
"467 38 OFFCURVE",
"440 32 OFFCURVE",
"404 20 CURVE",
"400 0 LINE",
"701 0 LINE",
"704 18 LINE",
"681 27 OFFCURVE",
"657 35 OFFCURVE",
"634 40 CURVE",
"531 704 LINE",
"423 704 LINE",
"51 42 LINE",
"42 41 OFFCURVE",
"-1 30 OFFCURVE",
"-29 21 CURVE",
"-33 0 LINE"
);
},
{
closed = 1;
nodes = (
"507 178 LINE",
"517 228 LINE",
"190 228 LINE",
"180 178 LINE"
);
},
{
closed = 1;
nodes = (
"533 783 LINE",
"557 852 LINE",
"610 857 OFFCURVE",
"654 878 OFFCURVE",
"665 938 CURVE SMOOTH",
"679 1004 OFFCURVE",
"626 1029 OFFCURVE",
"568 1029 CURVE SMOOTH",
"537 1029 OFFCURVE",
"504 1021 OFFCURVE",
"482 1011 CURVE",
"481 972 LINE",
"503 984 OFFCURVE",
"526 988 OFFCURVE",
"543 988 CURVE SMOOTH",
"583 988 OFFCURVE",
"598 965 OFFCURVE",
"593 939 CURVE SMOOTH",
"586 901 OFFCURVE",
"554 887 OFFCURVE",
"527 887 CURVE SMOOTH",
"491 887 LINE",
"473 783 LINE"
);
}
);
width = 746;
}
);
leftKerningGroup = A;
note = Ahookabove;
rightKerningGroup = A;
unicode = 1EA2;
},
{
glyphname = Amacron;
lastChange = "2015-10-27 13:18:36 +0000";
layers = (
{
layerId = "AD8C1534-DD1F-4D30-8D71-C3A36519B1B2";
name = "Bold Italic";
paths = (
{
closed = 1;
nodes = (
"199 0 LINE",
"202 16 LINE",
"178 26 OFFCURVE",
"156 35 OFFCURVE",
"128 39 CURVE",
"415 562 LINE",
"485 41 LINE",
"467 38 OFFCURVE",
"440 32 OFFCURVE",
"404 20 CURVE",
"400 0 LINE",
"701 0 LINE",
"704 18 LINE",
"681 27 OFFCURVE",
"657 35 OFFCURVE",
"634 40 CURVE",
"531 704 LINE",
"423 704 LINE",
"51 42 LINE",
"42 41 OFFCURVE",
"-1 30 OFFCURVE",
"-29 21 CURVE",
"-33 0 LINE"
);
},
{
closed = 1;
nodes = (
"507 178 LINE",
"517 228 LINE",
"190 228 LINE",
"180 178 LINE"
);
},
{
closed = 1;
nodes = (
"684 785 LINE",
"693 833 LINE",
"320 833 LINE",
"310 785 LINE"
);
}
);
width = 746;
}
);
leftKerningGroup = A;
note = Amacron;
rightKerningGroup = A;
unicode = 0100;
},
{
glyphname = Aogonek;
lastChange = "2015-10-27 13:18:36 +0000";
layers = (
{
layerId = "AD8C1534-DD1F-4D30-8D71-C3A36519B1B2";
name = "Bold Italic";
paths = (
{
closed = 1;
nodes = (
"199 0 LINE",
"202 16 LINE",
"178 26 OFFCURVE",
"156 35 OFFCURVE",
"128 39 CURVE",
"415 562 LINE",
"485 41 LINE",
"467 38 OFFCURVE",
"440 32 OFFCURVE",
"404 20 CURVE",
"400 0 LINE",
"701 0 LINE",
"704 18 LINE",
"681 27 OFFCURVE",
"657 35 OFFCURVE",
"634 40 CURVE",
"531 704 LINE",
"423 704 LINE",
"51 42 LINE",
"42 41 OFFCURVE",
"-1 30 OFFCURVE",
"-29 21 CURVE",
"-33 0 LINE"
);
},
{
closed = 1;
nodes = (
"660 -206 OFFCURVE",
"702 -196 OFFCURVE",
"730 -180 CURVE",
"743 -117 LINE",
"715 -132 OFFCURVE",
"692 -138 OFFCURVE",
"674 -138 CURVE SMOOTH",
"639 -138 OFFCURVE",
"620 -117 OFFCURVE",
"626 -86 CURVE SMOOTH",
"633 -54 OFFCURVE",
"665 -18 OFFCURVE",
"693 0 CURVE",
"623 0 LINE",
"563 -18 OFFCURVE",
"518 -71 OFFCURVE",
"510 -116 CURVE SMOOTH",
"498 -170 OFFCURVE",
"538 -206 OFFCURVE",
"618 -206 CURVE SMOOTH"
);
},
{
closed = 1;
nodes = (
"507 178 LINE",
"517 228 LINE",
"190 228 LINE",
"180 178 LINE"
);
}
);
width = 746;
}
);
leftKerningGroup = A;
note = Aogonek;
rightKerningGroup = A;
unicode = 0104;
},
{
glyphname = Aring;
lastChange = "2015-10-27 13:18:36 +0000";
layers = (
{
layerId = "AD8C1534-DD1F-4D30-8D71-C3A36519B1B2";
name = "Bold Italic";
paths = (
{
closed = 1;
nodes = (
"199 0 LINE",
"202 16 LINE",
"178 26 OFFCURVE",
"156 35 OFFCURVE",
"128 39 CURVE",
"415 562 LINE",
"485 41 LINE",
"467 38 OFFCURVE",
"440 32 OFFCURVE",
"404 20 CURVE",
"400 0 LINE",
"701 0 LINE",
"704 18 LINE",
"681 27 OFFCURVE",
"657 35 OFFCURVE",
"634 40 CURVE",
"531 704 LINE",
"423 704 LINE",
"51 42 LINE",
"42 41 OFFCURVE",
"-1 30 OFFCURVE",
"-29 21 CURVE",
"-33 0 LINE"
);
},
{
closed = 1;
nodes = (
"507 178 LINE",
"517 228 LINE",
"190 228 LINE",
"180 178 LINE"
);
},
{
closed = 1;
nodes = (
"546 745 OFFCURVE",
"596 786 OFFCURVE",
"609 847 CURVE SMOOTH",
"621 907 OFFCURVE",
"588 949 OFFCURVE",
"526 949 CURVE SMOOTH",
"464 949 OFFCURVE",
"413 907 OFFCURVE",
"400 847 CURVE SMOOTH",
"388 786 OFFCURVE",
"421 745 OFFCURVE",
"484 745 CURVE SMOOTH"
);
},
{
closed = 1;
nodes = (
"462 790 OFFCURVE",
"442 813 OFFCURVE",
"448 847 CURVE SMOOTH",
"455 881 OFFCURVE",
"485 903 OFFCURVE",
"516 903 CURVE SMOOTH",
"548 903 OFFCURVE",
"567 881 OFFCURVE",
"561 847 CURVE SMOOTH",
"554 813 OFFCURVE",
"525 790 OFFCURVE",
"493 790 CURVE SMOOTH"
);
}
);
width = 746;
}
);
leftKerningGroup = A;
note = Aring;
rightKerningGroup = A;
unicode = 00C5;
},
{
glyphname = Aringacute;
lastChange = "2015-10-27 13:18:37 +0000";
layers = (
{
layerId = "AD8C1534-DD1F-4D30-8D71-C3A36519B1B2";
name = "Bold Italic";
paths = (
{
closed = 1;
nodes = (
"199 0 LINE",
"202 16 LINE",
"178 26 OFFCURVE",
"156 35 OFFCURVE",
"128 39 CURVE",
"415 562 LINE",
"485 41 LINE",
"467 38 OFFCURVE",
"440 32 OFFCURVE",
"404 20 CURVE",
"400 0 LINE",
"701 0 LINE",
"704 18 LINE",
"681 27 OFFCURVE",
"657 35 OFFCURVE",
"634 40 CURVE",
"531 704 LINE",
"423 704 LINE",
"51 42 LINE",
"42 41 OFFCURVE",
"-1 30 OFFCURVE",
"-29 21 CURVE",
"-33 0 LINE"
);
},
{
closed = 1;
nodes = (
"507 178 LINE",
"517 228 LINE",
"190 228 LINE",
"180 178 LINE"
);
},
{
closed = 1;
nodes = (
"546 744 OFFCURVE",
"596 785 OFFCURVE",
"609 846 CURVE SMOOTH",
"621 906 OFFCURVE",
"588 948 OFFCURVE",
"526 948 CURVE SMOOTH",
"464 948 OFFCURVE",
"413 906 OFFCURVE",
"400 846 CURVE SMOOTH",
"388 785 OFFCURVE",
"421 744 OFFCURVE",
"484 744 CURVE SMOOTH"
);
},
{
closed = 1;
nodes = (
"462 789 OFFCURVE",
"442 812 OFFCURVE",
"448 846 CURVE SMOOTH",
"455 880 OFFCURVE",
"485 902 OFFCURVE",
"516 902 CURVE SMOOTH",
"548 902 OFFCURVE",
"567 880 OFFCURVE",
"561 846 CURVE SMOOTH",
"554 812 OFFCURVE",
"525 789 OFFCURVE",
"493 789 CURVE SMOOTH"
);
},
{
closed = 1;
nodes = (
"630 1064 LINE SMOOTH",
"664 1083 OFFCURVE",
"684 1101 OFFCURVE",
"689 1125 CURVE SMOOTH",
"693 1144 OFFCURVE",
"684 1167 OFFCURVE",
"652 1167 CURVE SMOOTH",
"619 1167 OFFCURVE",
"590 1139 OFFCURVE",
"584 1132 CURVE",
"441 1006 LINE",
"458 971 LINE"
);
}
);
width = 746;
}
);
leftKerningGroup = A;
note = Aringacute;
rightKerningGroup = A;
unicode = 01FA;
},
{
glyphname = Atilde;
lastChange = "2015-10-27 13:18:36 +0000";
layers = (
{
layerId = "AD8C1534-DD1F-4D30-8D71-C3A36519B1B2";
name = "Bold Italic";
paths = (
{
closed = 1;
nodes = (
"199 0 LINE",
"202 16 LINE",
"178 26 OFFCURVE",
"156 35 OFFCURVE",
"128 39 CURVE",
"415 562 LINE",
"485 41 LINE",
"467 38 OFFCURVE",
"440 32 OFFCURVE",
"404 20 CURVE",
"400 0 LINE",
"701 0 LINE",
"704 18 LINE",
"681 27 OFFCURVE",
"657 35 OFFCURVE",
"634 40 CURVE",
"531 704 LINE",
"423 704 LINE",
"51 42 LINE",
"42 41 OFFCURVE",
"-1 30 OFFCURVE",
"-29 21 CURVE",
"-33 0 LINE"
);
},
{
closed = 1;
nodes = (
"507 178 LINE",
"517 228 LINE",
"190 228 LINE",
"180 178 LINE"
);
},
{
closed = 1;
nodes = (
"362 786 LINE",
"373 818 OFFCURVE",
"398 839 OFFCURVE",
"427 839 CURVE SMOOTH",
"462 839 OFFCURVE",
"512 786 OFFCURVE",
"568 786 CURVE SMOOTH",
"642 786 OFFCURVE",
"686 834 OFFCURVE",
"708 905 CURVE",
"646 905 LINE",
"626 859 OFFCURVE",
"600 851 OFFCURVE",
"576 851 CURVE SMOOTH",
"537 851 OFFCURVE",
"508 903 OFFCURVE",
"439 903 CURVE SMOOTH",
"373 903 OFFCURVE",
"324 863 OFFCURVE",
"298 786 CURVE"
);
}
);
width = 746;
}
);
leftKerningGroup = A;
note = Atilde;
rightKerningGroup = A;
unicode = 00C3;
},
{
glyphname = AE;
lastChange = "2015-10-27 13:18:36 +0000";
layers = (
{
layerId = "AD8C1534-DD1F-4D30-8D71-C3A36519B1B2";
name = "Bold Italic";
paths = (
{
closed = 1;
nodes = (
"206 0 LINE",
"209 16 LINE",
"186 26 OFFCURVE",
"158 35 OFFCURVE",
"131 39 CURVE",
"235 178 LINE",
"468 178 LINE",
"440 39 LINE",
"412 35 OFFCURVE",
"380 27 OFFCURVE",
"352 18 CURVE",
"349 0 LINE",
"899 0 LINE",
"951 175 LINE",
"919 175 LINE",
"898 154 OFFCURVE",
"855 85 OFFCURVE",
"845 49 CURVE",
"590 49 LINE",
"648 334 LINE",
"816 334 LINE",
"815 317 OFFCURVE",
"815 278 OFFCURVE",
"818 248 CURVE",
"842 248 LINE",
"887 470 LINE",
"863 470 LINE",
"847 442 OFFCURVE",
"832 402 OFFCURVE",
"827 384 CURVE",
"659 384 LINE",
"713 650 LINE",
"962 650 LINE",
"957 619 OFFCURVE",
"965 546 OFFCURVE",
"973 523 CURVE",
"1006 523 LINE",
"1042 700 LINE",
"490 700 LINE",
"486 682 LINE",
"501 675 OFFCURVE",
"517 671 OFFCURVE",
"533 667 CURVE",
"49 41 LINE",
"24 35 OFFCURVE",
"-1 28 OFFCURVE",
"-30 18 CURVE",
"-33 0 LINE"
);
},
{
closed = 1;
nodes = (
"553 595 LINE",
"478 228 LINE",
"274 228 LINE"
);
}
);
width = 993;
}
);
leftKerningGroup = A;
note = AE;
unicode = 00C6;
},
{
glyphname = AEacute;
lastChange = "2015-10-27 13:18:36 +0000";
layers = (
{
layerId = "AD8C1534-DD1F-4D30-8D71-C3A36519B1B2";
name = "Bold Italic";
paths = (
{
closed = 1;
nodes = (
"206 0 LINE",
"209 16 LINE",
"186 26 OFFCURVE",
"158 35 OFFCURVE",
"131 39 CURVE",
"235 178 LINE",
"468 178 LINE",
"440 39 LINE",
"412 35 OFFCURVE",
"380 27 OFFCURVE",
"352 18 CURVE",
"349 0 LINE",
"899 0 LINE",
"951 175 LINE",
"919 175 LINE",
"898 154 OFFCURVE",
"855 85 OFFCURVE",
"845 49 CURVE",
"590 49 LINE",
"648 334 LINE",
"816 334 LINE",
"815 317 OFFCURVE",
"815 278 OFFCURVE",
"818 248 CURVE",
"842 248 LINE",
"887 470 LINE",
"863 470 LINE",
"847 442 OFFCURVE",
"832 402 OFFCURVE",
"827 384 CURVE",
"659 384 LINE",
"713 650 LINE",
"962 650 LINE",
"957 619 OFFCURVE",
"965 546 OFFCURVE",
"973 523 CURVE",
"1006 523 LINE",
"1042 700 LINE",
"490 700 LINE",
"486 682 LINE",
"501 675 OFFCURVE",
"517 671 OFFCURVE",
"533 667 CURVE",
"49 41 LINE",
"24 35 OFFCURVE",
"-1 28 OFFCURVE",
"-30 18 CURVE",
"-33 0 LINE"
);
},
{
closed = 1;
nodes = (
"553 595 LINE",
"478 228 LINE",
"274 228 LINE"
);
},
{
closed = 1;
nodes = (
"888 879 LINE SMOOTH",
"923 898 OFFCURVE",
"943 916 OFFCURVE",
"948 940 CURVE SMOOTH",
"951 959 OFFCURVE",
"942 982 OFFCURVE",
"910 982 CURVE SMOOTH",
"877 982 OFFCURVE",
"849 954 OFFCURVE",
"842 947 CURVE",
"699 821 LINE",
"716 786 LINE"
);
}
);
width = 993;
}
);
leftKerningGroup = A;
note = AEacute;
unicode = 01FC;
},
{
glyphname = B;
lastChange = "2015-10-27 13:18:35 +0000";
layers = (
{
layerId = "AD8C1534-DD1F-4D30-8D71-C3A36519B1B2";
name = "Bold Italic";
paths = (
{
closed = 1;
nodes = (
"326 0 LINE SMOOTH",
"497 0 OFFCURVE",
"572 69 OFFCURVE",
"598 194 CURVE SMOOTH",
"612 261 OFFCURVE",
"589 342 OFFCURVE",
"483 367 CURVE",
"484 373 LINE",
"573 398 OFFCURVE",
"626 466 OFFCURVE",
"640 537 CURVE SMOOTH",
"661 643 OFFCURVE",
"612 700 OFFCURVE",
"439 700 CURVE SMOOTH",
"126 700 LINE",
"122 681 LINE",
"149 671 OFFCURVE",
"173 664 OFFCURVE",
"195 660 CURVE",
"68 42 LINE",
"51 39 OFFCURVE",
"33 34 OFFCURVE",
"-13 17 CURVE",
"-16 0 LINE"
);
},
{
closed = 1;
nodes = (
"280 343 LINE",
"363 343 LINE SMOOTH",
"436 343 OFFCURVE",
"468 294 OFFCURVE",
"449 200 CURVE SMOOTH",
"429 103 OFFCURVE",
"387 49 OFFCURVE",
"316 49 CURVE SMOOTH",
"221 49 LINE"
);
},
{
closed = 1;
nodes = (
"344 650 LINE",
"409 650 LINE SMOOTH",
"482 650 OFFCURVE",
"504 612 OFFCURVE",
"487 528 CURVE SMOOTH",
"469 446 OFFCURVE",
"424 392 OFFCURVE",
"352 392 CURVE SMOOTH",
"291 392 LINE"
);
}
);
width = 617;
}
);
note = B;
unicode = 0042;
},
{
glyphname = C;
lastChange = "2015-10-27 13:18:36 +0000";
layers = (
{
layerId = "AD8C1534-DD1F-4D30-8D71-C3A36519B1B2";
name = "Bold Italic";
paths = (
{
closed = 1;
nodes = (
"421 -10 OFFCURVE",
"508 16 OFFCURVE",
"568 62 CURVE",
"556 104 LINE",
"486 59 OFFCURVE",
"413 42 OFFCURVE",
"363 42 CURVE SMOOTH",
"228 42 OFFCURVE",
"185 160 OFFCURVE",
"224 350 CURVE SMOOTH",
"262 539 OFFCURVE",
"366 658 OFFCURVE",
"502 658 CURVE SMOOTH",
"546 658 OFFCURVE",
"585 646 OFFCURVE",
"613 618 CURVE",
"608 573 OFFCURVE",
"606 520 OFFCURVE",
"611 485 CURVE",
"646 485 LINE",
"689 631 LINE",
"649 680 OFFCURVE",
"587 710 OFFCURVE",
"474 710 CURVE SMOOTH",
"258 710 OFFCURVE",
"115 572 OFFCURVE",
"70 350 CURVE SMOOTH",
"24 127 OFFCURVE",
"108 -10 OFFCURVE",
"331 -10 CURVE SMOOTH"
);
}
);
width = 637;
}
);
leftKerningGroup = C;
note = C;
unicode = 0043;
},
{
glyphname = Cacute;
lastChange = "2015-10-27 13:18:36 +0000";
layers = (
{
layerId = "AD8C1534-DD1F-4D30-8D71-C3A36519B1B2";
name = "Bold Italic";
paths = (
{
closed = 1;
nodes = (
"421 -10 OFFCURVE",
"508 16 OFFCURVE",
"568 62 CURVE",
"556 104 LINE",
"486 59 OFFCURVE",
"413 42 OFFCURVE",
"363 42 CURVE SMOOTH",
"228 42 OFFCURVE",
"185 160 OFFCURVE",
"224 350 CURVE SMOOTH",
"262 539 OFFCURVE",
"366 658 OFFCURVE",
"502 658 CURVE SMOOTH",
"546 658 OFFCURVE",
"585 646 OFFCURVE",
"613 618 CURVE",
"608 573 OFFCURVE",
"606 520 OFFCURVE",
"611 485 CURVE",
"646 485 LINE",
"689 631 LINE",
"649 680 OFFCURVE",
"587 710 OFFCURVE",
"474 710 CURVE SMOOTH",
"258 710 OFFCURVE",
"115 572 OFFCURVE",
"70 350 CURVE SMOOTH",
"24 127 OFFCURVE",
"108 -10 OFFCURVE",
"331 -10 CURVE SMOOTH"
);
},
{
closed = 1;
nodes = (
"620 879 LINE SMOOTH",
"655 898 OFFCURVE",
"675 916 OFFCURVE",
"680 940 CURVE SMOOTH",
"684 959 OFFCURVE",
"674 982 OFFCURVE",
"642 982 CURVE SMOOTH",
"610 982 OFFCURVE",
"581 954 OFFCURVE",
"574 947 CURVE",
"431 821 LINE",
"448 786 LINE"
);
}
);
width = 637;
}
);
leftKerningGroup = C;
note = Cacute;
unicode = 0106;
},
{
glyphname = Ccaron;
lastChange = "2015-10-27 13:18:36 +0000";
layers = (
{
layerId = "AD8C1534-DD1F-4D30-8D71-C3A36519B1B2";
name = "Bold Italic";
paths = (
{
closed = 1;
nodes = (
"421 -10 OFFCURVE",
"508 16 OFFCURVE",
"568 62 CURVE",
"556 104 LINE",
"486 59 OFFCURVE",
"413 42 OFFCURVE",
"363 42 CURVE SMOOTH",
"228 42 OFFCURVE",
"185 160 OFFCURVE",
"224 350 CURVE SMOOTH",
"262 539 OFFCURVE",
"366 658 OFFCURVE",
"502 658 CURVE SMOOTH",
"546 658 OFFCURVE",
"585 646 OFFCURVE",
"613 618 CURVE",
"608 573 OFFCURVE",
"606 520 OFFCURVE",
"611 485 CURVE",
"646 485 LINE",
"689 631 LINE",
"649 680 OFFCURVE",
"587 710 OFFCURVE",
"474 710 CURVE SMOOTH",
"258 710 OFFCURVE",
"115 572 OFFCURVE",
"70 350 CURVE SMOOTH",
"24 127 OFFCURVE",
"108 -10 OFFCURVE",
"331 -10 CURVE SMOOTH"
);
},
{
closed = 1;
nodes = (
"488 786 OFFCURVE",
"540 786 OFFCURVE",
"548 786 CURVE",
"578 822 OFFCURVE",
"678 900 OFFCURVE",
"726 929 CURVE",
"676 974 LINE",
"629 942 OFFCURVE",
"558 882 OFFCURVE",
"527 846 CURVE",
"526 846 OFFCURVE",
"524 846 OFFCURVE",
"523 846 CURVE",
"509 882 OFFCURVE",
"462 942 OFFCURVE",
"429 974 CURVE",
"360 929 LINE",
"396 900 OFFCURVE",
"463 822 OFFCURVE",
"479 786 CURVE"
);
}
);
width = 637;
}
);
leftKerningGroup = C;
note = Ccaron;
unicode = 010C;
},
{
glyphname = Ccedilla;
lastChange = "2015-10-27 13:18:36 +0000";
layers = (
{
layerId = "AD8C1534-DD1F-4D30-8D71-C3A36519B1B2";
name = "Bold Italic";
paths = (
{
closed = 1;
nodes = (
"421 -10 OFFCURVE",
"508 16 OFFCURVE",
"568 62 CURVE",
"556 104 LINE",
"486 59 OFFCURVE",
"413 42 OFFCURVE",
"363 42 CURVE SMOOTH",
"228 42 OFFCURVE",
"185 160 OFFCURVE",
"224 350 CURVE SMOOTH",
"262 539 OFFCURVE",
"366 658 OFFCURVE",
"502 658 CURVE SMOOTH",
"546 658 OFFCURVE",
"585 646 OFFCURVE",
"613 618 CURVE",
"608 573 OFFCURVE",
"606 520 OFFCURVE",
"611 485 CURVE",
"646 485 LINE",
"689 631 LINE",
"649 680 OFFCURVE",
"587 710 OFFCURVE",
"474 710 CURVE SMOOTH",
"258 710 OFFCURVE",
"115 572 OFFCURVE",
"70 350 CURVE SMOOTH",
"24 127 OFFCURVE",
"108 -10 OFFCURVE",
"331 -10 CURVE SMOOTH"
);
},
{
closed = 1;
nodes = (
"316 -258 OFFCURVE",
"387 -222 OFFCURVE",
"401 -151 CURVE SMOOTH",
"410 -108 OFFCURVE",
"384 -66 OFFCURVE",
"303 -66 CURVE",
"360 18 LINE",
"297 18 LINE",
"232 -76 LINE",
"250 -110 LINE",
"257 -109 OFFCURVE",
"265 -108 OFFCURVE",
"273 -108 CURVE SMOOTH",
"301 -108 OFFCURVE",
"335 -117 OFFCURVE",
"328 -151 CURVE SMOOTH",
"320 -193 OFFCURVE",
"281 -206 OFFCURVE",
"239 -206 CURVE SMOOTH",
"212 -206 OFFCURVE",
"184 -199 OFFCURVE",
"168 -188 CURVE",
"137 -227 LINE",
"161 -247 OFFCURVE",
"204 -258 OFFCURVE",
"240 -258 CURVE SMOOTH"
);
}
);
width = 637;
}
);
leftKerningGroup = C;
note = Ccedilla;
unicode = 00C7;
},
{
glyphname = Ccircumflex;
lastChange = "2015-10-27 13:18:36 +0000";
layers = (
{
layerId = "AD8C1534-DD1F-4D30-8D71-C3A36519B1B2";
name = "Bold Italic";
paths = (
{
closed = 1;
nodes = (
"421 -10 OFFCURVE",
"508 16 OFFCURVE",
"568 62 CURVE",
"556 104 LINE",
"486 59 OFFCURVE",
"413 42 OFFCURVE",
"363 42 CURVE SMOOTH",
"228 42 OFFCURVE",
"185 160 OFFCURVE",
"224 350 CURVE SMOOTH",
"262 539 OFFCURVE",
"366 658 OFFCURVE",
"502 658 CURVE SMOOTH",
"546 658 OFFCURVE",
"585 646 OFFCURVE",
"613 618 CURVE",
"608 573 OFFCURVE",
"606 520 OFFCURVE",
"611 485 CURVE",
"646 485 LINE",
"689 631 LINE",
"649 680 OFFCURVE",
"587 710 OFFCURVE",
"474 710 CURVE SMOOTH",
"258 710 OFFCURVE",
"115 572 OFFCURVE",
"70 350 CURVE SMOOTH",
"24 127 OFFCURVE",
"108 -10 OFFCURVE",
"331 -10 CURVE SMOOTH"
);
},
{
closed = 1;
nodes = (
"425 816 OFFCURVE",
"497 876 OFFCURVE",
"526 912 CURVE",
"527 912 OFFCURVE",
"529 912 OFFCURVE",
"530 912 CURVE",
"546 876 OFFCURVE",
"592 816 OFFCURVE",
"626 783 CURVE",
"695 829 LINE",
"659 857 OFFCURVE",
"591 936 OFFCURVE",
"575 972 CURVE",
"566 972 OFFCURVE",
"515 972 OFFCURVE",
"506 972 CURVE",
"476 936 OFFCURVE",
"378 857 OFFCURVE",
"329 829 CURVE",
"380 783 LINE"
);
}
);
width = 637;
}
);
leftKerningGroup = C;
note = Ccircumflex;
unicode = 0108;
},
{
glyphname = Cdotaccent;
lastChange = "2015-10-27 13:18:36 +0000";
layers = (
{
layerId = "AD8C1534-DD1F-4D30-8D71-C3A36519B1B2";
name = "Bold Italic";
paths = (
{
closed = 1;
nodes = (
"421 -10 OFFCURVE",
"508 16 OFFCURVE",
"568 62 CURVE",
"556 104 LINE",
"486 59 OFFCURVE",
"413 42 OFFCURVE",
"363 42 CURVE SMOOTH",
"228 42 OFFCURVE",
"185 160 OFFCURVE",
"224 350 CURVE SMOOTH",
"262 539 OFFCURVE",
"366 658 OFFCURVE",
"502 658 CURVE SMOOTH",
"546 658 OFFCURVE",
"585 646 OFFCURVE",
"613 618 CURVE",
"608 573 OFFCURVE",
"606 520 OFFCURVE",
"611 485 CURVE",
"646 485 LINE",
"689 631 LINE",
"649 680 OFFCURVE",
"587 710 OFFCURVE",
"474 710 CURVE SMOOTH",
"258 710 OFFCURVE",
"115 572 OFFCURVE",
"70 350 CURVE SMOOTH",
"24 127 OFFCURVE",
"108 -10 OFFCURVE",
"331 -10 CURVE SMOOTH"
);
},
{
closed = 1;
nodes = (
"551 785 OFFCURVE",
"580 812 OFFCURVE",
"588 847 CURVE SMOOTH",
"594 882 OFFCURVE",
"577 909 OFFCURVE",
"541 909 CURVE SMOOTH",
"505 909 OFFCURVE",
"477 882 OFFCURVE",
"470 847 CURVE SMOOTH",
"463 812 OFFCURVE",
"479 785 OFFCURVE",
"516 785 CURVE SMOOTH"
);
}
);
width = 637;
}
);
leftKerningGroup = C;
note = Cdotaccent;
unicode = 010A;
},
{
glyphname = D;
lastChange = "2015-10-27 13:18:36 +0000";
layers = (
{
layerId = "AD8C1534-DD1F-4D30-8D71-C3A36519B1B2";
name = "Bold Italic";
paths = (
{
closed = 1;
nodes = (
"307 0 LINE SMOOTH",
"526 0 OFFCURVE",
"639 127 OFFCURVE",
"685 350 CURVE SMOOTH",
"731 573 OFFCURVE",
"669 700 OFFCURVE",
"450 700 CURVE SMOOTH",
"132 700 LINE",
"129 682 LINE",
"155 673 OFFCURVE",
"178 665 OFFCURVE",
"201 660 CURVE",
"74 41 LINE",
"56 38 OFFCURVE",
"22 28 OFFCURVE",
"-6 19 CURVE",
"-10 0 LINE"
);
},
{
closed = 1;
nodes = (
"348 650 LINE",
"440 650 LINE SMOOTH",
"556 650 OFFCURVE",
"568 529 OFFCURVE",
"532 350 CURVE SMOOTH",
"495 170 OFFCURVE",
"433 49 OFFCURVE",
"315 49 CURVE SMOOTH",
"225 49 LINE"
);
}
);
width = 687;
}
);
note = D;
rightKerningGroup = D;
unicode = 0044;
},
{
glyphname = Eth;
lastChange = "2015-10-27 13:18:36 +0000";
layers = (
{
layerId = "AD8C1534-DD1F-4D30-8D71-C3A36519B1B2";
name = "Bold Italic";
paths = (
{
closed = 1;
nodes = (
"307 0 LINE SMOOTH",
"526 0 OFFCURVE",
"639 127 OFFCURVE",
"685 350 CURVE SMOOTH",
"731 573 OFFCURVE",
"669 700 OFFCURVE",
"450 700 CURVE SMOOTH",
"132 700 LINE",
"129 682 LINE",
"155 673 OFFCURVE",
"178 665 OFFCURVE",
"201 660 CURVE",
"74 41 LINE",
"56 38 OFFCURVE",
"22 28 OFFCURVE",
"-6 19 CURVE",
"-10 0 LINE"
);
},
{
closed = 1;
nodes = (
"434 305 LINE",
"446 363 LINE",
"77 363 LINE",
"64 305 LINE"
);
},
{
closed = 1;
nodes = (
"348 650 LINE",
"440 650 LINE SMOOTH",
"556 650 OFFCURVE",
"568 529 OFFCURVE",
"532 350 CURVE SMOOTH",
"495 170 OFFCURVE",
"433 49 OFFCURVE",
"315 49 CURVE SMOOTH",
"225 49 LINE"
);
}
);
width = 687;
}
);
note = Eth;
rightKerningGroup = D;
unicode = 00D0;
},
{
glyphname = Dcaron;
lastChange = "2015-10-27 13:18:36 +0000";
layers = (
{
layerId = "AD8C1534-DD1F-4D30-8D71-C3A36519B1B2";
name = "Bold Italic";
paths = (
{
closed = 1;
nodes = (
"307 0 LINE SMOOTH",
"526 0 OFFCURVE",
"639 127 OFFCURVE",
"685 350 CURVE SMOOTH",
"731 573 OFFCURVE",
"669 700 OFFCURVE",
"450 700 CURVE SMOOTH",
"132 700 LINE",
"129 682 LINE",
"155 673 OFFCURVE",
"178 665 OFFCURVE",
"201 660 CURVE",
"74 41 LINE",
"56 38 OFFCURVE",
"22 28 OFFCURVE",
"-6 19 CURVE",
"-10 0 LINE"
);
},
{
closed = 1;
nodes = (
"348 650 LINE",
"440 650 LINE SMOOTH",
"556 650 OFFCURVE",
"568 529 OFFCURVE",
"532 350 CURVE SMOOTH",
"495 170 OFFCURVE",
"433 49 OFFCURVE",
"315 49 CURVE SMOOTH",
"225 49 LINE"
);
},
{
closed = 1;
nodes = (
"427 786 OFFCURVE",
"479 786 OFFCURVE",
"488 786 CURVE",
"517 822 OFFCURVE",
"617 900 OFFCURVE",
"665 929 CURVE",
"615 974 LINE",
"568 942 OFFCURVE",
"497 882 OFFCURVE",
"467 846 CURVE",
"466 846 OFFCURVE",
"464 846 OFFCURVE",
"463 846 CURVE",
"448 882 OFFCURVE",
"401 942 OFFCURVE",
"369 974 CURVE",
"300 929 LINE",
"336 900 OFFCURVE",
"402 822 OFFCURVE",
"419 786 CURVE"
);
}
);
width = 687;
}
);
note = Dcaron;
rightKerningGroup = D;
unicode = 010E;
},
{
glyphname = Dcroat;
lastChange = "2015-10-27 13:18:36 +0000";
layers = (
{
layerId = "AD8C1534-DD1F-4D30-8D71-C3A36519B1B2";
name = "Bold Italic";
paths = (
{
closed = 1;
nodes = (
"307 0 LINE SMOOTH",
"526 0 OFFCURVE",
"639 127 OFFCURVE",
"685 350 CURVE SMOOTH",
"731 573 OFFCURVE",
"669 700 OFFCURVE",
"450 700 CURVE SMOOTH",
"132 700 LINE",
"129 682 LINE",
"155 673 OFFCURVE",
"178 665 OFFCURVE",
"201 660 CURVE",
"74 41 LINE",
"56 38 OFFCURVE",
"22 28 OFFCURVE",
"-6 19 CURVE",
"-10 0 LINE"
);
},
{
closed = 1;
nodes = (
"416 309 LINE",
"426 358 LINE",
"77 358 LINE",
"66 309 LINE"
);
},
{
closed = 1;
nodes = (
"348 650 LINE",
"440 650 LINE SMOOTH",
"556 650 OFFCURVE",
"568 529 OFFCURVE",
"532 350 CURVE SMOOTH",
"495 170 OFFCURVE",
"433 49 OFFCURVE",
"315 49 CURVE SMOOTH",
"225 49 LINE"
);
}
);
width = 687;
}
);
note = Dcroat;
rightKerningGroup = D;
unicode = 0110;
},
{
glyphname = Ddotbelow;
lastChange = "2015-10-27 13:18:36 +0000";
layers = (
{
layerId = "AD8C1534-DD1F-4D30-8D71-C3A36519B1B2";
name = "Bold Italic";
paths = (
{
closed = 1;
nodes = (
"307 0 LINE SMOOTH",
"526 0 OFFCURVE",
"639 127 OFFCURVE",
"685 350 CURVE SMOOTH",
"731 573 OFFCURVE",
"669 700 OFFCURVE",
"450 700 CURVE SMOOTH",
"132 700 LINE",
"129 682 LINE",
"155 673 OFFCURVE",
"178 665 OFFCURVE",
"201 660 CURVE",
"74 41 LINE",
"56 38 OFFCURVE",
"22 28 OFFCURVE",
"-6 19 CURVE",
"-10 0 LINE"
);
},
{
closed = 1;
nodes = (
"301 -178 OFFCURVE",
"329 -151 OFFCURVE",
"337 -116 CURVE SMOOTH",
"344 -81 OFFCURVE",
"326 -54 OFFCURVE",
"290 -54 CURVE SMOOTH",
"254 -54 OFFCURVE",
"226 -81 OFFCURVE",
"219 -116 CURVE SMOOTH",
"211 -151 OFFCURVE",
"229 -178 OFFCURVE",
"265 -178 CURVE SMOOTH"
);
},
{
closed = 1;
nodes = (
"348 650 LINE",
"440 650 LINE SMOOTH",
"556 650 OFFCURVE",
"568 529 OFFCURVE",
"532 350 CURVE SMOOTH",
"495 170 OFFCURVE",
"433 49 OFFCURVE",
"315 49 CURVE SMOOTH",
"225 49 LINE"
);
}
);
width = 687;
}
);
note = Ddotbelow;
rightKerningGroup = D;
unicode = 1E0C;
},
{
glyphname = Dlinebelow;
lastChange = "2015-10-27 13:18:36 +0000";
layers = (
{
layerId = "AD8C1534-DD1F-4D30-8D71-C3A36519B1B2";
name = "Bold Italic";
paths = (
{
closed = 1;
nodes = (
"307 0 LINE SMOOTH",
"526 0 OFFCURVE",
"639 127 OFFCURVE",
"685 350 CURVE SMOOTH",
"731 573 OFFCURVE",
"669 700 OFFCURVE",
"450 700 CURVE SMOOTH",
"132 700 LINE",
"129 682 LINE",
"155 673 OFFCURVE",
"178 665 OFFCURVE",
"201 660 CURVE",
"74 41 LINE",
"56 38 OFFCURVE",
"22 28 OFFCURVE",
"-6 19 CURVE",
"-10 0 LINE"
);
},
{
closed = 1;
nodes = (
"459 -109 LINE",
"469 -61 LINE",
"96 -61 LINE",
"85 -109 LINE"
);
},
{
closed = 1;
nodes = (
"348 650 LINE",
"440 650 LINE SMOOTH",
"556 650 OFFCURVE",
"568 529 OFFCURVE",
"532 350 CURVE SMOOTH",
"495 170 OFFCURVE",
"433 49 OFFCURVE",
"315 49 CURVE SMOOTH",
"225 49 LINE"
);
}
);
width = 687;
}
);
note = Dlinebelow;
rightKerningGroup = D;
unicode = 1E0E;
},
{
glyphname = E;
lastChange = "2015-10-27 13:18:36 +0000";
layers = (
{
layerId = "AD8C1534-DD1F-4D30-8D71-C3A36519B1B2";
name = "Bold Italic";
paths = (
{
closed = 1;
nodes = (
"540 0 LINE",
"593 175 LINE",
"561 175 LINE",
"540 154 OFFCURVE",
"496 85 OFFCURVE",
"486 49 CURVE",
"233 49 LINE",
"356 650 LINE",
"603 650 LINE",
"598 619 OFFCURVE",
"606 546 OFFCURVE",
"614 523 CURVE",
"647 523 LINE",
"683 700 LINE",
"132 700 LINE",
"129 682 LINE",
"155 672 OFFCURVE",
"184 664 OFFCURVE",
"207 660 CURVE",
"81 40 LINE",
"56 36 OFFCURVE",
"22 28 OFFCURVE",
"-7 18 CURVE",
"-10 0 LINE"
);
},
{
closed = 1;
nodes = (
"482 239 LINE",
"527 461 LINE",
"503 461 LINE",
"488 433 OFFCURVE",
"472 393 OFFCURVE",
"466 375 CURVE",
"221 375 LINE",
"211 325 LINE",
"456 325 LINE",
"454 308 OFFCURVE",
"454 269 OFFCURVE",
"458 239 CURVE"
);
}
);
width = 634;
}
);
note = E;
unicode = 0045;
},
{
glyphname = Eacute;
lastChange = "2015-10-27 13:18:36 +0000";
layers = (
{
layerId = "AD8C1534-DD1F-4D30-8D71-C3A36519B1B2";
name = "Bold Italic";
paths = (
{
closed = 1;
nodes = (
"540 0 LINE",
"593 175 LINE",
"561 175 LINE",
"540 154 OFFCURVE",
"496 85 OFFCURVE",
"486 49 CURVE",
"233 49 LINE",
"356 650 LINE",
"603 650 LINE",
"598 619 OFFCURVE",
"606 546 OFFCURVE",
"614 523 CURVE",
"647 523 LINE",
"683 700 LINE",
"132 700 LINE",
"129 682 LINE",
"155 672 OFFCURVE",
"184 664 OFFCURVE",
"207 660 CURVE",
"81 40 LINE",
"56 36 OFFCURVE",
"22 28 OFFCURVE",
"-7 18 CURVE",
"-10 0 LINE"
);
},
{
closed = 1;
nodes = (
"482 239 LINE",
"527 461 LINE",
"503 461 LINE",
"488 433 OFFCURVE",
"472 393 OFFCURVE",
"466 375 CURVE",
"221 375 LINE",
"211 325 LINE",
"456 325 LINE",
"454 308 OFFCURVE",
"454 269 OFFCURVE",
"458 239 CURVE"
);
},
{
closed = 1;
nodes = (
"563 879 LINE SMOOTH",
"597 898 OFFCURVE",
"617 916 OFFCURVE",
"622 940 CURVE SMOOTH",
"626 959 OFFCURVE",
"616 982 OFFCURVE",
"585 982 CURVE SMOOTH",
"552 982 OFFCURVE",
"523 954 OFFCURVE",
"516 947 CURVE",
"373 821 LINE",
"391 786 LINE"
);
}
);
width = 634;
}
);
note = Eacute;
unicode = 00C9;
},
{
glyphname = Ebreve;
lastChange = "2015-10-27 13:18:37 +0000";
layers = (
{
layerId = "AD8C1534-DD1F-4D30-8D71-C3A36519B1B2";
name = "Bold Italic";
paths = (
{
closed = 1;
nodes = (
"540 0 LINE",
"593 175 LINE",
"561 175 LINE",
"540 154 OFFCURVE",
"496 85 OFFCURVE",
"486 49 CURVE",
"233 49 LINE",
"356 650 LINE",
"603 650 LINE",
"598 619 OFFCURVE",
"606 546 OFFCURVE",
"614 523 CURVE",
"647 523 LINE",
"683 700 LINE",
"132 700 LINE",
"129 682 LINE",
"155 672 OFFCURVE",
"184 664 OFFCURVE",
"207 660 CURVE",
"81 40 LINE",
"56 36 OFFCURVE",
"22 28 OFFCURVE",
"-7 18 CURVE",
"-10 0 LINE"
);
},
{
closed = 1;
nodes = (
"482 239 LINE",
"527 461 LINE",
"503 461 LINE",
"488 433 OFFCURVE",
"472 393 OFFCURVE",
"466 375 CURVE",
"221 375 LINE",
"211 325 LINE",
"456 325 LINE",
"454 308 OFFCURVE",
"454 269 OFFCURVE",
"458 239 CURVE"
);
},
{
closed = 1;
nodes = (
"575 782 OFFCURVE",
"649 825 OFFCURVE",
"682 916 CURVE",
"599 916 LINE",
"577 843 OFFCURVE",
"531 834 OFFCURVE",
"492 834 CURVE SMOOTH",
"452 834 OFFCURVE",
"409 843 OFFCURVE",
"417 916 CURVE",
"335 916 LINE",
"331 825 OFFCURVE",
"387 782 OFFCURVE",
"481 782 CURVE SMOOTH"
);
}
);
width = 634;
}
);
note = Ebreve;
unicode = 0114;
},
{
glyphname = Ecaron;
lastChange = "2015-10-27 13:18:36 +0000";
layers = (
{
layerId = "AD8C1534-DD1F-4D30-8D71-C3A36519B1B2";
name = "Bold Italic";
paths = (
{
closed = 1;
nodes = (
"540 0 LINE",
"593 175 LINE",
"561 175 LINE",
"540 154 OFFCURVE",
"496 85 OFFCURVE",
"486 49 CURVE",
"233 49 LINE",
"356 650 LINE",
"603 650 LINE",
"598 619 OFFCURVE",
"606 546 OFFCURVE",
"614 523 CURVE",
"647 523 LINE",
"683 700 LINE",
"132 700 LINE",
"129 682 LINE",
"155 672 OFFCURVE",
"184 664 OFFCURVE",
"207 660 CURVE",
"81 40 LINE",
"56 36 OFFCURVE",
"22 28 OFFCURVE",
"-7 18 CURVE",
"-10 0 LINE"
);
},
{
closed = 1;
nodes = (
"482 239 LINE",
"527 461 LINE",
"503 461 LINE",
"488 433 OFFCURVE",
"472 393 OFFCURVE",
"466 375 CURVE",
"221 375 LINE",
"211 325 LINE",
"456 325 LINE",
"454 308 OFFCURVE",
"454 269 OFFCURVE",
"458 239 CURVE"
);
},
{
closed = 1;
nodes = (
"452 786 OFFCURVE",
"504 786 OFFCURVE",
"513 786 CURVE",
"542 822 OFFCURVE",
"642 900 OFFCURVE",
"690 929 CURVE",
"640 974 LINE",
"593 942 OFFCURVE",
"522 882 OFFCURVE",
"492 846 CURVE",
"491 846 OFFCURVE",
"489 846 OFFCURVE",
"488 846 CURVE",
"473 882 OFFCURVE",
"426 942 OFFCURVE",
"394 974 CURVE",
"324 929 LINE",
"361 900 OFFCURVE",
"427 822 OFFCURVE",
"444 786 CURVE"
);
}
);
width = 634;
}
);
note = Ecaron;
unicode = 011A;
},
{
glyphname = Ecircumflex;
lastChange = "2015-10-27 13:18:36 +0000";
layers = (
{
layerId = "AD8C1534-DD1F-4D30-8D71-C3A36519B1B2";
name = "Bold Italic";
paths = (
{
closed = 1;
nodes = (
"540 0 LINE",
"593 175 LINE",
"561 175 LINE",
"540 154 OFFCURVE",
"496 85 OFFCURVE",
"486 49 CURVE",
"233 49 LINE",
"356 650 LINE",
"603 650 LINE",
"598 619 OFFCURVE",
"606 546 OFFCURVE",
"614 523 CURVE",
"647 523 LINE",
"683 700 LINE",
"132 700 LINE",
"129 682 LINE",
"155 672 OFFCURVE",
"184 664 OFFCURVE",
"207 660 CURVE",
"81 40 LINE",
"56 36 OFFCURVE",
"22 28 OFFCURVE",
"-7 18 CURVE",
"-10 0 LINE"
);
},
{
closed = 1;
nodes = (
"482 239 LINE",
"527 461 LINE",
"503 461 LINE",
"488 433 OFFCURVE",
"472 393 OFFCURVE",
"466 375 CURVE",
"221 375 LINE",
"211 325 LINE",
"456 325 LINE",
"454 308 OFFCURVE",
"454 269 OFFCURVE",
"458 239 CURVE"
);
},
{
closed = 1;
nodes = (
"396 816 OFFCURVE",
"468 876 OFFCURVE",
"497 912 CURVE",
"498 912 OFFCURVE",
"500 912 OFFCURVE",
"501 912 CURVE",
"517 876 OFFCURVE",
"564 816 OFFCURVE",
"597 783 CURVE",
"666 829 LINE",
"630 857 OFFCURVE",
"563 936 OFFCURVE",
"546 972 CURVE",
"538 972 OFFCURVE",
"486 972 OFFCURVE",
"477 972 CURVE",
"447 936 OFFCURVE",
"349 857 OFFCURVE",
"300 829 CURVE",
"351 783 LINE"
);
}
);
width = 634;
}
);
note = Ecircumflex;
unicode = 00CA;
},
{
glyphname = Ecircumflexacute;
lastChange = "2015-10-27 13:18:37 +0000";
layers = (
{
layerId = "AD8C1534-DD1F-4D30-8D71-C3A36519B1B2";
name = "Bold Italic";
paths = (
{
closed = 1;
nodes = (
"540 0 LINE",
"593 175 LINE",
"561 175 LINE",
"540 154 OFFCURVE",
"496 85 OFFCURVE",
"486 49 CURVE",
"233 49 LINE",
"356 650 LINE",
"603 650 LINE",
"598 619 OFFCURVE",
"606 546 OFFCURVE",
"614 523 CURVE",
"647 523 LINE",
"683 700 LINE",
"132 700 LINE",
"129 682 LINE",
"155 672 OFFCURVE",
"184 664 OFFCURVE",
"207 660 CURVE",
"81 40 LINE",
"56 36 OFFCURVE",
"22 28 OFFCURVE",
"-7 18 CURVE",
"-10 0 LINE"
);
},
{
closed = 1;
nodes = (
"482 239 LINE",
"527 461 LINE",
"503 461 LINE",
"488 433 OFFCURVE",
"472 393 OFFCURVE",
"466 375 CURVE",
"221 375 LINE",
"211 325 LINE",
"456 325 LINE",
"454 308 OFFCURVE",
"454 269 OFFCURVE",
"458 239 CURVE"
);
},
{
closed = 1;
nodes = (
"378 816 OFFCURVE",
"449 876 OFFCURVE",
"479 912 CURVE",
"483 912 LINE",
"499 876 OFFCURVE",
"545 816 OFFCURVE",
"578 783 CURVE",
"647 829 LINE",
"611 857 OFFCURVE",
"544 936 OFFCURVE",
"528 972 CURVE",
"459 972 LINE",
"429 936 OFFCURVE",
"329 857 OFFCURVE",
"281 829 CURVE",
"332 783 LINE"
);
},
{
closed = 1;
nodes = (
"733 976 LINE SMOOTH",
"776 996 OFFCURVE",
"803 1021 OFFCURVE",
"807 1045 CURVE SMOOTH",
"811 1064 OFFCURVE",
"801 1085 OFFCURVE",
"772 1085 CURVE SMOOTH",
"747 1085 OFFCURVE",
"719 1066 OFFCURVE",
"693 1041 CURVE SMOOTH",
"604 953 LINE",
"620 922 LINE"
);
}
);
width = 634;
}
);
note = Ecircumflexacute;
unicode = 1EBE;
},
{
glyphname = Ecircumflexdotbelow;
lastChange = "2015-10-27 13:18:36 +0000";
layers = (
{
layerId = "AD8C1534-DD1F-4D30-8D71-C3A36519B1B2";
name = "Bold Italic";
paths = (
{
closed = 1;
nodes = (
"540 0 LINE",
"593 175 LINE",
"561 175 LINE",
"540 154 OFFCURVE",
"496 85 OFFCURVE",
"486 49 CURVE",
"233 49 LINE",
"356 650 LINE",
"603 650 LINE",
"598 619 OFFCURVE",
"606 546 OFFCURVE",
"614 523 CURVE",
"647 523 LINE",
"683 700 LINE",
"132 700 LINE",
"129 682 LINE",
"155 672 OFFCURVE",
"184 664 OFFCURVE",
"207 660 CURVE",
"81 40 LINE",
"56 36 OFFCURVE",
"22 28 OFFCURVE",
"-7 18 CURVE",
"-10 0 LINE"
);
},
{
closed = 1;
nodes = (
"299 -178 OFFCURVE",
"326 -151 OFFCURVE",
"334 -116 CURVE SMOOTH",
"341 -81 OFFCURVE",
"324 -54 OFFCURVE",
"287 -54 CURVE SMOOTH",
"252 -54 OFFCURVE",
"223 -81 OFFCURVE",
"216 -116 CURVE SMOOTH",
"208 -151 OFFCURVE",
"227 -178 OFFCURVE",
"262 -178 CURVE SMOOTH"
);
},
{
closed = 1;
nodes = (
"482 239 LINE",
"527 461 LINE",
"503 461 LINE",
"488 433 OFFCURVE",
"472 393 OFFCURVE",
"466 375 CURVE",
"221 375 LINE",
"211 325 LINE",
"456 325 LINE",
"454 308 OFFCURVE",
"454 269 OFFCURVE",
"458 239 CURVE"
);
},
{
closed = 1;
nodes = (
"377 816 OFFCURVE",
"449 876 OFFCURVE",
"478 912 CURVE",
"479 912 OFFCURVE",
"481 912 OFFCURVE",
"482 912 CURVE",
"498 876 OFFCURVE",
"544 816 OFFCURVE",
"578 783 CURVE",
"647 829 LINE",
"611 857 OFFCURVE",
"543 936 OFFCURVE",
"527 972 CURVE",
"518 972 OFFCURVE",
"467 972 OFFCURVE",
"458 972 CURVE",
"428 936 OFFCURVE",
"330 857 OFFCURVE",
"281 829 CURVE",
"332 783 LINE"
);
}
);
width = 634;
}
);
note = Ecircumflexdotbelow;
unicode = 1EC6;
},
{
glyphname = Ecircumflexgrave;
lastChange = "2015-10-27 13:18:37 +0000";
layers = (
{
layerId = "AD8C1534-DD1F-4D30-8D71-C3A36519B1B2";
name = "Bold Italic";
paths = (
{
closed = 1;
nodes = (
"540 0 LINE",
"593 175 LINE",
"561 175 LINE",
"540 154 OFFCURVE",
"496 85 OFFCURVE",
"486 49 CURVE",
"233 49 LINE",
"356 650 LINE",
"603 650 LINE",
"598 619 OFFCURVE",
"606 546 OFFCURVE",
"614 523 CURVE",
"647 523 LINE",
"683 700 LINE",
"132 700 LINE",
"129 682 LINE",
"155 672 OFFCURVE",
"184 664 OFFCURVE",
"207 660 CURVE",
"81 40 LINE",
"56 36 OFFCURVE",
"22 28 OFFCURVE",
"-7 18 CURVE",
"-10 0 LINE"
);
},
{
closed = 1;
nodes = (
"482 239 LINE",
"527 461 LINE",
"503 461 LINE",
"488 433 OFFCURVE",
"472 393 OFFCURVE",
"466 375 CURVE",
"221 375 LINE",
"211 325 LINE",
"456 325 LINE",
"454 308 OFFCURVE",
"454 269 OFFCURVE",
"458 239 CURVE"
);
},
{
closed = 1;
nodes = (
"375 953 LINE",
"322 1041 LINE SMOOTH",
"305 1066 OFFCURVE",
"285 1085 OFFCURVE",
"260 1085 CURVE SMOOTH",
"231 1085 OFFCURVE",
"213 1064 OFFCURVE",
"209 1045 CURVE SMOOTH",
"204 1021 OFFCURVE",
"220 996 OFFCURVE",
"254 976 CURVE SMOOTH",
"347 922 LINE"
);
},
{
closed = 1;
nodes = (
"378 816 OFFCURVE",
"449 876 OFFCURVE",
"479 912 CURVE",
"483 912 LINE",
"499 876 OFFCURVE",
"545 816 OFFCURVE",
"578 783 CURVE",
"647 829 LINE",
"611 857 OFFCURVE",
"544 936 OFFCURVE",
"528 972 CURVE",
"459 972 LINE",
"429 936 OFFCURVE",
"329 857 OFFCURVE",
"281 829 CURVE",
"332 783 LINE"
);
}
);
width = 634;
}
);
note = Ecircumflexgrave;
unicode = 1EC0;
},
{
glyphname = Ecircumflexhookabove;
lastChange = "2015-10-27 13:18:36 +0000";
layers = (
{
layerId = "AD8C1534-DD1F-4D30-8D71-C3A36519B1B2";
name = "Bold Italic";
paths = (
{
closed = 1;
nodes = (
"540 0 LINE",
"593 175 LINE",
"561 175 LINE",
"540 154 OFFCURVE",
"496 85 OFFCURVE",
"486 49 CURVE",
"233 49 LINE",
"356 650 LINE",
"603 650 LINE",
"598 619 OFFCURVE",
"606 546 OFFCURVE",
"614 523 CURVE",
"647 523 LINE",
"683 700 LINE",
"132 700 LINE",
"129 682 LINE",
"155 672 OFFCURVE",
"184 664 OFFCURVE",
"207 660 CURVE",
"81 40 LINE",
"56 36 OFFCURVE",
"22 28 OFFCURVE",
"-7 18 CURVE",
"-10 0 LINE"
);
},
{
closed = 1;
nodes = (
"482 239 LINE",
"527 461 LINE",
"503 461 LINE",
"488 433 OFFCURVE",
"472 393 OFFCURVE",
"466 375 CURVE",
"221 375 LINE",
"211 325 LINE",
"456 325 LINE",
"454 308 OFFCURVE",
"454 269 OFFCURVE",
"458 239 CURVE"
);
},
{
closed = 1;
nodes = (
"378 816 OFFCURVE",
"449 876 OFFCURVE",
"479 912 CURVE",
"483 912 LINE",
"499 876 OFFCURVE",
"545 816 OFFCURVE",
"578 783 CURVE",
"647 829 LINE",
"611 857 OFFCURVE",
"544 936 OFFCURVE",
"528 972 CURVE",
"459 972 LINE",
"429 936 OFFCURVE",
"329 857 OFFCURVE",
"281 829 CURVE",
"332 783 LINE"
);
},
{
closed = 1;
nodes = (
"653 933 LINE",
"671 981 LINE",
"717 985 OFFCURVE",
"756 1003 OFFCURVE",
"766 1056 CURVE SMOOTH",
"778 1114 OFFCURVE",
"732 1136 OFFCURVE",
"681 1136 CURVE SMOOTH",
"653 1136 OFFCURVE",
"625 1129 OFFCURVE",
"606 1121 CURVE",
"604 1085 LINE",
"622 1093 OFFCURVE",
"643 1097 OFFCURVE",
"659 1097 CURVE SMOOTH",
"693 1097 OFFCURVE",
"707 1079 OFFCURVE",
"702 1057 CURVE SMOOTH",
"695 1024 OFFCURVE",
"668 1012 OFFCURVE",
"644 1012 CURVE SMOOTH",
"612 1012 LINE",
"601 933 LINE"
);
}
);
width = 634;
}
);
note = Ecircumflexhookabove;
unicode = 1EC2;
},
{
glyphname = Ecircumflextilde;
lastChange = "2015-10-27 13:18:36 +0000";
layers = (
{
layerId = "AD8C1534-DD1F-4D30-8D71-C3A36519B1B2";
name = "Bold Italic";
paths = (
{
closed = 1;
nodes = (
"540 0 LINE",
"593 175 LINE",
"561 175 LINE",
"540 154 OFFCURVE",
"496 85 OFFCURVE",
"486 49 CURVE",
"233 49 LINE",
"356 650 LINE",
"603 650 LINE",
"598 619 OFFCURVE",
"606 546 OFFCURVE",
"614 523 CURVE",
"647 523 LINE",
"683 700 LINE",
"132 700 LINE",
"129 682 LINE",
"155 672 OFFCURVE",
"184 664 OFFCURVE",
"207 660 CURVE",
"81 40 LINE",
"56 36 OFFCURVE",
"22 28 OFFCURVE",
"-7 18 CURVE",
"-10 0 LINE"
);
},
{
closed = 1;
nodes = (
"482 239 LINE",
"527 461 LINE",
"503 461 LINE",
"488 433 OFFCURVE",
"472 393 OFFCURVE",
"466 375 CURVE",
"221 375 LINE",
"211 325 LINE",
"456 325 LINE",
"454 308 OFFCURVE",
"454 269 OFFCURVE",
"458 239 CURVE"
);
},
{
closed = 1;
nodes = (
"378 816 OFFCURVE",
"449 876 OFFCURVE",
"479 912 CURVE",
"483 912 LINE",
"499 876 OFFCURVE",
"545 816 OFFCURVE",
"578 783 CURVE",
"647 829 LINE",
"611 857 OFFCURVE",
"544 936 OFFCURVE",
"528 972 CURVE",
"459 972 LINE",
"429 936 OFFCURVE",
"329 857 OFFCURVE",
"281 829 CURVE",
"332 783 LINE"
);
},
{
closed = 1;
nodes = (
"375 1004 LINE",
"388 1036 OFFCURVE",
"416 1056 OFFCURVE",
"446 1056 CURVE SMOOTH",
"490 1056 OFFCURVE",
"517 1005 OFFCURVE",
"573 1005 CURVE SMOOTH",
"644 1005 OFFCURVE",
"689 1051 OFFCURVE",
"711 1121 CURVE",
"662 1121 LINE",
"642 1076 OFFCURVE",
"607 1067 OFFCURVE",
"585 1067 CURVE SMOOTH",
"546 1067 OFFCURVE",
"530 1118 OFFCURVE",
"463 1118 CURVE SMOOTH",
"398 1118 OFFCURVE",
"350 1080 OFFCURVE",
"325 1004 CURVE"
);
}
);
width = 634;
}
);
note = Ecircumflextilde;
unicode = 1EC4;
},
{
glyphname = Edieresis;
lastChange = "2015-10-27 13:18:36 +0000";
layers = (
{
layerId = "AD8C1534-DD1F-4D30-8D71-C3A36519B1B2";
name = "Bold Italic";
paths = (
{
closed = 1;
nodes = (
"540 0 LINE",
"593 175 LINE",
"561 175 LINE",
"540 154 OFFCURVE",
"496 85 OFFCURVE",
"486 49 CURVE",
"233 49 LINE",
"356 650 LINE",
"603 650 LINE",
"598 619 OFFCURVE",
"606 546 OFFCURVE",
"614 523 CURVE",
"647 523 LINE",
"683 700 LINE",
"132 700 LINE",
"129 682 LINE",
"155 672 OFFCURVE",
"184 664 OFFCURVE",
"207 660 CURVE",
"81 40 LINE",
"56 36 OFFCURVE",
"22 28 OFFCURVE",
"-7 18 CURVE",
"-10 0 LINE"
);
},
{
closed = 1;
nodes = (
"482 239 LINE",
"527 461 LINE",
"503 461 LINE",
"488 433 OFFCURVE",
"472 393 OFFCURVE",
"466 375 CURVE",
"221 375 LINE",
"211 325 LINE",
"456 325 LINE",
"454 308 OFFCURVE",
"454 269 OFFCURVE",
"458 239 CURVE"
);
},
{
closed = 1;
nodes = (
"404 785 OFFCURVE",
"433 812 OFFCURVE",
"441 847 CURVE SMOOTH",
"447 882 OFFCURVE",
"430 909 OFFCURVE",
"394 909 CURVE SMOOTH",
"359 909 OFFCURVE",
"330 882 OFFCURVE",
"324 847 CURVE SMOOTH",
"316 812 OFFCURVE",
"333 785 OFFCURVE",
"368 785 CURVE SMOOTH"
);
},
{
closed = 1;
nodes = (
"635 785 OFFCURVE",
"663 812 OFFCURVE",
"671 847 CURVE SMOOTH",
"678 882 OFFCURVE",
"660 909 OFFCURVE",
"624 909 CURVE SMOOTH",
"588 909 OFFCURVE",
"560 882 OFFCURVE",
"553 847 CURVE SMOOTH",
"545 812 OFFCURVE",
"562 785 OFFCURVE",
"598 785 CURVE SMOOTH"
);
}
);
width = 634;
}
);
note = Edieresis;
unicode = 00CB;
},
{
glyphname = Edotaccent;
lastChange = "2015-10-27 13:18:35 +0000";
layers = (
{
layerId = "AD8C1534-DD1F-4D30-8D71-C3A36519B1B2";
name = "Bold Italic";
paths = (
{
closed = 1;
nodes = (
"540 0 LINE",
"593 175 LINE",
"561 175 LINE",
"540 154 OFFCURVE",
"496 85 OFFCURVE",
"486 49 CURVE",
"233 49 LINE",
"356 650 LINE",
"603 650 LINE",
"598 619 OFFCURVE",
"606 546 OFFCURVE",
"614 523 CURVE",
"647 523 LINE",
"683 700 LINE",
"132 700 LINE",
"129 682 LINE",
"155 672 OFFCURVE",
"184 664 OFFCURVE",
"207 660 CURVE",
"81 40 LINE",
"56 36 OFFCURVE",
"22 28 OFFCURVE",
"-7 18 CURVE",
"-10 0 LINE"
);
},
{
closed = 1;
nodes = (
"482 239 LINE",
"527 461 LINE",
"503 461 LINE",
"488 433 OFFCURVE",
"472 393 OFFCURVE",
"466 375 CURVE",
"221 375 LINE",
"211 325 LINE",
"456 325 LINE",
"454 308 OFFCURVE",
"454 269 OFFCURVE",
"458 239 CURVE"
);
},
{
closed = 1;
nodes = (
"520 785 OFFCURVE",
"549 812 OFFCURVE",
"557 847 CURVE SMOOTH",
"564 882 OFFCURVE",
"546 909 OFFCURVE",
"511 909 CURVE SMOOTH",
"474 909 OFFCURVE",
"446 882 OFFCURVE",
"440 847 CURVE SMOOTH",
"432 812 OFFCURVE",
"448 785 OFFCURVE",
"485 785 CURVE SMOOTH"
);
}
);
width = 634;
}
);
note = Edotaccent;
unicode = 0116;
},
{
glyphname = Edotbelow;
lastChange = "2015-10-27 13:18:36 +0000";
layers = (
{
layerId = "AD8C1534-DD1F-4D30-8D71-C3A36519B1B2";
name = "Bold Italic";
paths = (
{
closed = 1;
nodes = (
"540 0 LINE",
"593 175 LINE",
"561 175 LINE",
"540 154 OFFCURVE",
"496 85 OFFCURVE",
"486 49 CURVE",
"233 49 LINE",
"356 650 LINE",
"603 650 LINE",
"598 619 OFFCURVE",
"606 546 OFFCURVE",
"614 523 CURVE",
"647 523 LINE",
"683 700 LINE",
"132 700 LINE",
"129 682 LINE",
"155 672 OFFCURVE",
"184 664 OFFCURVE",
"207 660 CURVE",
"81 40 LINE",
"56 36 OFFCURVE",
"22 28 OFFCURVE",
"-7 18 CURVE",
"-10 0 LINE"
);
},
{
closed = 1;
nodes = (
"281 -178 OFFCURVE",
"309 -151 OFFCURVE",
"317 -116 CURVE SMOOTH",
"324 -81 OFFCURVE",
"306 -54 OFFCURVE",
"270 -54 CURVE SMOOTH",
"234 -54 OFFCURVE",
"205 -81 OFFCURVE",
"199 -116 CURVE SMOOTH",
"191 -151 OFFCURVE",
"209 -178 OFFCURVE",
"245 -178 CURVE SMOOTH"
);
},
{
closed = 1;
nodes = (
"482 239 LINE",
"527 461 LINE",
"503 461 LINE",
"488 433 OFFCURVE",
"472 393 OFFCURVE",
"466 375 CURVE",
"221 375 LINE",
"211 325 LINE",
"456 325 LINE",
"454 308 OFFCURVE",
"454 269 OFFCURVE",
"458 239 CURVE"
);
}
);
width = 634;
}
);
note = Edotbelow;
unicode = 1EB8;
},
{
glyphname = Egrave;
lastChange = "2015-10-27 13:18:36 +0000";
layers = (
{
layerId = "AD8C1534-DD1F-4D30-8D71-C3A36519B1B2";
name = "Bold Italic";
paths = (
{
closed = 1;
nodes = (
"540 0 LINE",
"593 175 LINE",
"561 175 LINE",
"540 154 OFFCURVE",
"496 85 OFFCURVE",
"486 49 CURVE",
"233 49 LINE",
"356 650 LINE",
"603 650 LINE",
"598 619 OFFCURVE",
"606 546 OFFCURVE",
"614 523 CURVE",
"647 523 LINE",
"683 700 LINE",
"132 700 LINE",
"129 682 LINE",
"155 672 OFFCURVE",
"184 664 OFFCURVE",
"207 660 CURVE",
"81 40 LINE",
"56 36 OFFCURVE",
"22 28 OFFCURVE",
"-7 18 CURVE",
"-10 0 LINE"
);
},
{
closed = 1;
nodes = (
"482 239 LINE",
"527 461 LINE",
"503 461 LINE",
"488 433 OFFCURVE",
"472 393 OFFCURVE",
"466 375 CURVE",
"221 375 LINE",
"211 325 LINE",
"456 325 LINE",
"454 308 OFFCURVE",
"454 269 OFFCURVE",
"458 239 CURVE"
);
},
{
closed = 1;
nodes = (
"594 821 LINE",
"502 948 LINE",
"498 955 OFFCURVE",
"480 982 OFFCURVE",
"448 982 CURVE SMOOTH",
"415 982 OFFCURVE",
"396 959 OFFCURVE",
"393 940 CURVE SMOOTH",
"388 916 OFFCURVE",
"401 898 OFFCURVE",
"428 879 CURVE SMOOTH",
"564 786 LINE"
);
}
);
width = 634;
}
);
note = Egrave;
unicode = 00C8;
},
{
glyphname = Ehookabove;
lastChange = "2015-10-27 13:18:37 +0000";
layers = (
{
layerId = "AD8C1534-DD1F-4D30-8D71-C3A36519B1B2";
name = "Bold Italic";
paths = (
{
closed = 1;
nodes = (
"540 0 LINE",
"593 175 LINE",
"561 175 LINE",
"540 154 OFFCURVE",
"496 85 OFFCURVE",
"486 49 CURVE",
"233 49 LINE",
"356 650 LINE",
"603 650 LINE",
"598 619 OFFCURVE",
"606 546 OFFCURVE",
"614 523 CURVE",
"647 523 LINE",
"683 700 LINE",
"132 700 LINE",
"129 682 LINE",
"155 672 OFFCURVE",
"184 664 OFFCURVE",
"207 660 CURVE",
"81 40 LINE",
"56 36 OFFCURVE",
"22 28 OFFCURVE",
"-7 18 CURVE",
"-10 0 LINE"
);
},
{
closed = 1;
nodes = (
"482 239 LINE",
"527 461 LINE",
"503 461 LINE",
"488 433 OFFCURVE",
"472 393 OFFCURVE",
"466 375 CURVE",
"221 375 LINE",
"211 325 LINE",
"456 325 LINE",
"454 308 OFFCURVE",
"454 269 OFFCURVE",
"458 239 CURVE"
);
},
{
closed = 1;
nodes = (
"498 783 LINE",
"522 852 LINE",
"575 857 OFFCURVE",
"619 878 OFFCURVE",
"631 938 CURVE SMOOTH",
"644 1004 OFFCURVE",
"591 1029 OFFCURVE",
"534 1029 CURVE SMOOTH",
"502 1029 OFFCURVE",
"469 1021 OFFCURVE",
"447 1011 CURVE",
"446 972 LINE",
"468 984 OFFCURVE",
"492 988 OFFCURVE",
"509 988 CURVE SMOOTH",
"548 988 OFFCURVE",
"564 965 OFFCURVE",
"559 939 CURVE SMOOTH",
"551 901 OFFCURVE",
"519 887 OFFCURVE",
"492 887 CURVE SMOOTH",
"456 887 LINE",
"439 783 LINE"
);
}
);
width = 634;
}
);
note = Ehookabove;
unicode = 1EBA;
},
{
glyphname = Emacron;
lastChange = "2015-10-27 13:18:36 +0000";
layers = (
{
layerId = "AD8C1534-DD1F-4D30-8D71-C3A36519B1B2";
name = "Bold Italic";
paths = (
{
closed = 1;
nodes = (
"540 0 LINE",
"593 175 LINE",
"561 175 LINE",
"540 154 OFFCURVE",
"496 85 OFFCURVE",
"486 49 CURVE",
"233 49 LINE",
"356 650 LINE",
"603 650 LINE",
"598 619 OFFCURVE",
"606 546 OFFCURVE",
"614 523 CURVE",
"647 523 LINE",
"683 700 LINE",
"132 700 LINE",
"129 682 LINE",
"155 672 OFFCURVE",
"184 664 OFFCURVE",
"207 660 CURVE",
"81 40 LINE",
"56 36 OFFCURVE",
"22 28 OFFCURVE",
"-7 18 CURVE",
"-10 0 LINE"
);
},
{
closed = 1;
nodes = (
"482 239 LINE",
"527 461 LINE",
"503 461 LINE",
"488 433 OFFCURVE",
"472 393 OFFCURVE",
"466 375 CURVE",
"221 375 LINE",
"211 325 LINE",
"456 325 LINE",
"454 308 OFFCURVE",
"454 269 OFFCURVE",
"458 239 CURVE"
);
},
{
closed = 1;
nodes = (
"661 785 LINE",
"671 833 LINE",
"298 833 LINE",
"288 785 LINE"
);
}
);
width = 634;
}
);
note = Emacron;
unicode = 0112;
},
{
glyphname = Eogonek;
lastChange = "2015-10-27 13:18:36 +0000";
layers = (
{
layerId = "AD8C1534-DD1F-4D30-8D71-C3A36519B1B2";
name = "Bold Italic";
paths = (
{
closed = 1;
nodes = (
"540 0 LINE",
"593 175 LINE",
"561 175 LINE",
"540 154 OFFCURVE",
"496 85 OFFCURVE",
"486 49 CURVE",
"233 49 LINE",
"356 650 LINE",
"603 650 LINE",
"598 619 OFFCURVE",
"606 546 OFFCURVE",
"614 523 CURVE",
"647 523 LINE",
"683 700 LINE",
"132 700 LINE",
"129 682 LINE",
"155 672 OFFCURVE",
"184 664 OFFCURVE",
"207 660 CURVE",
"81 40 LINE",
"56 36 OFFCURVE",
"22 28 OFFCURVE",
"-7 18 CURVE",
"-10 0 LINE"
);
},
{
closed = 1;
nodes = (
"474 -206 OFFCURVE",
"516 -196 OFFCURVE",
"544 -180 CURVE",
"558 -117 LINE",
"530 -132 OFFCURVE",
"507 -138 OFFCURVE",
"489 -138 CURVE SMOOTH",
"454 -138 OFFCURVE",
"435 -117 OFFCURVE",
"441 -86 CURVE SMOOTH",
"447 -54 OFFCURVE",
"480 -18 OFFCURVE",
"508 0 CURVE",
"438 0 LINE",
"377 -18 OFFCURVE",
"333 -71 OFFCURVE",
"324 -116 CURVE SMOOTH",
"313 -170 OFFCURVE",
"352 -206 OFFCURVE",
"433 -206 CURVE SMOOTH"
);
},
{
closed = 1;
nodes = (
"482 239 LINE",
"527 461 LINE",
"503 461 LINE",
"488 433 OFFCURVE",
"472 393 OFFCURVE",
"466 375 CURVE",
"221 375 LINE",
"211 325 LINE",
"456 325 LINE",
"454 308 OFFCURVE",
"454 269 OFFCURVE",
"458 239 CURVE"
);
}
);
width = 634;
}
);
note = Eogonek;
unicode = 0118;
},
{
glyphname = Etilde;
lastChange = "2015-10-27 13:18:36 +0000";
layers = (
{
layerId = "AD8C1534-DD1F-4D30-8D71-C3A36519B1B2";
name = "Bold Italic";
paths = (
{
closed = 1;
nodes = (
"540 0 LINE",
"593 175 LINE",
"561 175 LINE",
"540 154 OFFCURVE",
"496 85 OFFCURVE",
"486 49 CURVE",
"233 49 LINE",
"356 650 LINE",
"603 650 LINE",
"598 619 OFFCURVE",
"606 546 OFFCURVE",
"614 523 CURVE",
"647 523 LINE",
"683 700 LINE",
"132 700 LINE",
"129 682 LINE",
"155 672 OFFCURVE",
"184 664 OFFCURVE",
"207 660 CURVE",
"81 40 LINE",
"56 36 OFFCURVE",
"22 28 OFFCURVE",
"-7 18 CURVE",
"-10 0 LINE"
);
},
{
closed = 1;
nodes = (
"482 239 LINE",
"527 461 LINE",
"503 461 LINE",
"488 433 OFFCURVE",
"472 393 OFFCURVE",
"466 375 CURVE",
"221 375 LINE",
"211 325 LINE",
"456 325 LINE",
"454 308 OFFCURVE",
"454 269 OFFCURVE",
"458 239 CURVE"
);
},
{
closed = 1;
nodes = (
"332 785 LINE",
"344 817 OFFCURVE",
"369 838 OFFCURVE",
"397 838 CURVE SMOOTH",
"432 838 OFFCURVE",
"482 785 OFFCURVE",
"539 785 CURVE SMOOTH",
"612 785 OFFCURVE",
"657 833 OFFCURVE",
"678 904 CURVE",
"616 904 LINE",
"596 858 OFFCURVE",
"570 850 OFFCURVE",
"546 850 CURVE SMOOTH",
"507 850 OFFCURVE",
"478 902 OFFCURVE",
"409 902 CURVE SMOOTH",
"344 902 OFFCURVE",
"294 862 OFFCURVE",
"268 785 CURVE"
);
}
);
width = 634;
}
);
note = Etilde;
unicode = 1EBC;
},
{
glyphname = F;
lastChange = "2015-10-27 13:18:36 +0000";
layers = (
{
layerId = "AD8C1534-DD1F-4D30-8D71-C3A36519B1B2";
name = "Bold Italic";
paths = (
{
closed = 1;
nodes = (
"307 0 LINE",
"310 17 LINE",
"284 28 OFFCURVE",
"254 35 OFFCURVE",
"231 39 CURVE",
"356 650 LINE",
"588 650 LINE",
"584 619 OFFCURVE",
"591 546 OFFCURVE",
"600 523 CURVE",
"633 523 LINE",
"668 700 LINE",
"132 700 LINE",
"129 682 LINE",
"155 672 OFFCURVE",
"185 664 OFFCURVE",
"207 660 CURVE",
"81 39 LINE",
"53 35 OFFCURVE",
"22 27 OFFCURVE",
"-7 18 CURVE",
"-10 0 LINE"
);
},
{
closed = 1;
nodes = (
"478 218 LINE",
"523 440 LINE",
"499 440 LINE",
"483 412 OFFCURVE",
"468 372 OFFCURVE",
"462 354 CURVE",
"168 354 LINE",
"157 304 LINE",
"451 304 LINE",
"450 287 OFFCURVE",
"449 248 OFFCURVE",
"454 218 CURVE"
);
}
);
width = 588;
}
);
note = F;
unicode = 0046;
},
{
glyphname = G;
lastChange = "2015-10-27 13:18:36 +0000";
layers = (
{
layerId = "AD8C1534-DD1F-4D30-8D71-C3A36519B1B2";
name = "Bold Italic";
paths = (
{
closed = 1;
nodes = (
"422 -10 OFFCURVE",
"531 10 OFFCURVE",
"588 48 CURVE",
"639 300 LINE",
"659 304 OFFCURVE",
"694 317 OFFCURVE",
"711 327 CURVE",
"714 341 LINE",
"426 341 LINE",
"422 322 LINE",
"444 314 OFFCURVE",
"470 308 OFFCURVE",
"494 302 CURVE",
"444 55 LINE",
"419 46 OFFCURVE",
"382 42 OFFCURVE",
"363 42 CURVE SMOOTH",
"228 42 OFFCURVE",
"181 160 OFFCURVE",
"220 350 CURVE SMOOTH",
"258 539 OFFCURVE",
"371 658 OFFCURVE",
"509 658 CURVE SMOOTH",
"554 658 OFFCURVE",
"614 646 OFFCURVE",
"643 618 CURVE",
"637 573 OFFCURVE",
"636 523 OFFCURVE",
"640 485 CURVE",
"676 485 LINE",
"719 631 LINE",
"679 680 OFFCURVE",
"593 710 OFFCURVE",
"482 710 CURVE SMOOTH",
"265 710 OFFCURVE",
"111 572 OFFCURVE",
"66 350 CURVE SMOOTH",
"20 127 OFFCURVE",
"108 -10 OFFCURVE",
"332 -10 CURVE SMOOTH"
);
}
);
width = 693;
}
);
leftKerningGroup = G;
note = G;
unicode = 0047;
},
{
glyphname = Gbreve;
lastChange = "2015-10-27 13:18:36 +0000";
layers = (
{
layerId = "AD8C1534-DD1F-4D30-8D71-C3A36519B1B2";
name = "Bold Italic";
paths = (
{
closed = 1;
nodes = (
"422 -10 OFFCURVE",
"531 10 OFFCURVE",
"588 48 CURVE",
"639 300 LINE",
"659 304 OFFCURVE",
"694 317 OFFCURVE",
"711 327 CURVE",
"714 341 LINE",
"426 341 LINE",
"422 322 LINE",
"444 314 OFFCURVE",
"470 308 OFFCURVE",
"494 302 CURVE",
"444 55 LINE",
"419 46 OFFCURVE",
"382 42 OFFCURVE",
"363 42 CURVE SMOOTH",
"228 42 OFFCURVE",
"181 160 OFFCURVE",
"220 350 CURVE SMOOTH",
"258 539 OFFCURVE",
"371 658 OFFCURVE",
"509 658 CURVE SMOOTH",
"554 658 OFFCURVE",
"614 646 OFFCURVE",
"643 618 CURVE",
"637 573 OFFCURVE",
"636 523 OFFCURVE",
"640 485 CURVE",
"676 485 LINE",
"719 631 LINE",
"679 680 OFFCURVE",
"593 710 OFFCURVE",
"482 710 CURVE SMOOTH",
"265 710 OFFCURVE",
"111 572 OFFCURVE",
"66 350 CURVE SMOOTH",
"20 127 OFFCURVE",
"108 -10 OFFCURVE",
"332 -10 CURVE SMOOTH"
);
},
{
closed = 1;
nodes = (
"593 782 OFFCURVE",
"667 825 OFFCURVE",
"700 916 CURVE",
"617 916 LINE",
"595 843 OFFCURVE",
"549 834 OFFCURVE",
"510 834 CURVE SMOOTH",
"470 834 OFFCURVE",
"427 843 OFFCURVE",
"435 916 CURVE",
"353 916 LINE",
"349 825 OFFCURVE",
"405 782 OFFCURVE",
"499 782 CURVE SMOOTH"
);
}
);
width = 693;
}
);
leftKerningGroup = G;
note = Gbreve;
unicode = 011E;
},
{
glyphname = Gcaron;
lastChange = "2015-10-27 13:18:36 +0000";
layers = (
{
layerId = "AD8C1534-DD1F-4D30-8D71-C3A36519B1B2";
name = "Bold Italic";
paths = (
{
closed = 1;
nodes = (
"422 -10 OFFCURVE",
"531 10 OFFCURVE",
"588 48 CURVE",
"639 300 LINE",
"659 304 OFFCURVE",
"694 317 OFFCURVE",
"711 327 CURVE",
"714 341 LINE",
"426 341 LINE",
"422 322 LINE",
"444 314 OFFCURVE",
"470 308 OFFCURVE",
"494 302 CURVE",
"444 55 LINE",
"419 46 OFFCURVE",
"382 42 OFFCURVE",
"363 42 CURVE SMOOTH",
"228 42 OFFCURVE",
"181 160 OFFCURVE",
"220 350 CURVE SMOOTH",
"258 539 OFFCURVE",
"371 658 OFFCURVE",
"509 658 CURVE SMOOTH",
"554 658 OFFCURVE",
"614 646 OFFCURVE",
"643 618 CURVE",
"637 573 OFFCURVE",
"636 523 OFFCURVE",
"640 485 CURVE",
"676 485 LINE",
"719 631 LINE",
"679 680 OFFCURVE",
"593 710 OFFCURVE",
"482 710 CURVE SMOOTH",
"265 710 OFFCURVE",
"111 572 OFFCURVE",
"66 350 CURVE SMOOTH",
"20 127 OFFCURVE",
"108 -10 OFFCURVE",
"332 -10 CURVE SMOOTH"
);
},
{
closed = 1;
nodes = (
"460 790 OFFCURVE",
"512 790 OFFCURVE",
"520 790 CURVE",
"550 826 OFFCURVE",
"650 904 OFFCURVE",
"698 933 CURVE",
"648 978 LINE",
"601 946 OFFCURVE",
"530 886 OFFCURVE",
"499 850 CURVE",
"498 850 OFFCURVE",
"496 850 OFFCURVE",
"495 850 CURVE",
"481 886 OFFCURVE",
"434 946 OFFCURVE",
"401 978 CURVE",
"332 933 LINE",
"369 904 OFFCURVE",
"435 826 OFFCURVE",
"451 790 CURVE"
);
}
);
width = 693;
}
);
leftKerningGroup = G;
note = Gcaron;
unicode = 01E6;
},
{
glyphname = Gcircumflex;
lastChange = "2015-10-27 13:18:36 +0000";
layers = (
{
layerId = "AD8C1534-DD1F-4D30-8D71-C3A36519B1B2";
name = "Bold Italic";
paths = (
{
closed = 1;
nodes = (
"422 -10 OFFCURVE",
"531 10 OFFCURVE",
"588 48 CURVE",
"639 300 LINE",
"659 304 OFFCURVE",
"694 317 OFFCURVE",
"711 327 CURVE",
"714 341 LINE",
"426 341 LINE",
"422 322 LINE",
"444 314 OFFCURVE",
"470 308 OFFCURVE",
"494 302 CURVE",
"444 55 LINE",
"419 46 OFFCURVE",
"382 42 OFFCURVE",
"363 42 CURVE SMOOTH",
"228 42 OFFCURVE",
"181 160 OFFCURVE",
"220 350 CURVE SMOOTH",
"258 539 OFFCURVE",
"371 658 OFFCURVE",
"509 658 CURVE SMOOTH",
"554 658 OFFCURVE",
"614 646 OFFCURVE",
"643 618 CURVE",
"637 573 OFFCURVE",
"636 523 OFFCURVE",
"640 485 CURVE",
"676 485 LINE",
"719 631 LINE",
"679 680 OFFCURVE",
"593 710 OFFCURVE",
"482 710 CURVE SMOOTH",
"265 710 OFFCURVE",
"111 572 OFFCURVE",
"66 350 CURVE SMOOTH",
"20 127 OFFCURVE",
"108 -10 OFFCURVE",
"332 -10 CURVE SMOOTH"
);
},
{
closed = 1;
nodes = (
"435 816 OFFCURVE",
"507 876 OFFCURVE",
"536 912 CURVE",
"537 912 OFFCURVE",
"539 912 OFFCURVE",
"540 912 CURVE",
"556 876 OFFCURVE",
"602 816 OFFCURVE",
"636 783 CURVE",
"705 829 LINE",
"668 857 OFFCURVE",
"601 936 OFFCURVE",
"585 972 CURVE",
"576 972 OFFCURVE",
"524 972 OFFCURVE",
"516 972 CURVE",
"486 936 OFFCURVE",
"388 857 OFFCURVE",
"339 829 CURVE",
"390 783 LINE"
);
}
);
width = 693;
}
);
leftKerningGroup = G;
note = Gcircumflex;
unicode = 011C;
},
{
glyphname = Gcommaaccent;
lastChange = "2015-10-27 13:18:36 +0000";
layers = (
{
layerId = "AD8C1534-DD1F-4D30-8D71-C3A36519B1B2";
name = "Bold Italic";
paths = (
{
closed = 1;
nodes = (
"422 -10 OFFCURVE",
"531 10 OFFCURVE",
"588 48 CURVE",
"639 300 LINE",
"659 304 OFFCURVE",
"694 317 OFFCURVE",
"711 327 CURVE",
"714 341 LINE",
"426 341 LINE",
"422 322 LINE",
"444 314 OFFCURVE",
"470 308 OFFCURVE",
"494 302 CURVE",
"444 55 LINE",
"419 46 OFFCURVE",
"382 42 OFFCURVE",
"363 42 CURVE SMOOTH",
"228 42 OFFCURVE",
"181 160 OFFCURVE",
"220 350 CURVE SMOOTH",
"258 539 OFFCURVE",
"371 658 OFFCURVE",
"509 658 CURVE SMOOTH",
"554 658 OFFCURVE",
"614 646 OFFCURVE",
"643 618 CURVE",
"637 573 OFFCURVE",
"636 523 OFFCURVE",
"640 485 CURVE",
"676 485 LINE",
"719 631 LINE",
"679 680 OFFCURVE",
"593 710 OFFCURVE",
"482 710 CURVE SMOOTH",
"265 710 OFFCURVE",
"111 572 OFFCURVE",
"66 350 CURVE SMOOTH",
"20 127 OFFCURVE",
"108 -10 OFFCURVE",
"332 -10 CURVE SMOOTH"
);
},
{
closed = 1;
nodes = (
"316 -319 OFFCURVE",
"374 -235 OFFCURVE",
"390 -159 CURVE SMOOTH",
"398 -117 OFFCURVE",
"382 -81 OFFCURVE",
"330 -81 CURVE SMOOTH",
"293 -81 OFFCURVE",
"254 -106 OFFCURVE",
"246 -148 CURVE SMOOTH",
"238 -188 OFFCURVE",
"262 -215 OFFCURVE",
"300 -217 CURVE",
"285 -261 OFFCURVE",
"242 -306 OFFCURVE",
"213 -332 CURVE",
"252 -368 LINE"
);
}
);
width = 693;
}
);
leftKerningGroup = G;
note = Gcommaaccent;
unicode = 0122;
},
{
glyphname = Gdotaccent;
lastChange = "2015-10-27 13:18:36 +0000";
layers = (
{
layerId = "AD8C1534-DD1F-4D30-8D71-C3A36519B1B2";
name = "Bold Italic";
paths = (
{
closed = 1;
nodes = (
"422 -10 OFFCURVE",
"531 10 OFFCURVE",
"588 48 CURVE",
"639 300 LINE",
"659 304 OFFCURVE",
"694 317 OFFCURVE",
"711 327 CURVE",
"714 341 LINE",
"426 341 LINE",
"422 322 LINE",
"444 314 OFFCURVE",
"470 308 OFFCURVE",
"494 302 CURVE",
"444 55 LINE",
"419 46 OFFCURVE",
"382 42 OFFCURVE",
"363 42 CURVE SMOOTH",
"228 42 OFFCURVE",
"181 160 OFFCURVE",
"220 350 CURVE SMOOTH",
"258 539 OFFCURVE",
"371 658 OFFCURVE",
"509 658 CURVE SMOOTH",
"554 658 OFFCURVE",
"614 646 OFFCURVE",
"643 618 CURVE",
"637 573 OFFCURVE",
"636 523 OFFCURVE",
"640 485 CURVE",
"676 485 LINE",
"719 631 LINE",
"679 680 OFFCURVE",
"593 710 OFFCURVE",
"482 710 CURVE SMOOTH",
"265 710 OFFCURVE",
"111 572 OFFCURVE",
"66 350 CURVE SMOOTH",
"20 127 OFFCURVE",
"108 -10 OFFCURVE",
"332 -10 CURVE SMOOTH"
);
},
{
closed = 1;
nodes = (
"550 785 OFFCURVE",
"579 812 OFFCURVE",
"587 847 CURVE SMOOTH",
"593 882 OFFCURVE",
"576 909 OFFCURVE",
"540 909 CURVE SMOOTH",
"504 909 OFFCURVE",
"476 882 OFFCURVE",
"469 847 CURVE SMOOTH",
"462 812 OFFCURVE",
"478 785 OFFCURVE",
"515 785 CURVE SMOOTH"
);
}
);
width = 693;
}
);
leftKerningGroup = G;
note = Gdotaccent;
unicode = 0120;
},
{
glyphname = Gmacron;
lastChange = "2015-10-27 13:18:36 +0000";
layers = (
{
layerId = "AD8C1534-DD1F-4D30-8D71-C3A36519B1B2";
name = "Bold Italic";
paths = (
{
closed = 1;
nodes = (
"422 -10 OFFCURVE",
"531 10 OFFCURVE",
"588 48 CURVE",
"639 300 LINE",
"659 304 OFFCURVE",
"694 317 OFFCURVE",
"711 327 CURVE",
"714 341 LINE",
"426 341 LINE",
"422 322 LINE",
"444 314 OFFCURVE",
"470 308 OFFCURVE",
"494 302 CURVE",
"444 55 LINE",
"419 46 OFFCURVE",
"382 42 OFFCURVE",
"363 42 CURVE SMOOTH",
"228 42 OFFCURVE",
"181 160 OFFCURVE",
"220 350 CURVE SMOOTH",
"258 539 OFFCURVE",
"371 658 OFFCURVE",
"509 658 CURVE SMOOTH",
"554 658 OFFCURVE",
"614 646 OFFCURVE",
"643 618 CURVE",
"637 573 OFFCURVE",
"636 523 OFFCURVE",
"640 485 CURVE",
"676 485 LINE",
"719 631 LINE",
"679 680 OFFCURVE",
"593 710 OFFCURVE",
"482 710 CURVE SMOOTH",
"265 710 OFFCURVE",
"111 572 OFFCURVE",
"66 350 CURVE SMOOTH",
"20 127 OFFCURVE",
"108 -10 OFFCURVE",
"332 -10 CURVE SMOOTH"
);
},
{
closed = 1;
nodes = (
"664 785 LINE",
"674 833 LINE",
"300 833 LINE",
"291 785 LINE"
);
}
);
width = 693;
}
);
leftKerningGroup = G;
note = Gmacron;
unicode = 1E20;
},
{
glyphname = H;
lastChange = "2015-10-27 13:18:36 +0000";
layers = (
{
layerId = "AD8C1534-DD1F-4D30-8D71-C3A36519B1B2";
name = "Bold Italic";
paths = (
{
closed = 1;
nodes = (
"726 0 LINE",
"729 17 LINE",
"703 28 OFFCURVE",
"681 34 OFFCURVE",
"658 39 CURVE",
"783 658 LINE",
"803 661 OFFCURVE",
"834 671 OFFCURVE",
"864 680 CURVE",
"868 700 LINE",
"567 700 LINE",
"564 682 LINE",
"589 673 OFFCURVE",
"612 666 OFFCURVE",
"634 661 CURVE",
"507 40 LINE",
"492 38 OFFCURVE",
"485 37 OFFCURVE",
"428 15 CURVE",
"425 0 LINE"
);
},
{
closed = 1;
nodes = (
"291 0 LINE",
"294 17 LINE",
"269 26 OFFCURVE",
"246 33 OFFCURVE",
"225 38 CURVE",
"351 659 LINE",
"365 662 OFFCURVE",
"372 662 OFFCURVE",
"430 684 CURVE",
"433 700 LINE",
"132 700 LINE",
"129 682 LINE",
"155 672 OFFCURVE",
"178 665 OFFCURVE",
"201 660 CURVE",
"74 41 LINE",
"56 38 OFFCURVE",
"22 28 OFFCURVE",
"-6 19 CURVE",
"-10 0 LINE"
);
},
{
closed = 1;
nodes = (
"639 330 LINE",
"649 380 LINE",
"222 380 LINE",
"212 330 LINE"
);
}
);
width = 794;
}
);
note = H;
unicode = 0048;
},
{
glyphname = Hbar;
lastChange = "2015-10-27 13:18:36 +0000";
layers = (
{
layerId = "AD8C1534-DD1F-4D30-8D71-C3A36519B1B2";
name = "Bold Italic";
paths = (
{
closed = 1;
nodes = (
"726 0 LINE",
"729 17 LINE",
"703 28 OFFCURVE",
"681 34 OFFCURVE",
"658 39 CURVE",
"783 658 LINE",
"803 661 OFFCURVE",
"834 671 OFFCURVE",
"864 680 CURVE",
"868 700 LINE",
"567 700 LINE",
"564 682 LINE",
"589 673 OFFCURVE",
"612 666 OFFCURVE",
"634 661 CURVE",
"507 40 LINE",
"492 38 OFFCURVE",
"485 37 OFFCURVE",
"428 15 CURVE",
"425 0 LINE"
);
},
{
closed = 1;
nodes = (
"291 0 LINE",
"294 17 LINE",
"269 26 OFFCURVE",
"246 33 OFFCURVE",
"225 38 CURVE",
"351 659 LINE",
"365 662 OFFCURVE",
"372 662 OFFCURVE",
"430 684 CURVE",
"433 700 LINE",
"132 700 LINE",
"129 682 LINE",
"155 672 OFFCURVE",
"178 665 OFFCURVE",
"201 660 CURVE",
"74 41 LINE",
"56 38 OFFCURVE",
"22 28 OFFCURVE",
"-6 19 CURVE",
"-10 0 LINE"
);
},
{
closed = 1;
nodes = (
"639 330 LINE",
"649 380 LINE",
"222 380 LINE",
"212 330 LINE"
);
},
{
closed = 1;
nodes = (
"808 494 LINE",
"818 543 LINE",
"119 543 LINE",
"109 494 LINE"
);
}
);
width = 794;
}
);
note = Hbar;
unicode = 0126;
},
{
glyphname = Hbrevebelow;
lastChange = "2015-10-27 13:18:37 +0000";
layers = (
{
layerId = "AD8C1534-DD1F-4D30-8D71-C3A36519B1B2";
name = "Bold Italic";
paths = (
{
closed = 1;
nodes = (
"726 0 LINE",
"729 17 LINE",
"703 28 OFFCURVE",
"681 34 OFFCURVE",
"658 39 CURVE",
"783 658 LINE",
"803 661 OFFCURVE",
"834 671 OFFCURVE",
"864 680 CURVE",
"868 700 LINE",
"567 700 LINE",
"564 682 LINE",
"589 673 OFFCURVE",
"612 666 OFFCURVE",
"634 661 CURVE",
"507 40 LINE",
"492 38 OFFCURVE",
"485 37 OFFCURVE",
"428 15 CURVE",
"425 0 LINE"
);
},
{
closed = 1;
nodes = (
"414 -184 OFFCURVE",
"488 -142 OFFCURVE",
"521 -50 CURVE",
"439 -50 LINE",
"416 -123 OFFCURVE",
"370 -133 OFFCURVE",
"331 -133 CURVE SMOOTH",
"292 -133 OFFCURVE",
"249 -123 OFFCURVE",
"257 -50 CURVE",
"175 -50 LINE",
"170 -142 OFFCURVE",
"227 -184 OFFCURVE",
"321 -184 CURVE SMOOTH"
);
},
{
closed = 1;
nodes = (
"291 0 LINE",
"294 17 LINE",
"269 26 OFFCURVE",
"246 33 OFFCURVE",
"225 38 CURVE",
"351 659 LINE",
"365 662 OFFCURVE",
"372 662 OFFCURVE",
"430 684 CURVE",
"433 700 LINE",
"132 700 LINE",
"129 682 LINE",
"155 672 OFFCURVE",
"178 665 OFFCURVE",
"201 660 CURVE",
"74 41 LINE",
"56 38 OFFCURVE",
"22 28 OFFCURVE",
"-6 19 CURVE",
"-10 0 LINE"
);
},
{
closed = 1;
nodes = (
"639 330 LINE",
"649 380 LINE",
"222 380 LINE",
"212 330 LINE"
);
}
);
width = 794;
}
);
note = Hbrevebelow;
unicode = 1E2A;
},
{
glyphname = Hcircumflex;
lastChange = "2015-10-27 13:18:36 +0000";
layers = (
{
layerId = "AD8C1534-DD1F-4D30-8D71-C3A36519B1B2";
name = "Bold Italic";
paths = (
{
closed = 1;
nodes = (
"726 0 LINE",
"729 17 LINE",
"703 28 OFFCURVE",
"681 34 OFFCURVE",
"658 39 CURVE",
"783 658 LINE",
"803 661 OFFCURVE",
"834 671 OFFCURVE",
"864 680 CURVE",
"868 700 LINE",
"567 700 LINE",
"564 682 LINE",
"589 673 OFFCURVE",
"612 666 OFFCURVE",
"634 661 CURVE",
"507 40 LINE",
"492 38 OFFCURVE",
"485 37 OFFCURVE",
"428 15 CURVE",
"425 0 LINE"
);
},
{
closed = 1;
nodes = (
"291 0 LINE",
"294 17 LINE",
"269 26 OFFCURVE",
"246 33 OFFCURVE",
"225 38 CURVE",
"351 659 LINE",
"365 662 OFFCURVE",
"372 662 OFFCURVE",
"430 684 CURVE",
"433 700 LINE",
"132 700 LINE",
"129 682 LINE",
"155 672 OFFCURVE",
"178 665 OFFCURVE",
"201 660 CURVE",
"74 41 LINE",
"56 38 OFFCURVE",
"22 28 OFFCURVE",
"-6 19 CURVE",
"-10 0 LINE"
);
},
{
closed = 1;
nodes = (
"639 330 LINE",
"649 380 LINE",
"222 380 LINE",
"212 330 LINE"
);
},
{
closed = 1;
nodes = (
"440 816 OFFCURVE",
"512 876 OFFCURVE",
"540 912 CURVE",
"541 912 OFFCURVE",
"543 912 OFFCURVE",
"544 912 CURVE",
"561 876 OFFCURVE",
"607 816 OFFCURVE",
"640 783 CURVE",
"709 829 LINE",
"673 857 OFFCURVE",
"606 936 OFFCURVE",
"589 972 CURVE",
"581 972 OFFCURVE",
"529 972 OFFCURVE",
"520 972 CURVE",
"491 936 OFFCURVE",
"393 857 OFFCURVE",
"344 829 CURVE",
"395 783 LINE"
);
}
);
width = 794;
}
);
note = Hcircumflex;
unicode = 0124;
},
{
glyphname = Hdotbelow;
lastChange = "2015-10-27 13:18:36 +0000";
layers = (
{
layerId = "AD8C1534-DD1F-4D30-8D71-C3A36519B1B2";
name = "Bold Italic";
paths = (
{
closed = 1;
nodes = (
"726 0 LINE",
"729 17 LINE",
"703 28 OFFCURVE",
"681 34 OFFCURVE",
"658 39 CURVE",
"783 658 LINE",
"803 661 OFFCURVE",
"834 671 OFFCURVE",
"864 680 CURVE",
"868 700 LINE",
"567 700 LINE",
"564 682 LINE",
"589 673 OFFCURVE",
"612 666 OFFCURVE",
"634 661 CURVE",
"507 40 LINE",
"492 38 OFFCURVE",
"485 37 OFFCURVE",
"428 15 CURVE",
"425 0 LINE"
);
},
{
closed = 1;
nodes = (
"357 -178 OFFCURVE",
"385 -151 OFFCURVE",
"393 -116 CURVE SMOOTH",
"399 -81 OFFCURVE",
"382 -54 OFFCURVE",
"346 -54 CURVE SMOOTH",
"310 -54 OFFCURVE",
"281 -81 OFFCURVE",
"275 -116 CURVE SMOOTH",
"267 -151 OFFCURVE",
"285 -178 OFFCURVE",
"321 -178 CURVE SMOOTH"
);
},
{
closed = 1;
nodes = (
"291 0 LINE",
"294 17 LINE",
"269 26 OFFCURVE",
"246 33 OFFCURVE",
"225 38 CURVE",
"351 659 LINE",
"365 662 OFFCURVE",
"372 662 OFFCURVE",
"430 684 CURVE",
"433 700 LINE",
"132 700 LINE",
"129 682 LINE",
"155 672 OFFCURVE",
"178 665 OFFCURVE",
"201 660 CURVE",
"74 41 LINE",
"56 38 OFFCURVE",
"22 28 OFFCURVE",
"-6 19 CURVE",
"-10 0 LINE"
);
},
{
closed = 1;
nodes = (
"639 330 LINE",
"649 380 LINE",
"222 380 LINE",
"212 330 LINE"
);
}
);
width = 794;
}
);
note = Hdotbelow;
unicode = 1E24;
},
{
glyphname = I;
lastChange = "2015-10-27 13:18:36 +0000";
layers = (
{
layerId = "AD8C1534-DD1F-4D30-8D71-C3A36519B1B2";
name = "Bold Italic";
paths = (
{
closed = 1;
nodes = (
"297 0 LINE",
"300 18 LINE",
"276 26 OFFCURVE",
"249 35 OFFCURVE",
"227 39 CURVE",
"353 659 LINE",
"381 666 OFFCURVE",
"410 672 OFFCURVE",
"435 680 CURVE",
"439 700 LINE",
"133 700 LINE",
"130 681 LINE",
"155 673 OFFCURVE",
"181 664 OFFCURVE",
"203 660 CURVE",
"76 40 LINE",
"49 34 OFFCURVE",
"19 27 OFFCURVE",
"-5 20 CURVE",
"-9 0 LINE"
);
}
);
width = 365;
}
);
note = I;
unicode = 0049;
},
{
glyphname = IJ;
lastChange = "2015-10-27 13:18:36 +0000";
layers = (
{
layerId = "AD8C1534-DD1F-4D30-8D71-C3A36519B1B2";
name = "Bold Italic";
paths = (
{
closed = 1;
nodes = (
"615 -10 OFFCURVE",
"723 40 OFFCURVE",
"748 163 CURVE SMOOTH",
"849 658 LINE",
"867 661 OFFCURVE",
"900 671 OFFCURVE",
"928 680 CURVE",
"932 700 LINE",
"631 700 LINE",
"627 680 LINE",
"649 671 OFFCURVE",
"668 664 OFFCURVE",
"699 659 CURVE",
"596 156 LINE SMOOTH",
"580 78 OFFCURVE",
"529 50 OFFCURVE",
"477 50 CURVE SMOOTH",
"435 50 OFFCURVE",
"397 67 OFFCURVE",
"375 86 CURVE",
"346 48 LINE",
"380 10 OFFCURVE",
"443 -10 OFFCURVE",
"509 -10 CURVE SMOOTH"
);
},
{
closed = 1;
nodes = (
"297 0 LINE",
"300 18 LINE",
"276 26 OFFCURVE",
"249 35 OFFCURVE",
"227 39 CURVE",
"353 659 LINE",
"381 666 OFFCURVE",
"410 672 OFFCURVE",
"435 680 CURVE",
"439 700 LINE",
"133 700 LINE",
"130 681 LINE",
"155 673 OFFCURVE",
"181 664 OFFCURVE",
"203 660 CURVE",
"76 40 LINE",
"49 34 OFFCURVE",
"19 27 OFFCURVE",
"-5 20 CURVE",
"-9 0 LINE"
);
}
);
width = 858;
}
);
note = IJ;
rightKerningGroup = J;
unicode = 0132;
},
{
glyphname = Iacute;
lastChange = "2015-10-27 13:18:36 +0000";
layers = (
{
layerId = "AD8C1534-DD1F-4D30-8D71-C3A36519B1B2";
name = "Bold Italic";
paths = (
{
closed = 1;
nodes = (
"297 0 LINE",
"300 18 LINE",
"276 26 OFFCURVE",
"249 35 OFFCURVE",
"227 39 CURVE",
"353 659 LINE",
"381 666 OFFCURVE",
"410 672 OFFCURVE",
"435 680 CURVE",
"439 700 LINE",
"133 700 LINE",
"130 681 LINE",
"155 673 OFFCURVE",
"181 664 OFFCURVE",
"203 660 CURVE",
"76 40 LINE",
"49 34 OFFCURVE",
"19 27 OFFCURVE",
"-5 20 CURVE",
"-9 0 LINE"
);
},
{
closed = 1;
nodes = (
"386 879 LINE SMOOTH",
"420 898 OFFCURVE",
"441 916 OFFCURVE",
"445 940 CURVE SMOOTH",
"449 959 OFFCURVE",
"440 982 OFFCURVE",
"408 982 CURVE SMOOTH",
"375 982 OFFCURVE",
"347 954 OFFCURVE",
"340 947 CURVE",
"197 821 LINE",
"214 786 LINE"
);
}
);
width = 365;
}
);
note = Iacute;
unicode = 00CD;
},
{
glyphname = Ibreve;
lastChange = "2015-10-27 13:18:36 +0000";
layers = (
{
layerId = "AD8C1534-DD1F-4D30-8D71-C3A36519B1B2";
name = "Bold Italic";
paths = (
{
closed = 1;
nodes = (
"297 0 LINE",
"300 18 LINE",
"276 26 OFFCURVE",
"249 35 OFFCURVE",
"227 39 CURVE",
"353 659 LINE",
"381 666 OFFCURVE",
"410 672 OFFCURVE",
"435 680 CURVE",
"439 700 LINE",
"133 700 LINE",
"130 681 LINE",
"155 673 OFFCURVE",
"181 664 OFFCURVE",
"203 660 CURVE",
"76 40 LINE",
"49 34 OFFCURVE",
"19 27 OFFCURVE",
"-5 20 CURVE",
"-9 0 LINE"
);
},
{
closed = 1;
nodes = (
"396 782 OFFCURVE",
"470 825 OFFCURVE",
"503 916 CURVE",
"420 916 LINE",
"398 843 OFFCURVE",
"352 834 OFFCURVE",
"313 834 CURVE SMOOTH",
"274 834 OFFCURVE",
"230 843 OFFCURVE",
"238 916 CURVE",
"156 916 LINE",
"153 825 OFFCURVE",
"208 782 OFFCURVE",
"302 782 CURVE SMOOTH"
);
}
);
width = 365;
}
);
note = Ibreve;
unicode = 012C;
},
{
glyphname = Icaron;
lastChange = "2015-10-27 13:18:36 +0000";
layers = (
{
layerId = "AD8C1534-DD1F-4D30-8D71-C3A36519B1B2";
name = "Bold Italic";
paths = (
{
closed = 1;
nodes = (
"297 0 LINE",
"300 18 LINE",
"276 26 OFFCURVE",
"249 35 OFFCURVE",
"227 39 CURVE",
"353 659 LINE",
"381 666 OFFCURVE",
"410 672 OFFCURVE",
"435 680 CURVE",
"439 700 LINE",
"133 700 LINE",
"130 681 LINE",
"155 673 OFFCURVE",
"181 664 OFFCURVE",
"203 660 CURVE",
"76 40 LINE",
"49 34 OFFCURVE",
"19 27 OFFCURVE",
"-5 20 CURVE",
"-9 0 LINE"
);
},
{
closed = 1;
nodes = (
"276 786 OFFCURVE",
"328 786 OFFCURVE",
"337 786 CURVE",
"367 822 OFFCURVE",
"467 900 OFFCURVE",
"515 929 CURVE",
"465 974 LINE",
"418 942 OFFCURVE",
"347 882 OFFCURVE",
"316 846 CURVE",
"315 846 OFFCURVE",
"313 846 OFFCURVE",
"312 846 CURVE",
"298 882 OFFCURVE",
"251 942 OFFCURVE",
"218 974 CURVE",
"149 929 LINE",
"185 900 OFFCURVE",
"252 822 OFFCURVE",
"268 786 CURVE"
);
}
);
width = 365;
}
);
note = Icaron;
unicode = 01CF;
},
{
glyphname = Icircumflex;
lastChange = "2015-10-27 13:18:36 +0000";
layers = (
{
layerId = "AD8C1534-DD1F-4D30-8D71-C3A36519B1B2";
name = "Bold Italic";
paths = (
{
closed = 1;
nodes = (
"297 0 LINE",
"300 18 LINE",
"276 26 OFFCURVE",
"249 35 OFFCURVE",
"227 39 CURVE",
"353 659 LINE",
"381 666 OFFCURVE",
"410 672 OFFCURVE",
"435 680 CURVE",
"439 700 LINE",
"133 700 LINE",
"130 681 LINE",
"155 673 OFFCURVE",
"181 664 OFFCURVE",
"203 660 CURVE",
"76 40 LINE",
"49 34 OFFCURVE",
"19 27 OFFCURVE",
"-5 20 CURVE",
"-9 0 LINE"
);
},
{
closed = 1;
nodes = (
"225 816 OFFCURVE",
"297 876 OFFCURVE",
"325 912 CURVE",
"326 912 OFFCURVE",
"328 912 OFFCURVE",
"329 912 CURVE",
"346 876 OFFCURVE",
"392 816 OFFCURVE",
"425 783 CURVE",
"494 829 LINE",
"458 857 OFFCURVE",
"391 936 OFFCURVE",
"374 972 CURVE",
"366 972 OFFCURVE",
"314 972 OFFCURVE",
"305 972 CURVE",
"276 936 OFFCURVE",
"178 857 OFFCURVE",
"129 829 CURVE",
"180 783 LINE"
);
}
);
width = 365;
}
);
note = Icircumflex;
unicode = 00CE;
},
{
glyphname = Idieresis;
lastChange = "2015-10-27 13:18:36 +0000";
layers = (
{
layerId = "AD8C1534-DD1F-4D30-8D71-C3A36519B1B2";
name = "Bold Italic";
paths = (
{
closed = 1;
nodes = (
"297 0 LINE",
"300 18 LINE",
"276 26 OFFCURVE",
"249 35 OFFCURVE",
"227 39 CURVE",
"353 659 LINE",
"381 666 OFFCURVE",
"410 672 OFFCURVE",
"435 680 CURVE",
"439 700 LINE",
"133 700 LINE",
"130 681 LINE",
"155 673 OFFCURVE",
"181 664 OFFCURVE",
"203 660 CURVE",
"76 40 LINE",
"49 34 OFFCURVE",
"19 27 OFFCURVE",
"-5 20 CURVE",
"-9 0 LINE"
);
},
{
closed = 1;
nodes = (
"223 785 OFFCURVE",
"252 812 OFFCURVE",
"259 847 CURVE SMOOTH",
"266 882 OFFCURVE",
"249 909 OFFCURVE",
"212 909 CURVE SMOOTH",
"178 909 OFFCURVE",
"149 882 OFFCURVE",
"142 847 CURVE SMOOTH",
"134 812 OFFCURVE",
"152 785 OFFCURVE",
"186 785 CURVE SMOOTH"
);
},
{
closed = 1;
nodes = (
"453 785 OFFCURVE",
"482 812 OFFCURVE",
"490 847 CURVE SMOOTH",
"496 882 OFFCURVE",
"479 909 OFFCURVE",
"443 909 CURVE SMOOTH",
"406 909 OFFCURVE",
"378 882 OFFCURVE",
"372 847 CURVE SMOOTH",
"364 812 OFFCURVE",
"380 785 OFFCURVE",
"417 785 CURVE SMOOTH"
);
}
);
width = 365;
}
);
note = Idieresis;
unicode = 00CF;
},
{
glyphname = Idotaccent;
lastChange = "2015-10-27 13:18:36 +0000";
layers = (
{
layerId = "AD8C1534-DD1F-4D30-8D71-C3A36519B1B2";
name = "Bold Italic";
paths = (
{
closed = 1;
nodes = (
"297 0 LINE",
"300 18 LINE",
"276 26 OFFCURVE",
"249 35 OFFCURVE",
"227 39 CURVE",
"353 659 LINE",
"381 666 OFFCURVE",
"410 672 OFFCURVE",
"435 680 CURVE",
"439 700 LINE",
"133 700 LINE",
"130 681 LINE",
"155 673 OFFCURVE",
"181 664 OFFCURVE",
"203 660 CURVE",
"76 40 LINE",
"49 34 OFFCURVE",
"19 27 OFFCURVE",
"-5 20 CURVE",
"-9 0 LINE"
);
},
{
closed = 1;
nodes = (
"336 785 OFFCURVE",
"365 812 OFFCURVE",
"372 847 CURVE SMOOTH",
"379 882 OFFCURVE",
"362 909 OFFCURVE",
"326 909 CURVE SMOOTH",
"290 909 OFFCURVE",
"262 882 OFFCURVE",
"255 847 CURVE SMOOTH",
"248 812 OFFCURVE",
"264 785 OFFCURVE",
"300 785 CURVE SMOOTH"
);
}
);
width = 365;
}
);
note = Idotaccent;
unicode = 0130;
},
{
glyphname = Idotbelow;
lastChange = "2015-10-27 13:18:36 +0000";
layers = (
{
layerId = "AD8C1534-DD1F-4D30-8D71-C3A36519B1B2";
name = "Bold Italic";
paths = (
{
closed = 1;
nodes = (
"297 0 LINE",
"300 18 LINE",
"276 26 OFFCURVE",
"249 35 OFFCURVE",
"227 39 CURVE",
"353 659 LINE",
"381 666 OFFCURVE",
"410 672 OFFCURVE",
"435 680 CURVE",
"439 700 LINE",
"133 700 LINE",
"130 681 LINE",
"155 673 OFFCURVE",
"181 664 OFFCURVE",
"203 660 CURVE",
"76 40 LINE",
"49 34 OFFCURVE",
"19 27 OFFCURVE",
"-5 20 CURVE",
"-9 0 LINE"
);
},
{
closed = 1;
nodes = (
"144 -178 OFFCURVE",
"172 -151 OFFCURVE",
"180 -116 CURVE SMOOTH",
"186 -81 OFFCURVE",
"169 -54 OFFCURVE",
"132 -54 CURVE SMOOTH",
"97 -54 OFFCURVE",
"68 -81 OFFCURVE",
"61 -116 CURVE SMOOTH",
"54 -151 OFFCURVE",
"72 -178 OFFCURVE",
"108 -178 CURVE SMOOTH"
);
}
);
width = 365;
}
);
note = Idotbelow;
unicode = 1ECA;
},
{
glyphname = Igrave;
lastChange = "2015-10-27 13:18:37 +0000";
layers = (
{
layerId = "AD8C1534-DD1F-4D30-8D71-C3A36519B1B2";
name = "Bold Italic";
paths = (
{
closed = 1;
nodes = (
"297 0 LINE",
"300 18 LINE",
"276 26 OFFCURVE",
"249 35 OFFCURVE",
"227 39 CURVE",
"353 659 LINE",
"381 666 OFFCURVE",
"410 672 OFFCURVE",
"435 680 CURVE",
"439 700 LINE",
"133 700 LINE",
"130 681 LINE",
"155 673 OFFCURVE",
"181 664 OFFCURVE",
"203 660 CURVE",
"76 40 LINE",
"49 34 OFFCURVE",
"19 27 OFFCURVE",
"-5 20 CURVE",
"-9 0 LINE"
);
},
{
closed = 1;
nodes = (
"422 821 LINE",
"330 948 LINE",
"326 955 OFFCURVE",
"308 982 OFFCURVE",
"276 982 CURVE SMOOTH",
"243 982 OFFCURVE",
"225 959 OFFCURVE",
"221 940 CURVE SMOOTH",
"216 916 OFFCURVE",
"229 898 OFFCURVE",
"256 879 CURVE SMOOTH",
"392 786 LINE"
);
}
);
width = 365;
}
);
note = Igrave;
unicode = 00CC;
},
{
glyphname = Ihookabove;
lastChange = "2015-10-27 13:18:36 +0000";
layers = (
{
layerId = "AD8C1534-DD1F-4D30-8D71-C3A36519B1B2";
name = "Bold Italic";
paths = (
{
closed = 1;
nodes = (
"297 0 LINE",
"300 18 LINE",
"276 26 OFFCURVE",
"249 35 OFFCURVE",
"227 39 CURVE",
"353 659 LINE",
"381 666 OFFCURVE",
"410 672 OFFCURVE",
"435 680 CURVE",
"439 700 LINE",
"133 700 LINE",
"130 681 LINE",
"155 673 OFFCURVE",
"181 664 OFFCURVE",
"203 660 CURVE",
"76 40 LINE",
"49 34 OFFCURVE",
"19 27 OFFCURVE",
"-5 20 CURVE",
"-9 0 LINE"
);
},
{
closed = 1;
nodes = (
"338 783 LINE",
"362 852 LINE",
"415 857 OFFCURVE",
"459 878 OFFCURVE",
"470 938 CURVE SMOOTH",
"484 1004 OFFCURVE",
"431 1029 OFFCURVE",
"373 1029 CURVE SMOOTH",
"342 1029 OFFCURVE",
"309 1021 OFFCURVE",
"287 1011 CURVE",
"286 972 LINE",
"308 984 OFFCURVE",
"331 988 OFFCURVE",
"348 988 CURVE SMOOTH",
"388 988 OFFCURVE",
"403 965 OFFCURVE",
"398 939 CURVE SMOOTH",
"391 901 OFFCURVE",
"359 887 OFFCURVE",
"332 887 CURVE SMOOTH",
"296 887 LINE",
"278 783 LINE"
);
}
);
width = 365;
}
);
note = Ihookabove;
unicode = 1EC8;
},
{
glyphname = Imacron;
lastChange = "2015-10-27 13:18:36 +0000";
layers = (
{
layerId = "AD8C1534-DD1F-4D30-8D71-C3A36519B1B2";
name = "Bold Italic";
paths = (
{
closed = 1;
nodes = (
"297 0 LINE",
"300 18 LINE",
"276 26 OFFCURVE",
"249 35 OFFCURVE",
"227 39 CURVE",
"353 659 LINE",
"381 666 OFFCURVE",
"410 672 OFFCURVE",
"435 680 CURVE",
"439 700 LINE",
"133 700 LINE",
"130 681 LINE",
"155 673 OFFCURVE",
"181 664 OFFCURVE",
"203 660 CURVE",
"76 40 LINE",
"49 34 OFFCURVE",
"19 27 OFFCURVE",
"-5 20 CURVE",
"-9 0 LINE"
);
},
{
closed = 1;
nodes = (
"513 785 LINE",
"523 834 LINE",
"114 834 LINE",
"104 785 LINE"
);
}
);
width = 365;
}
);
note = Imacron;
unicode = 012A;
},
{
glyphname = Iogonek;
lastChange = "2015-10-27 13:18:36 +0000";
layers = (
{
layerId = "AD8C1534-DD1F-4D30-8D71-C3A36519B1B2";
name = "Bold Italic";
paths = (
{
closed = 1;
nodes = (
"297 0 LINE",
"300 18 LINE",
"276 26 OFFCURVE",
"249 35 OFFCURVE",
"227 39 CURVE",
"353 659 LINE",
"381 666 OFFCURVE",
"410 672 OFFCURVE",
"435 680 CURVE",
"439 700 LINE",
"133 700 LINE",
"130 681 LINE",
"155 673 OFFCURVE",
"181 664 OFFCURVE",
"203 660 CURVE",
"76 40 LINE",
"49 34 OFFCURVE",
"19 27 OFFCURVE",
"-5 20 CURVE",
"-9 0 LINE"
);
},
{
closed = 1;
nodes = (
"248 -206 OFFCURVE",
"290 -196 OFFCURVE",
"318 -180 CURVE",
"331 -117 LINE",
"303 -132 OFFCURVE",
"280 -138 OFFCURVE",
"262 -138 CURVE SMOOTH",
"228 -138 OFFCURVE",
"208 -117 OFFCURVE",
"214 -86 CURVE SMOOTH",
"221 -54 OFFCURVE",
"253 -18 OFFCURVE",
"281 0 CURVE",
"211 0 LINE",
"151 -18 OFFCURVE",
"107 -71 OFFCURVE",
"98 -116 CURVE SMOOTH",
"86 -170 OFFCURVE",
"126 -206 OFFCURVE",
"206 -206 CURVE SMOOTH"
);
}
);
width = 365;
}
);
note = Iogonek;
unicode = 012E;
},
{
glyphname = Itilde;
lastChange = "2015-10-27 13:18:36 +0000";
layers = (
{
layerId = "AD8C1534-DD1F-4D30-8D71-C3A36519B1B2";
name = "Bold Italic";
paths = (
{
closed = 1;
nodes = (
"297 0 LINE",
"300 18 LINE",
"276 26 OFFCURVE",
"249 35 OFFCURVE",
"227 39 CURVE",
"353 659 LINE",
"381 666 OFFCURVE",
"410 672 OFFCURVE",
"435 680 CURVE",
"439 700 LINE",
"133 700 LINE",
"130 681 LINE",
"155 673 OFFCURVE",
"181 664 OFFCURVE",
"203 660 CURVE",
"76 40 LINE",
"49 34 OFFCURVE",
"19 27 OFFCURVE",
"-5 20 CURVE",
"-9 0 LINE"
);
},
{
closed = 1;
nodes = (
"175 786 LINE",
"186 818 OFFCURVE",
"211 839 OFFCURVE",
"240 839 CURVE SMOOTH",
"275 839 OFFCURVE",
"324 786 OFFCURVE",
"381 786 CURVE SMOOTH",
"455 786 OFFCURVE",
"499 834 OFFCURVE",
"520 905 CURVE",
"459 905 LINE",
"439 859 OFFCURVE",
"413 851 OFFCURVE",
"389 851 CURVE SMOOTH",
"349 851 OFFCURVE",
"321 903 OFFCURVE",
"252 903 CURVE SMOOTH",
"186 903 OFFCURVE",
"136 863 OFFCURVE",
"110 786 CURVE"
);
}
);
width = 365;
}
);
note = Itilde;
unicode = 0128;
},
{
glyphname = J;
lastChange = "2015-10-27 13:18:36 +0000";
layers = (
{
layerId = "AD8C1534-DD1F-4D30-8D71-C3A36519B1B2";
name = "Bold Italic";
paths = (
{
closed = 1;
nodes = (
"258 -10 OFFCURVE",
"366 40 OFFCURVE",
"391 163 CURVE SMOOTH",
"492 658 LINE",
"510 661 OFFCURVE",
"542 671 OFFCURVE",
"571 680 CURVE",
"575 700 LINE",
"274 700 LINE",
"270 680 LINE",
"292 671 OFFCURVE",
"311 664 OFFCURVE",
"342 659 CURVE",
"239 156 LINE SMOOTH",
"223 78 OFFCURVE",
"172 50 OFFCURVE",
"120 50 CURVE SMOOTH",
"78 50 OFFCURVE",
"40 67 OFFCURVE",
"18 86 CURVE",
"-12 48 LINE",
"23 10 OFFCURVE",
"85 -10 OFFCURVE",
"152 -10 CURVE SMOOTH"
);
}
);
width = 500;
}
);
leftKerningGroup = J;
note = J;
rightKerningGroup = J;
unicode = 004A;
},
{
glyphname = Jcircumflex;
lastChange = "2015-10-27 13:18:36 +0000";
layers = (
{
layerId = "AD8C1534-DD1F-4D30-8D71-C3A36519B1B2";
name = "Bold Italic";
paths = (
{
closed = 1;
nodes = (
"258 -10 OFFCURVE",
"366 40 OFFCURVE",
"391 163 CURVE SMOOTH",
"492 658 LINE",
"510 661 OFFCURVE",
"542 671 OFFCURVE",
"571 680 CURVE",
"575 700 LINE",
"274 700 LINE",
"270 680 LINE",
"292 671 OFFCURVE",
"311 664 OFFCURVE",
"342 659 CURVE",
"239 156 LINE SMOOTH",
"223 78 OFFCURVE",
"172 50 OFFCURVE",
"120 50 CURVE SMOOTH",
"78 50 OFFCURVE",
"40 67 OFFCURVE",
"18 86 CURVE",
"-12 48 LINE",
"23 10 OFFCURVE",
"85 -10 OFFCURVE",
"152 -10 CURVE SMOOTH"
);
},
{
closed = 1;
nodes = (
"363 816 OFFCURVE",
"435 876 OFFCURVE",
"464 912 CURVE",
"465 912 OFFCURVE",
"467 912 OFFCURVE",
"468 912 CURVE",
"484 876 OFFCURVE",
"530 816 OFFCURVE",
"564 783 CURVE",
"633 829 LINE",
"596 857 OFFCURVE",
"529 936 OFFCURVE",
"513 972 CURVE",
"504 972 OFFCURVE",
"452 972 OFFCURVE",
"444 972 CURVE",
"414 936 OFFCURVE",
"316 857 OFFCURVE",
"267 829 CURVE",
"318 783 LINE"
);
}
);
width = 500;
}
);
leftKerningGroup = J;
note = Jcircumflex;
rightKerningGroup = J;
unicode = 0134;
},
{
glyphname = K;
lastChange = "2015-10-27 13:18:36 +0000";
layers = (
{
layerId = "AD8C1534-DD1F-4D30-8D71-C3A36519B1B2";
name = "Bold Italic";
paths = (
{
closed = 1;
nodes = (
"295 0 LINE",
"298 18 LINE",
"274 26 OFFCURVE",
"248 35 OFFCURVE",
"226 39 CURVE",
"352 659 LINE",
"379 665 OFFCURVE",
"406 672 OFFCURVE",
"433 680 CURVE",
"437 700 LINE",
"132 700 LINE",
"129 682 LINE",
"154 672 OFFCURVE",
"180 665 OFFCURVE",
"202 660 CURVE",
"75 40 LINE",
"68 39 OFFCURVE",
"22 28 OFFCURVE",
"-6 20 CURVE",
"-10 0 LINE"
);
},
{
closed = 1;
nodes = (
"729 0 LINE",
"732 18 LINE",
"701 28 OFFCURVE",
"674 35 OFFCURVE",
"653 39 CURVE",
"448 437 LINE",
"341 342 LINE",
"516 0 LINE"
);
},
{
closed = 1;
nodes = (
"717 651 LINE",
"740 668 OFFCURVE",
"770 668 OFFCURVE",
"795 675 CURVE",
"800 700 LINE",
"577 700 LINE",
"572 675 LINE",
"596 669 OFFCURVE",
"627 666 OFFCURVE",
"645 657 CURVE",
"226 283 LINE",
"207 197 LINE"
);
}
);
width = 773;
}
);
note = K;
rightKerningGroup = K;
unicode = 004B;
},
{
glyphname = Kcommaaccent;
lastChange = "2015-10-27 13:18:36 +0000";
layers = (
{
layerId = "AD8C1534-DD1F-4D30-8D71-C3A36519B1B2";
name = "Bold Italic";
paths = (
{
closed = 1;
nodes = (
"295 0 LINE",
"298 18 LINE",
"274 26 OFFCURVE",
"248 35 OFFCURVE",
"226 39 CURVE",
"352 659 LINE",
"379 665 OFFCURVE",
"406 672 OFFCURVE",
"433 680 CURVE",
"437 700 LINE",
"132 700 LINE",
"129 682 LINE",
"154 672 OFFCURVE",
"180 665 OFFCURVE",
"202 660 CURVE",
"75 40 LINE",
"68 39 OFFCURVE",
"22 28 OFFCURVE",
"-6 20 CURVE",
"-10 0 LINE"
);
},
{
closed = 1;
nodes = (
"329 -319 OFFCURVE",
"388 -235 OFFCURVE",
"403 -159 CURVE SMOOTH",
"412 -117 OFFCURVE",
"396 -81 OFFCURVE",
"344 -81 CURVE SMOOTH",
"306 -81 OFFCURVE",
"268 -106 OFFCURVE",
"259 -148 CURVE SMOOTH",
"252 -188 OFFCURVE",
"276 -215 OFFCURVE",
"314 -217 CURVE",
"299 -261 OFFCURVE",
"255 -306 OFFCURVE",
"227 -332 CURVE",
"265 -368 LINE"
);
},
{
closed = 1;
nodes = (
"729 0 LINE",
"732 18 LINE",
"701 28 OFFCURVE",
"674 35 OFFCURVE",
"653 39 CURVE",
"448 437 LINE",
"341 342 LINE",
"516 0 LINE"
);
},
{
closed = 1;
nodes = (
"717 651 LINE",
"740 668 OFFCURVE",
"770 668 OFFCURVE",
"795 675 CURVE",
"800 700 LINE",
"577 700 LINE",
"572 675 LINE",
"596 669 OFFCURVE",
"627 666 OFFCURVE",
"645 657 CURVE",
"226 283 LINE",
"207 197 LINE"
);
}
);
width = 773;
}
);
note = Kcommaaccent;
rightKerningGroup = K;
unicode = 0136;
},
{
glyphname = L;
lastChange = "2015-10-27 13:18:36 +0000";
layers = (
{
layerId = "AD8C1534-DD1F-4D30-8D71-C3A36519B1B2";
name = "Bold Italic";
paths = (
{
closed = 1;
nodes = (
"537 0 LINE",
"589 175 LINE",
"558 175 LINE",
"537 154 OFFCURVE",
"493 85 OFFCURVE",
"483 49 CURVE",
"234 49 LINE",
"359 659 LINE",
"385 665 OFFCURVE",
"413 672 OFFCURVE",
"439 680 CURVE",
"443 700 LINE",
"139 700 LINE",
"135 682 LINE",
"160 672 OFFCURVE",
"185 665 OFFCURVE",
"208 660 CURVE",
"82 39 LINE",
"54 35 OFFCURVE",
"22 27 OFFCURVE",
"-7 18 CURVE",
"-10 0 LINE"
);
}
);
width = 629;
}
);
note = L;
rightKerningGroup = L;
unicode = 004C;
},
{
glyphname = Lacute;
lastChange = "2015-10-27 13:18:36 +0000";
layers = (
{
layerId = "AD8C1534-DD1F-4D30-8D71-C3A36519B1B2";
name = "Bold Italic";
paths = (
{
closed = 1;
nodes = (
"537 0 LINE",
"589 175 LINE",
"558 175 LINE",
"537 154 OFFCURVE",
"493 85 OFFCURVE",
"483 49 CURVE",
"234 49 LINE",
"359 659 LINE",
"385 665 OFFCURVE",
"413 672 OFFCURVE",
"439 680 CURVE",
"443 700 LINE",
"139 700 LINE",
"135 682 LINE",
"160 672 OFFCURVE",
"185 665 OFFCURVE",
"208 660 CURVE",
"82 39 LINE",
"54 35 OFFCURVE",
"22 27 OFFCURVE",
"-7 18 CURVE",
"-10 0 LINE"
);
},
{
closed = 1;
nodes = (
"418 879 LINE SMOOTH",
"452 898 OFFCURVE",
"472 916 OFFCURVE",
"477 940 CURVE SMOOTH",
"481 959 OFFCURVE",
"471 982 OFFCURVE",
"440 982 CURVE SMOOTH",
"407 982 OFFCURVE",
"378 954 OFFCURVE",
"372 947 CURVE",
"228 821 LINE",
"246 786 LINE"
);
}
);
width = 629;
}
);
note = Lacute;
rightKerningGroup = L;
unicode = 0139;
},
{
glyphname = Lcaron;
lastChange = "2015-10-27 13:18:37 +0000";
layers = (
{
layerId = "AD8C1534-DD1F-4D30-8D71-C3A36519B1B2";
name = "Bold Italic";
paths = (
{
closed = 1;
nodes = (
"537 0 LINE",
"589 175 LINE",
"558 175 LINE",
"537 154 OFFCURVE",
"493 85 OFFCURVE",
"483 49 CURVE",
"234 49 LINE",
"359 659 LINE",
"385 665 OFFCURVE",
"413 672 OFFCURVE",
"439 680 CURVE",
"443 700 LINE",
"139 700 LINE",
"135 682 LINE",
"160 672 OFFCURVE",
"185 665 OFFCURVE",
"208 660 CURVE",
"82 39 LINE",
"54 35 OFFCURVE",
"22 27 OFFCURVE",
"-7 18 CURVE",
"-10 0 LINE"
);
},
{
closed = 1;
nodes = (
"610 462 OFFCURVE",
"673 547 OFFCURVE",
"688 623 CURVE SMOOTH",
"697 664 OFFCURVE",
"685 710 OFFCURVE",
"625 710 CURVE SMOOTH",
"575 710 OFFCURVE",
"545 673 OFFCURVE",
"537 632 CURVE SMOOTH",
"527 588 OFFCURVE",
"556 564 OFFCURVE",
"594 564 CURVE",
"579 520 OFFCURVE",
"536 475 OFFCURVE",
"507 449 CURVE",
"545 413 LINE"
);
}
);
width = 629;
}
);
note = Lcaron;
rightKerningGroup = L;
unicode = 013D;
},
{
glyphname = Lcommaaccent;
lastChange = "2015-10-27 13:18:36 +0000";
layers = (
{
layerId = "AD8C1534-DD1F-4D30-8D71-C3A36519B1B2";
name = "Bold Italic";
paths = (
{
closed = 1;
nodes = (
"537 0 LINE",
"589 175 LINE",
"558 175 LINE",
"537 154 OFFCURVE",
"493 85 OFFCURVE",
"483 49 CURVE",
"234 49 LINE",
"359 659 LINE",
"385 665 OFFCURVE",
"413 672 OFFCURVE",
"439 680 CURVE",
"443 700 LINE",
"139 700 LINE",
"135 682 LINE",
"160 672 OFFCURVE",
"185 665 OFFCURVE",
"208 660 CURVE",
"82 39 LINE",
"54 35 OFFCURVE",
"22 27 OFFCURVE",
"-7 18 CURVE",
"-10 0 LINE"
);
},
{
closed = 1;
nodes = (
"255 -319 OFFCURVE",
"314 -235 OFFCURVE",
"329 -159 CURVE SMOOTH",
"338 -117 OFFCURVE",
"322 -81 OFFCURVE",
"270 -81 CURVE SMOOTH",
"232 -81 OFFCURVE",
"194 -106 OFFCURVE",
"185 -148 CURVE SMOOTH",
"178 -188 OFFCURVE",
"202 -215 OFFCURVE",
"240 -217 CURVE",
"225 -261 OFFCURVE",
"181 -306 OFFCURVE",
"153 -332 CURVE",
"191 -368 LINE"
);
}
);
width = 629;
}
);
note = Lcommaaccent;
rightKerningGroup = L;
unicode = 013B;
},
{
glyphname = Ldot;
lastChange = "2015-10-27 13:18:36 +0000";
layers = (
{
layerId = "AD8C1534-DD1F-4D30-8D71-C3A36519B1B2";
name = "Bold Italic";
paths = (
{
closed = 1;
nodes = (
"537 0 LINE",
"589 175 LINE",
"558 175 LINE",
"537 154 OFFCURVE",
"493 85 OFFCURVE",
"483 49 CURVE",
"234 49 LINE",
"359 659 LINE",
"385 665 OFFCURVE",
"413 672 OFFCURVE",
"439 680 CURVE",
"443 700 LINE",
"139 700 LINE",
"135 682 LINE",
"160 672 OFFCURVE",
"185 665 OFFCURVE",
"208 660 CURVE",
"186 555 OFFCURVE",
"103 144 OFFCURVE",
"82 39 CURVE",
"54 35 OFFCURVE",
"22 27 OFFCURVE",
"-7 18 CURVE",
"-10 0 LINE"
);
},
{
closed = 1;
nodes = (
"509 327 OFFCURVE",
"538 354 OFFCURVE",
"544 389 CURVE SMOOTH",
"551 423 OFFCURVE",
"534 451 OFFCURVE",
"497 451 CURVE SMOOTH",
"461 451 OFFCURVE",
"433 423 OFFCURVE",
"426 389 CURVE SMOOTH",
"420 354 OFFCURVE",
"436 327 OFFCURVE",
"472 327 CURVE SMOOTH"
);
}
);
width = 629;
}
);
note = Ldot;
rightKerningGroup = L;
unicode = 013F;
},
{
glyphname = Ldotbelow;
lastChange = "2015-10-27 13:18:36 +0000";
layers = (
{
layerId = "AD8C1534-DD1F-4D30-8D71-C3A36519B1B2";
name = "Bold Italic";
paths = (
{
closed = 1;
nodes = (
"537 0 LINE",
"589 175 LINE",
"558 175 LINE",
"537 154 OFFCURVE",
"493 85 OFFCURVE",
"483 49 CURVE",
"234 49 LINE",
"359 659 LINE",
"385 665 OFFCURVE",
"413 672 OFFCURVE",
"439 680 CURVE",
"443 700 LINE",
"139 700 LINE",
"135 682 LINE",
"160 672 OFFCURVE",
"185 665 OFFCURVE",
"208 660 CURVE",
"186 555 OFFCURVE",
"103 144 OFFCURVE",
"82 39 CURVE",
"54 35 OFFCURVE",
"22 27 OFFCURVE",
"-7 18 CURVE",
"-10 0 LINE"
);
},
{
closed = 1;
nodes = (
"284 -175 OFFCURVE",
"313 -148 OFFCURVE",
"320 -113 CURVE SMOOTH",
"327 -79 OFFCURVE",
"310 -51 OFFCURVE",
"275 -51 CURVE SMOOTH",
"238 -51 OFFCURVE",
"210 -79 OFFCURVE",
"203 -113 CURVE SMOOTH",
"196 -148 OFFCURVE",
"212 -175 OFFCURVE",
"249 -175 CURVE SMOOTH"
);
}
);
width = 629;
}
);
note = Ldotbelow;
rightKerningGroup = L;
unicode = 1E36;
},
{
glyphname = Ldotbelowmacron;
lastChange = "2015-10-27 13:18:36 +0000";
layers = (
{
layerId = "AD8C1534-DD1F-4D30-8D71-C3A36519B1B2";
name = "Bold Italic";
paths = (
{
closed = 1;
nodes = (
"537 0 LINE",
"589 175 LINE",
"558 175 LINE",
"537 154 OFFCURVE",
"493 85 OFFCURVE",
"483 49 CURVE",
"234 49 LINE",
"359 659 LINE",
"385 665 OFFCURVE",
"413 672 OFFCURVE",
"439 680 CURVE",
"443 700 LINE",
"139 700 LINE",
"135 682 LINE",
"160 672 OFFCURVE",
"185 665 OFFCURVE",
"208 660 CURVE",
"186 555 OFFCURVE",
"103 144 OFFCURVE",
"82 39 CURVE",
"54 35 OFFCURVE",
"22 27 OFFCURVE",
"-7 18 CURVE",
"-10 0 LINE"
);
},
{
closed = 1;
nodes = (
"282 -175 OFFCURVE",
"311 -148 OFFCURVE",
"318 -113 CURVE SMOOTH",
"325 -79 OFFCURVE",
"308 -51 OFFCURVE",
"272 -51 CURVE SMOOTH",
"236 -51 OFFCURVE",
"207 -79 OFFCURVE",
"200 -113 CURVE SMOOTH",
"193 -148 OFFCURVE",
"210 -175 OFFCURVE",
"246 -175 CURVE SMOOTH"
);
},
{
closed = 1;
nodes = (
"493 785 LINE",
"504 833 LINE",
"130 833 LINE",
"119 785 LINE"
);
}
);
width = 629;
}
);
note = Ldotbelowmacron;
rightKerningGroup = L;
unicode = 1E38;
},
{
glyphname = Llinebelow;
lastChange = "2015-10-27 13:18:36 +0000";
layers = (
{
layerId = "AD8C1534-DD1F-4D30-8D71-C3A36519B1B2";
name = "Bold Italic";
paths = (
{
closed = 1;
nodes = (
"537 0 LINE",
"589 175 LINE",
"558 175 LINE",
"537 154 OFFCURVE",
"493 85 OFFCURVE",
"483 49 CURVE",
"234 49 LINE",
"359 659 LINE",
"385 665 OFFCURVE",
"413 672 OFFCURVE",
"439 680 CURVE",
"443 700 LINE",
"139 700 LINE",
"135 682 LINE",
"160 672 OFFCURVE",
"185 665 OFFCURVE",
"208 660 CURVE",
"82 39 LINE",
"54 35 OFFCURVE",
"22 27 OFFCURVE",
"-7 18 CURVE",
"-10 0 LINE"
);
},
{
closed = 1;
nodes = (
"439 -109 LINE",
"449 -61 LINE",
"76 -61 LINE",
"65 -109 LINE"
);
}
);
width = 629;
}
);
note = Llinebelow;
rightKerningGroup = L;
unicode = 1E3A;
},
{
glyphname = Lslash;
lastChange = "2015-10-27 13:18:36 +0000";
layers = (
{
layerId = "AD8C1534-DD1F-4D30-8D71-C3A36519B1B2";
name = "Bold Italic";
paths = (
{
closed = 1;
nodes = (
"537 0 LINE",
"589 175 LINE",
"558 175 LINE",
"537 154 OFFCURVE",
"493 85 OFFCURVE",
"483 49 CURVE",
"234 49 LINE",
"359 659 LINE",
"385 665 OFFCURVE",
"413 672 OFFCURVE",
"439 680 CURVE",
"443 700 LINE",
"139 700 LINE",
"135 682 LINE",
"160 672 OFFCURVE",
"185 665 OFFCURVE",
"208 660 CURVE",
"82 39 LINE",
"54 35 OFFCURVE",
"22 27 OFFCURVE",
"-7 18 CURVE",
"-10 0 LINE"
);
},
{
closed = 1;
nodes = (
"491 377 LINE",
"504 445 LINE",
"58 290 LINE",
"44 223 LINE"
);
}
);
width = 629;
}
);
note = Lslash;
rightKerningGroup = L;
unicode = 0141;
},
{
glyphname = M;
lastChange = "2015-10-27 13:18:36 +0000";
layers = (
{
layerId = "AD8C1534-DD1F-4D30-8D71-C3A36519B1B2";
name = "Bold Italic";
paths = (
{
closed = 1;
nodes = (
"203 0 LINE",
"205 17 LINE",
"180 26 OFFCURVE",
"158 33 OFFCURVE",
"134 38 CURVE",
"248 593 LINE",
"349 76 LINE",
"437 76 LINE",
"751 581 LINE",
"640 38 LINE",
"614 33 OFFCURVE",
"588 26 OFFCURVE",
"560 17 CURVE",
"557 0 LINE",
"859 0 LINE",
"862 17 LINE",
"836 26 OFFCURVE",
"814 33 OFFCURVE",
"791 38 CURVE",
"917 658 LINE",
"945 666 OFFCURVE",
"973 674 OFFCURVE",
"997 682 CURVE",
"1001 700 LINE",
"767 700 LINE",
"455 194 LINE",
"367 700 LINE",
"132 700 LINE",
"129 682 LINE",
"154 672 OFFCURVE",
"180 665 OFFCURVE",
"202 660 CURVE",
"75 38 LINE",
"50 33 OFFCURVE",
"23 26 OFFCURVE",
"-6 17 CURVE",
"-9 0 LINE"
);
}
);
width = 926;
}
);
note = M;
unicode = 004D;
},
{
glyphname = Mdotbelow;
lastChange = "2015-10-27 13:18:37 +0000";
layers = (
{
layerId = "AD8C1534-DD1F-4D30-8D71-C3A36519B1B2";
name = "Bold Italic";
paths = (
{
closed = 1;
nodes = (
"203 0 LINE",
"205 17 LINE",
"180 26 OFFCURVE",
"158 33 OFFCURVE",
"134 38 CURVE",
"248 593 LINE",
"349 76 LINE",
"437 76 LINE",
"751 581 LINE",
"640 38 LINE",
"614 33 OFFCURVE",
"588 26 OFFCURVE",
"560 17 CURVE",
"557 0 LINE",
"859 0 LINE",
"862 17 LINE",
"836 26 OFFCURVE",
"814 33 OFFCURVE",
"791 38 CURVE",
"917 658 LINE",
"945 666 OFFCURVE",
"973 674 OFFCURVE",
"997 682 CURVE",
"1001 700 LINE",
"767 700 LINE",
"455 194 LINE",
"367 700 LINE",
"132 700 LINE",
"129 682 LINE",
"154 672 OFFCURVE",
"180 665 OFFCURVE",
"202 660 CURVE",
"75 38 LINE",
"50 33 OFFCURVE",
"23 26 OFFCURVE",
"-6 17 CURVE",
"-9 0 LINE"
);
},
{
closed = 1;
nodes = (
"424 -178 OFFCURVE",
"452 -151 OFFCURVE",
"460 -116 CURVE SMOOTH",
"467 -81 OFFCURVE",
"449 -54 OFFCURVE",
"413 -54 CURVE SMOOTH",
"377 -54 OFFCURVE",
"348 -81 OFFCURVE",
"342 -116 CURVE SMOOTH",
"334 -151 OFFCURVE",
"352 -178 OFFCURVE",
"388 -178 CURVE SMOOTH"
);
}
);
width = 926;
}
);
note = Mdotbelow;
unicode = 1E42;
},
{
glyphname = N;
lastChange = "2015-10-27 13:18:36 +0000";
layers = (
{
layerId = "AD8C1534-DD1F-4D30-8D71-C3A36519B1B2";
name = "Bold Italic";
paths = (
{
closed = 1;
nodes = (
"203 0 LINE",
"205 17 LINE",
"180 26 OFFCURVE",
"158 33 OFFCURVE",
"134 38 CURVE",
"252 621 LINE",
"535 0 LINE",
"612 0 LINE",
"746 661 LINE",
"771 667 OFFCURVE",
"797 673 OFFCURVE",
"826 682 CURVE",
"829 700 LINE",
"617 700 LINE",
"613 682 LINE",
"640 673 OFFCURVE",
"662 667 OFFCURVE",
"685 661 CURVE",
"589 189 LINE",
"360 700 LINE",
"132 700 LINE",
"129 682 LINE",
"154 672 OFFCURVE",
"179 665 OFFCURVE",
"202 660 CURVE",
"75 38 LINE",
"50 33 OFFCURVE",
"23 26 OFFCURVE",
"-6 17 CURVE",
"-9 0 LINE"
);
}
);
width = 755;
}
);
note = N;
unicode = 004E;
},
{
glyphname = Nacute;
lastChange = "2015-10-27 13:18:36 +0000";
layers = (
{
layerId = "AD8C1534-DD1F-4D30-8D71-C3A36519B1B2";
name = "Bold Italic";
paths = (
{
closed = 1;
nodes = (
"203 0 LINE",
"205 17 LINE",
"180 26 OFFCURVE",
"158 33 OFFCURVE",
"134 38 CURVE",
"252 621 LINE",
"535 0 LINE",
"612 0 LINE",
"746 661 LINE",
"771 667 OFFCURVE",
"797 673 OFFCURVE",
"826 682 CURVE",
"829 700 LINE",
"617 700 LINE",
"613 682 LINE",
"640 673 OFFCURVE",
"662 667 OFFCURVE",
"685 661 CURVE",
"589 189 LINE",
"360 700 LINE",
"132 700 LINE",
"129 682 LINE",
"154 672 OFFCURVE",
"179 665 OFFCURVE",
"202 660 CURVE",
"75 38 LINE",
"50 33 OFFCURVE",
"23 26 OFFCURVE",
"-6 17 CURVE",
"-9 0 LINE"
);
},
{
closed = 1;
nodes = (
"622 879 LINE SMOOTH",
"657 898 OFFCURVE",
"677 916 OFFCURVE",
"682 940 CURVE SMOOTH",
"685 959 OFFCURVE",
"676 982 OFFCURVE",
"644 982 CURVE SMOOTH",
"612 982 OFFCURVE",
"583 954 OFFCURVE",
"576 947 CURVE",
"433 821 LINE",
"450 786 LINE"
);
}
);
width = 755;
}
);
note = Nacute;
unicode = 0143;
},
{
glyphname = Ncaron;
lastChange = "2015-10-27 13:18:36 +0000";
layers = (
{
layerId = "AD8C1534-DD1F-4D30-8D71-C3A36519B1B2";
name = "Bold Italic";
paths = (
{
closed = 1;
nodes = (
"203 0 LINE",
"205 17 LINE",
"180 26 OFFCURVE",
"158 33 OFFCURVE",
"134 38 CURVE",
"252 621 LINE",
"535 0 LINE",
"612 0 LINE",
"746 661 LINE",
"771 667 OFFCURVE",
"797 673 OFFCURVE",
"826 682 CURVE",
"829 700 LINE",
"617 700 LINE",
"613 682 LINE",
"640 673 OFFCURVE",
"662 667 OFFCURVE",
"685 661 CURVE",
"589 189 LINE",
"360 700 LINE",
"132 700 LINE",
"129 682 LINE",
"154 672 OFFCURVE",
"179 665 OFFCURVE",
"202 660 CURVE",
"75 38 LINE",
"50 33 OFFCURVE",
"23 26 OFFCURVE",
"-6 17 CURVE",
"-9 0 LINE"
);
},
{
closed = 1;
nodes = (
"471 786 OFFCURVE",
"523 786 OFFCURVE",
"532 786 CURVE",
"562 822 OFFCURVE",
"661 900 OFFCURVE",
"709 929 CURVE",
"660 974 LINE",
"612 942 OFFCURVE",
"541 882 OFFCURVE",
"511 846 CURVE",
"510 846 OFFCURVE",
"508 846 OFFCURVE",
"507 846 CURVE",
"492 882 OFFCURVE",
"445 942 OFFCURVE",
"413 974 CURVE",
"344 929 LINE",
"380 900 OFFCURVE",
"446 822 OFFCURVE",
"463 786 CURVE"
);
}
);
width = 755;
}
);
note = Ncaron;
unicode = 0147;
},
{
glyphname = Ncommaaccent;
lastChange = "2015-10-27 13:18:36 +0000";
layers = (
{
layerId = "AD8C1534-DD1F-4D30-8D71-C3A36519B1B2";
name = "Bold Italic";
paths = (
{
closed = 1;
nodes = (
"203 0 LINE",
"205 17 LINE",
"180 26 OFFCURVE",
"158 33 OFFCURVE",
"134 38 CURVE",
"252 621 LINE",
"535 0 LINE",
"612 0 LINE",
"746 661 LINE",
"771 667 OFFCURVE",
"797 673 OFFCURVE",
"826 682 CURVE",
"829 700 LINE",
"617 700 LINE",
"613 682 LINE",
"640 673 OFFCURVE",
"662 667 OFFCURVE",
"685 661 CURVE",
"589 189 LINE",
"360 700 LINE",
"132 700 LINE",
"129 682 LINE",
"154 672 OFFCURVE",
"179 665 OFFCURVE",
"202 660 CURVE",
"75 38 LINE",
"50 33 OFFCURVE",
"23 26 OFFCURVE",
"-6 17 CURVE",
"-9 0 LINE"
);
},
{
closed = 1;
nodes = (
"313 -319 OFFCURVE",
"372 -235 OFFCURVE",
"387 -159 CURVE SMOOTH",
"396 -117 OFFCURVE",
"379 -81 OFFCURVE",
"327 -81 CURVE SMOOTH",
"290 -81 OFFCURVE",
"252 -106 OFFCURVE",
"243 -148 CURVE SMOOTH",
"235 -188 OFFCURVE",
"259 -215 OFFCURVE",
"298 -217 CURVE",
"282 -261 OFFCURVE",
"239 -306 OFFCURVE",
"210 -332 CURVE",
"249 -368 LINE"
);
}
);
width = 755;
}
);
note = Ncommaaccent;
unicode = 0145;
},
{
glyphname = Ndotaccent;
lastChange = "2015-10-27 13:18:36 +0000";
layers = (
{
layerId = "AD8C1534-DD1F-4D30-8D71-C3A36519B1B2";
name = "Bold Italic";
paths = (
{
closed = 1;
nodes = (
"203 0 LINE",
"205 17 LINE",
"180 26 OFFCURVE",
"158 33 OFFCURVE",
"134 38 CURVE",
"252 621 LINE",
"535 0 LINE",
"612 0 LINE",
"746 661 LINE",
"771 667 OFFCURVE",
"797 673 OFFCURVE",
"826 682 CURVE",
"829 700 LINE",
"617 700 LINE",
"613 682 LINE",
"640 673 OFFCURVE",
"662 667 OFFCURVE",
"685 661 CURVE",
"589 189 LINE",
"360 700 LINE",
"132 700 LINE",
"129 682 LINE",
"154 672 OFFCURVE",
"179 665 OFFCURVE",
"202 660 CURVE",
"75 38 LINE",
"50 33 OFFCURVE",
"23 26 OFFCURVE",
"-6 17 CURVE",
"-9 0 LINE"
);
},
{
closed = 1;
nodes = (
"534 785 OFFCURVE",
"563 812 OFFCURVE",
"570 847 CURVE SMOOTH",
"577 882 OFFCURVE",
"560 909 OFFCURVE",
"524 909 CURVE SMOOTH",
"488 909 OFFCURVE",
"460 882 OFFCURVE",
"453 847 CURVE SMOOTH",
"445 812 OFFCURVE",
"462 785 OFFCURVE",
"498 785 CURVE SMOOTH"
);
}
);
width = 755;
}
);
note = Ndotaccent;
unicode = 1E44;
},
{
glyphname = Ndotbelow;
lastChange = "2015-10-27 13:18:36 +0000";
layers = (
{
layerId = "AD8C1534-DD1F-4D30-8D71-C3A36519B1B2";
name = "Bold Italic";
paths = (
{
closed = 1;
nodes = (
"203 0 LINE",
"205 17 LINE",
"180 26 OFFCURVE",
"158 33 OFFCURVE",
"134 38 CURVE",
"252 621 LINE",
"535 0 LINE",
"612 0 LINE",
"746 661 LINE",
"771 667 OFFCURVE",
"797 673 OFFCURVE",
"826 682 CURVE",
"829 700 LINE",
"617 700 LINE",
"613 682 LINE",
"640 673 OFFCURVE",
"662 667 OFFCURVE",
"685 661 CURVE",
"589 189 LINE",
"360 700 LINE",
"132 700 LINE",
"129 682 LINE",
"154 672 OFFCURVE",
"179 665 OFFCURVE",
"202 660 CURVE",
"75 38 LINE",
"50 33 OFFCURVE",
"23 26 OFFCURVE",
"-6 17 CURVE",
"-9 0 LINE"
);
},
{
closed = 1;
nodes = (
"335 -178 OFFCURVE",
"363 -151 OFFCURVE",
"371 -116 CURVE SMOOTH",
"377 -81 OFFCURVE",
"360 -54 OFFCURVE",
"324 -54 CURVE SMOOTH",
"288 -54 OFFCURVE",
"259 -81 OFFCURVE",
"252 -116 CURVE SMOOTH",
"245 -151 OFFCURVE",
"263 -178 OFFCURVE",
"299 -178 CURVE SMOOTH"
);
}
);
width = 755;
}
);
note = uni1E46;
unicode = 1E46;
},
{
glyphname = Eng;
lastChange = "2015-10-27 13:18:37 +0000";
layers = (
{
layerId = "AD8C1534-DD1F-4D30-8D71-C3A36519B1B2";
name = "Bold Italic";
paths = (
{
closed = 1;
nodes = (
"496 -250 OFFCURVE",
"569 -207 OFFCURVE",
"590 -103 CURVE SMOOTH",
"746 661 LINE",
"771 667 OFFCURVE",
"797 673 OFFCURVE",
"826 682 CURVE",
"829 700 LINE",
"617 700 LINE",
"613 682 LINE",
"640 673 OFFCURVE",
"662 667 OFFCURVE",
"685 661 CURVE",
"589 189 LINE",
"360 700 LINE",
"132 700 LINE",
"129 682 LINE",
"154 672 OFFCURVE",
"179 665 OFFCURVE",
"202 660 CURVE",
"75 38 LINE",
"50 33 OFFCURVE",
"23 26 OFFCURVE",
"-6 17 CURVE",
"-9 0 LINE",
"203 0 LINE",
"205 17 LINE",
"180 26 OFFCURVE",
"158 33 OFFCURVE",
"134 38 CURVE",
"252 621 LINE",
"551 -4 LINE",
"530 -106 LINE SMOOTH",
"516 -173 OFFCURVE",
"457 -197 OFFCURVE",
"398 -197 CURVE SMOOTH",
"366 -197 OFFCURVE",
"336 -191 OFFCURVE",
"315 -182 CURVE",
"298 -222 LINE",
"331 -239 OFFCURVE",
"369 -250 OFFCURVE",
"412 -250 CURVE SMOOTH"
);
}
);
width = 755;
}
);
note = Eng;
unicode = 014A;
},
{
glyphname = Nlinebelow;
lastChange = "2015-10-27 13:18:36 +0000";
layers = (
{
layerId = "AD8C1534-DD1F-4D30-8D71-C3A36519B1B2";
name = "Bold Italic";
paths = (
{
closed = 1;
nodes = (
"203 0 LINE",
"205 17 LINE",
"180 26 OFFCURVE",
"158 33 OFFCURVE",
"134 38 CURVE",
"252 621 LINE",
"535 0 LINE",
"612 0 LINE",
"746 661 LINE",
"771 667 OFFCURVE",
"797 673 OFFCURVE",
"826 682 CURVE",
"829 700 LINE",
"617 700 LINE",
"613 682 LINE",
"640 673 OFFCURVE",
"662 667 OFFCURVE",
"685 661 CURVE",
"589 189 LINE",
"360 700 LINE",
"132 700 LINE",
"129 682 LINE",
"154 672 OFFCURVE",
"179 665 OFFCURVE",
"202 660 CURVE",
"75 38 LINE",
"50 33 OFFCURVE",
"23 26 OFFCURVE",
"-6 17 CURVE",
"-9 0 LINE"
);
},
{
closed = 1;
nodes = (
"504 -109 LINE",
"515 -61 LINE",
"141 -61 LINE",
"131 -109 LINE"
);
}
);
width = 755;
}
);
note = Nlinebelow;
unicode = 1E48;
},
{
glyphname = Ntilde;
lastChange = "2015-10-27 13:18:36 +0000";
layers = (
{
layerId = "AD8C1534-DD1F-4D30-8D71-C3A36519B1B2";
name = "Bold Italic";
paths = (
{
closed = 1;
nodes = (
"203 0 LINE",
"205 17 LINE",
"180 26 OFFCURVE",
"158 33 OFFCURVE",
"134 38 CURVE",
"252 621 LINE",
"535 0 LINE",
"612 0 LINE",
"746 661 LINE",
"771 667 OFFCURVE",
"797 673 OFFCURVE",
"826 682 CURVE",
"829 700 LINE",
"617 700 LINE",
"613 682 LINE",
"640 673 OFFCURVE",
"662 667 OFFCURVE",
"685 661 CURVE",
"589 189 LINE",
"360 700 LINE",
"132 700 LINE",
"129 682 LINE",
"154 672 OFFCURVE",
"179 665 OFFCURVE",
"202 660 CURVE",
"75 38 LINE",
"50 33 OFFCURVE",
"23 26 OFFCURVE",
"-6 17 CURVE",
"-9 0 LINE"
);
},
{
closed = 1;
nodes = (
"377 786 LINE",
"389 818 OFFCURVE",
"414 839 OFFCURVE",
"443 839 CURVE SMOOTH",
"477 839 OFFCURVE",
"527 786 OFFCURVE",
"584 786 CURVE SMOOTH",
"658 786 OFFCURVE",
"702 834 OFFCURVE",
"723 905 CURVE",
"661 905 LINE",
"641 859 OFFCURVE",
"615 851 OFFCURVE",
"591 851 CURVE SMOOTH",
"552 851 OFFCURVE",
"523 903 OFFCURVE",
"454 903 CURVE SMOOTH",
"389 903 OFFCURVE",
"339 863 OFFCURVE",
"313 786 CURVE"
);
}
);
width = 755;
}
);
note = Ntilde;
unicode = 00D1;
},
{
glyphname = O;
lastChange = "2015-10-27 13:18:36 +0000";
layers = (
{
layerId = "AD8C1534-DD1F-4D30-8D71-C3A36519B1B2";
name = "Bold Italic";
paths = (
{
closed = 1;
nodes = (
"543 -10 OFFCURVE",
"689 127 OFFCURVE",
"735 350 CURVE SMOOTH",
"780 572 OFFCURVE",
"690 710 OFFCURVE",
"473 710 CURVE SMOOTH",
"255 710 OFFCURVE",
"110 572 OFFCURVE",
"65 350 CURVE SMOOTH",
"19 127 OFFCURVE",
"108 -10 OFFCURVE",
"326 -10 CURVE SMOOTH"
);
},
{
closed = 1;
nodes = (
"211 42 OFFCURVE",
"181 171 OFFCURVE",
"218 350 CURVE SMOOTH",
"254 528 OFFCURVE",
"337 658 OFFCURVE",
"463 658 CURVE SMOOTH",
"588 658 OFFCURVE",
"619 528 OFFCURVE",
"583 350 CURVE SMOOTH",
"546 171 OFFCURVE",
"462 42 OFFCURVE",
"337 42 CURVE SMOOTH"
);
}
);
width = 735;
}
);
leftKerningGroup = O;
note = O;
rightKerningGroup = O;
unicode = 004F;
},
{
glyphname = Oacute;
lastChange = "2015-10-27 13:18:37 +0000";
layers = (
{
layerId = "AD8C1534-DD1F-4D30-8D71-C3A36519B1B2";
name = "Bold Italic";
paths = (
{
closed = 1;
nodes = (
"543 -10 OFFCURVE",
"689 127 OFFCURVE",
"735 350 CURVE SMOOTH",
"780 572 OFFCURVE",
"690 710 OFFCURVE",
"473 710 CURVE SMOOTH",
"255 710 OFFCURVE",
"110 572 OFFCURVE",
"65 350 CURVE SMOOTH",
"19 127 OFFCURVE",
"108 -10 OFFCURVE",
"326 -10 CURVE SMOOTH"
);
},
{
closed = 1;
nodes = (
"211 42 OFFCURVE",
"181 171 OFFCURVE",
"218 350 CURVE SMOOTH",
"254 528 OFFCURVE",
"337 658 OFFCURVE",
"463 658 CURVE SMOOTH",
"588 658 OFFCURVE",
"619 528 OFFCURVE",
"583 350 CURVE SMOOTH",
"546 171 OFFCURVE",
"462 42 OFFCURVE",
"337 42 CURVE SMOOTH"
);
},
{
closed = 1;
nodes = (
"579 879 LINE SMOOTH",
"613 898 OFFCURVE",
"634 916 OFFCURVE",
"638 940 CURVE SMOOTH",
"642 959 OFFCURVE",
"633 982 OFFCURVE",
"601 982 CURVE SMOOTH",
"568 982 OFFCURVE",
"540 954 OFFCURVE",
"533 947 CURVE",
"390 821 LINE",
"407 786 LINE"
);
}
);
width = 735;
}
);
leftKerningGroup = O;
note = Oacute;
rightKerningGroup = O;
unicode = 00D3;
},
{
glyphname = Obreve;
lastChange = "2015-10-27 13:18:36 +0000";
layers = (
{
layerId = "AD8C1534-DD1F-4D30-8D71-C3A36519B1B2";
name = "Bold Italic";
paths = (
{
closed = 1;
nodes = (
"543 -10 OFFCURVE",
"689 127 OFFCURVE",
"735 350 CURVE SMOOTH",
"780 572 OFFCURVE",
"690 710 OFFCURVE",
"473 710 CURVE SMOOTH",
"255 710 OFFCURVE",
"110 572 OFFCURVE",
"65 350 CURVE SMOOTH",
"19 127 OFFCURVE",
"108 -10 OFFCURVE",
"326 -10 CURVE SMOOTH"
);
},
{
closed = 1;
nodes = (
"211 42 OFFCURVE",
"181 171 OFFCURVE",
"218 350 CURVE SMOOTH",
"254 528 OFFCURVE",
"337 658 OFFCURVE",
"463 658 CURVE SMOOTH",
"588 658 OFFCURVE",
"619 528 OFFCURVE",
"583 350 CURVE SMOOTH",
"546 171 OFFCURVE",
"462 42 OFFCURVE",
"337 42 CURVE SMOOTH"
);
},
{
closed = 1;
nodes = (
"582 781 OFFCURVE",
"656 824 OFFCURVE",
"688 915 CURVE",
"606 915 LINE",
"584 842 OFFCURVE",
"538 833 OFFCURVE",
"498 833 CURVE SMOOTH",
"459 833 OFFCURVE",
"416 842 OFFCURVE",
"423 915 CURVE",
"342 915 LINE",
"338 824 OFFCURVE",
"394 781 OFFCURVE",
"488 781 CURVE SMOOTH"
);
}
);
width = 735;
}
);
leftKerningGroup = O;
note = Obreve;
rightKerningGroup = O;
unicode = 014E;
},
{
glyphname = Ocaron;
lastChange = "2015-10-27 13:18:37 +0000";
layers = (
{
layerId = "AD8C1534-DD1F-4D30-8D71-C3A36519B1B2";
name = "Bold Italic";
paths = (
{
closed = 1;
nodes = (
"543 -10 OFFCURVE",
"689 127 OFFCURVE",
"735 350 CURVE SMOOTH",
"780 572 OFFCURVE",
"690 710 OFFCURVE",
"473 710 CURVE SMOOTH",
"255 710 OFFCURVE",
"110 572 OFFCURVE",
"65 350 CURVE SMOOTH",
"19 127 OFFCURVE",
"108 -10 OFFCURVE",
"326 -10 CURVE SMOOTH"
);
},
{
closed = 1;
nodes = (
"211 42 OFFCURVE",
"181 171 OFFCURVE",
"218 350 CURVE SMOOTH",
"254 528 OFFCURVE",
"337 658 OFFCURVE",
"463 658 CURVE SMOOTH",
"588 658 OFFCURVE",
"619 528 OFFCURVE",
"583 350 CURVE SMOOTH",
"546 171 OFFCURVE",
"462 42 OFFCURVE",
"337 42 CURVE SMOOTH"
);
},
{
closed = 1;
nodes = (
"463 786 OFFCURVE",
"515 786 OFFCURVE",
"523 786 CURVE",
"553 822 OFFCURVE",
"653 900 OFFCURVE",
"701 929 CURVE",
"651 974 LINE",
"604 942 OFFCURVE",
"533 882 OFFCURVE",
"502 846 CURVE",
"501 846 OFFCURVE",
"499 846 OFFCURVE",
"498 846 CURVE",
"484 882 OFFCURVE",
"437 942 OFFCURVE",
"404 974 CURVE",
"335 929 LINE",
"372 900 OFFCURVE",
"438 822 OFFCURVE",
"454 786 CURVE"
);
}
);
width = 735;
}
);
leftKerningGroup = O;
note = Ocaron;
rightKerningGroup = O;
unicode = 01D1;
},
{
glyphname = Ocircumflex;
lastChange = "2015-10-27 13:18:36 +0000";
layers = (
{
layerId = "AD8C1534-DD1F-4D30-8D71-C3A36519B1B2";
name = "Bold Italic";
paths = (
{
closed = 1;
nodes = (
"543 -10 OFFCURVE",
"689 127 OFFCURVE",
"735 350 CURVE SMOOTH",
"780 572 OFFCURVE",
"690 710 OFFCURVE",
"473 710 CURVE SMOOTH",
"255 710 OFFCURVE",
"110 572 OFFCURVE",
"65 350 CURVE SMOOTH",
"19 127 OFFCURVE",
"108 -10 OFFCURVE",
"326 -10 CURVE SMOOTH"
);
},
{
closed = 1;
nodes = (
"211 42 OFFCURVE",
"181 171 OFFCURVE",
"218 350 CURVE SMOOTH",
"254 528 OFFCURVE",
"337 658 OFFCURVE",
"463 658 CURVE SMOOTH",
"588 658 OFFCURVE",
"619 528 OFFCURVE",
"583 350 CURVE SMOOTH",
"546 171 OFFCURVE",
"462 42 OFFCURVE",
"337 42 CURVE SMOOTH"
);
},
{
closed = 1;
nodes = (
"410 816 OFFCURVE",
"482 876 OFFCURVE",
"511 912 CURVE",
"512 912 OFFCURVE",
"514 912 OFFCURVE",
"515 912 CURVE",
"531 876 OFFCURVE",
"577 816 OFFCURVE",
"611 783 CURVE",
"680 829 LINE",
"643 857 OFFCURVE",
"576 936 OFFCURVE",
"560 972 CURVE",
"551 972 OFFCURVE",
"499 972 OFFCURVE",
"491 972 CURVE",
"461 936 OFFCURVE",
"363 857 OFFCURVE",
"314 829 CURVE",
"365 783 LINE"
);
}
);
width = 735;
}
);
leftKerningGroup = O;
note = Ocircumflex;
rightKerningGroup = O;
unicode = 00D4;
},
{
glyphname = Ocircumflexacute;
lastChange = "2015-10-27 13:18:36 +0000";
layers = (
{
layerId = "AD8C1534-DD1F-4D30-8D71-C3A36519B1B2";
name = "Bold Italic";
paths = (
{
closed = 1;
nodes = (
"543 -10 OFFCURVE",
"689 127 OFFCURVE",
"735 350 CURVE SMOOTH",
"780 572 OFFCURVE",
"690 710 OFFCURVE",
"473 710 CURVE SMOOTH",
"255 710 OFFCURVE",
"110 572 OFFCURVE",
"65 350 CURVE SMOOTH",
"19 127 OFFCURVE",
"108 -10 OFFCURVE",
"326 -10 CURVE SMOOTH"
);
},
{
closed = 1;
nodes = (
"211 42 OFFCURVE",
"181 171 OFFCURVE",
"218 350 CURVE SMOOTH",
"254 528 OFFCURVE",
"337 658 OFFCURVE",
"463 658 CURVE SMOOTH",
"588 658 OFFCURVE",
"619 528 OFFCURVE",
"583 350 CURVE SMOOTH",
"546 171 OFFCURVE",
"462 42 OFFCURVE",
"337 42 CURVE SMOOTH"
);
},
{
closed = 1;
nodes = (
"411 816 OFFCURVE",
"482 876 OFFCURVE",
"512 912 CURVE",
"516 912 LINE",
"532 876 OFFCURVE",
"578 816 OFFCURVE",
"611 783 CURVE",
"680 829 LINE",
"643 857 OFFCURVE",
"577 936 OFFCURVE",
"561 972 CURVE",
"492 972 LINE",
"462 936 OFFCURVE",
"362 857 OFFCURVE",
"314 829 CURVE",
"365 783 LINE"
);
},
{
closed = 1;
nodes = (
"766 976 LINE SMOOTH",
"808 996 OFFCURVE",
"835 1021 OFFCURVE",
"840 1045 CURVE SMOOTH",
"844 1064 OFFCURVE",
"833 1085 OFFCURVE",
"804 1085 CURVE SMOOTH",
"780 1085 OFFCURVE",
"752 1066 OFFCURVE",
"726 1041 CURVE SMOOTH",
"636 953 LINE",
"653 922 LINE"
);
}
);
width = 735;
}
);
leftKerningGroup = O;
note = Ocircumflexacute;
rightKerningGroup = O;
unicode = 1ED0;
},
{
glyphname = Ocircumflexdotbelow;
lastChange = "2015-10-27 13:18:36 +0000";
layers = (
{
layerId = "AD8C1534-DD1F-4D30-8D71-C3A36519B1B2";
name = "Bold Italic";
paths = (
{
closed = 1;
nodes = (
"543 -10 OFFCURVE",
"689 127 OFFCURVE",
"735 350 CURVE SMOOTH",
"780 572 OFFCURVE",
"690 710 OFFCURVE",
"473 710 CURVE SMOOTH",
"255 710 OFFCURVE",
"110 572 OFFCURVE",
"65 350 CURVE SMOOTH",
"19 127 OFFCURVE",
"108 -10 OFFCURVE",
"326 -10 CURVE SMOOTH"
);
},
{
closed = 1;
nodes = (
"329 -178 OFFCURVE",
"357 -151 OFFCURVE",
"365 -116 CURVE SMOOTH",
"372 -81 OFFCURVE",
"354 -54 OFFCURVE",
"318 -54 CURVE SMOOTH",
"282 -54 OFFCURVE",
"253 -81 OFFCURVE",
"247 -116 CURVE SMOOTH",
"239 -151 OFFCURVE",
"257 -178 OFFCURVE",
"293 -178 CURVE SMOOTH"
);
},
{
closed = 1;
nodes = (
"211 42 OFFCURVE",
"181 171 OFFCURVE",
"218 350 CURVE SMOOTH",
"254 528 OFFCURVE",
"337 658 OFFCURVE",
"463 658 CURVE SMOOTH",
"588 658 OFFCURVE",
"619 528 OFFCURVE",
"583 350 CURVE SMOOTH",
"546 171 OFFCURVE",
"462 42 OFFCURVE",
"337 42 CURVE SMOOTH"
);
},
{
closed = 1;
nodes = (
"410 816 OFFCURVE",
"482 876 OFFCURVE",
"511 912 CURVE",
"512 912 OFFCURVE",
"514 912 OFFCURVE",
"515 912 CURVE",
"531 876 OFFCURVE",
"577 816 OFFCURVE",
"611 783 CURVE",
"680 829 LINE",
"643 857 OFFCURVE",
"576 936 OFFCURVE",
"560 972 CURVE",
"551 972 OFFCURVE",
"499 972 OFFCURVE",
"491 972 CURVE",
"461 936 OFFCURVE",
"363 857 OFFCURVE",
"314 829 CURVE",
"365 783 LINE"
);
}
);
width = 735;
}
);
leftKerningGroup = O;
note = Ocircumflexdotbelow;
rightKerningGroup = O;
unicode = 1ED8;
},
{
glyphname = Ocircumflexgrave;
lastChange = "2015-10-27 13:18:36 +0000";
layers = (
{
layerId = "AD8C1534-DD1F-4D30-8D71-C3A36519B1B2";
name = "Bold Italic";
paths = (
{
closed = 1;
nodes = (
"543 -10 OFFCURVE",
"689 127 OFFCURVE",
"735 350 CURVE SMOOTH",
"780 572 OFFCURVE",
"690 710 OFFCURVE",
"473 710 CURVE SMOOTH",
"255 710 OFFCURVE",
"110 572 OFFCURVE",
"65 350 CURVE SMOOTH",
"19 127 OFFCURVE",
"108 -10 OFFCURVE",
"326 -10 CURVE SMOOTH"
);
},
{
closed = 1;
nodes = (
"211 42 OFFCURVE",
"181 171 OFFCURVE",
"218 350 CURVE SMOOTH",
"254 528 OFFCURVE",
"337 658 OFFCURVE",
"463 658 CURVE SMOOTH",
"588 658 OFFCURVE",
"619 528 OFFCURVE",
"583 350 CURVE SMOOTH",
"546 171 OFFCURVE",
"462 42 OFFCURVE",
"337 42 CURVE SMOOTH"
);
},
{
closed = 1;
nodes = (
"408 953 LINE",
"354 1041 LINE SMOOTH",
"338 1066 OFFCURVE",
"318 1085 OFFCURVE",
"293 1085 CURVE SMOOTH",
"264 1085 OFFCURVE",
"246 1064 OFFCURVE",
"242 1045 CURVE SMOOTH",
"237 1021 OFFCURVE",
"252 996 OFFCURVE",
"287 976 CURVE SMOOTH",
"379 922 LINE"
);
},
{
closed = 1;
nodes = (
"411 816 OFFCURVE",
"482 876 OFFCURVE",
"512 912 CURVE",
"516 912 LINE",
"532 876 OFFCURVE",
"578 816 OFFCURVE",
"611 783 CURVE",
"680 829 LINE",
"643 857 OFFCURVE",
"577 936 OFFCURVE",
"561 972 CURVE",
"492 972 LINE",
"462 936 OFFCURVE",
"362 857 OFFCURVE",
"314 829 CURVE",
"365 783 LINE"
);
}
);
width = 735;
}
);
leftKerningGroup = O;
note = Ocircumflexgrave;
rightKerningGroup = O;
unicode = 1ED2;
},
{
glyphname = Ocircumflexhookabove;
lastChange = "2015-10-27 13:18:36 +0000";
layers = (
{
layerId = "AD8C1534-DD1F-4D30-8D71-C3A36519B1B2";
name = "Bold Italic";
paths = (
{
closed = 1;
nodes = (
"543 -10 OFFCURVE",
"689 127 OFFCURVE",
"735 350 CURVE SMOOTH",
"780 572 OFFCURVE",
"690 710 OFFCURVE",
"473 710 CURVE SMOOTH",
"255 710 OFFCURVE",
"110 572 OFFCURVE",
"65 350 CURVE SMOOTH",
"19 127 OFFCURVE",
"108 -10 OFFCURVE",
"326 -10 CURVE SMOOTH"
);
},
{
closed = 1;
nodes = (
"211 42 OFFCURVE",
"181 171 OFFCURVE",
"218 350 CURVE SMOOTH",
"254 528 OFFCURVE",
"337 658 OFFCURVE",
"463 658 CURVE SMOOTH",
"588 658 OFFCURVE",
"619 528 OFFCURVE",
"583 350 CURVE SMOOTH",
"546 171 OFFCURVE",
"462 42 OFFCURVE",
"337 42 CURVE SMOOTH"
);
},
{
closed = 1;
nodes = (
"412 818 OFFCURVE",
"483 878 OFFCURVE",
"513 914 CURVE",
"516 914 LINE",
"533 878 OFFCURVE",
"579 818 OFFCURVE",
"612 785 CURVE",
"681 831 LINE",
"644 859 OFFCURVE",
"578 938 OFFCURVE",
"562 974 CURVE",
"492 974 LINE",
"463 938 OFFCURVE",
"363 859 OFFCURVE",
"315 831 CURVE",
"366 785 LINE"
);
},
{
closed = 1;
nodes = (
"686 935 LINE",
"705 983 LINE",
"751 987 OFFCURVE",
"789 1005 OFFCURVE",
"800 1058 CURVE SMOOTH",
"811 1116 OFFCURVE",
"765 1138 OFFCURVE",
"714 1138 CURVE SMOOTH",
"686 1138 OFFCURVE",
"659 1131 OFFCURVE",
"639 1123 CURVE",
"637 1087 LINE",
"656 1095 OFFCURVE",
"677 1099 OFFCURVE",
"692 1099 CURVE SMOOTH",
"727 1099 OFFCURVE",
"740 1081 OFFCURVE",
"735 1059 CURVE SMOOTH",
"729 1026 OFFCURVE",
"702 1014 OFFCURVE",
"678 1014 CURVE SMOOTH",
"646 1014 LINE",
"635 935 LINE"
);
}
);
width = 735;
}
);
leftKerningGroup = O;
note = Ocircumflexhookabove;
rightKerningGroup = O;
unicode = 1ED4;
},
{
glyphname = Ocircumflextilde;
lastChange = "2015-10-27 13:18:36 +0000";
layers = (
{
layerId = "AD8C1534-DD1F-4D30-8D71-C3A36519B1B2";
name = "Bold Italic";
paths = (
{
closed = 1;
nodes = (
"543 -10 OFFCURVE",
"689 127 OFFCURVE",
"735 350 CURVE SMOOTH",
"780 572 OFFCURVE",
"690 710 OFFCURVE",
"473 710 CURVE SMOOTH",
"255 710 OFFCURVE",
"110 572 OFFCURVE",
"65 350 CURVE SMOOTH",
"19 127 OFFCURVE",
"108 -10 OFFCURVE",
"326 -10 CURVE SMOOTH"
);
},
{
closed = 1;
nodes = (
"211 42 OFFCURVE",
"181 171 OFFCURVE",
"218 350 CURVE SMOOTH",
"254 528 OFFCURVE",
"337 658 OFFCURVE",
"463 658 CURVE SMOOTH",
"588 658 OFFCURVE",
"619 528 OFFCURVE",
"583 350 CURVE SMOOTH",
"546 171 OFFCURVE",
"462 42 OFFCURVE",
"337 42 CURVE SMOOTH"
);
},
{
closed = 1;
nodes = (
"411 816 OFFCURVE",
"482 876 OFFCURVE",
"512 912 CURVE",
"516 912 LINE",
"532 876 OFFCURVE",
"578 816 OFFCURVE",
"611 783 CURVE",
"680 829 LINE",
"643 857 OFFCURVE",
"577 936 OFFCURVE",
"561 972 CURVE",
"492 972 LINE",
"462 936 OFFCURVE",
"362 857 OFFCURVE",
"314 829 CURVE",
"365 783 LINE"
);
},
{
closed = 1;
nodes = (
"408 1004 LINE",
"420 1036 OFFCURVE",
"448 1056 OFFCURVE",
"479 1056 CURVE SMOOTH",
"522 1056 OFFCURVE",
"550 1005 OFFCURVE",
"606 1005 CURVE SMOOTH",
"677 1005 OFFCURVE",
"722 1051 OFFCURVE",
"744 1121 CURVE",
"695 1121 LINE",
"675 1076 OFFCURVE",
"639 1067 OFFCURVE",
"617 1067 CURVE SMOOTH",
"579 1067 OFFCURVE",
"563 1118 OFFCURVE",
"495 1118 CURVE SMOOTH",
"431 1118 OFFCURVE",
"383 1080 OFFCURVE",
"358 1004 CURVE"
);
}
);
width = 735;
}
);
leftKerningGroup = O;
note = Ocircumflextilde;
rightKerningGroup = O;
unicode = 1ED6;
},
{
glyphname = Odieresis;
lastChange = "2015-10-27 13:18:36 +0000";
layers = (
{
layerId = "AD8C1534-DD1F-4D30-8D71-C3A36519B1B2";
name = "Bold Italic";
paths = (
{
closed = 1;
nodes = (
"543 -10 OFFCURVE",
"689 127 OFFCURVE",
"735 350 CURVE SMOOTH",
"780 572 OFFCURVE",
"690 710 OFFCURVE",
"473 710 CURVE SMOOTH",
"255 710 OFFCURVE",
"110 572 OFFCURVE",
"65 350 CURVE SMOOTH",
"19 127 OFFCURVE",
"108 -10 OFFCURVE",
"326 -10 CURVE SMOOTH"
);
},
{
closed = 1;
nodes = (
"211 42 OFFCURVE",
"181 171 OFFCURVE",
"218 350 CURVE SMOOTH",
"254 528 OFFCURVE",
"337 658 OFFCURVE",
"463 658 CURVE SMOOTH",
"588 658 OFFCURVE",
"619 528 OFFCURVE",
"583 350 CURVE SMOOTH",
"546 171 OFFCURVE",
"462 42 OFFCURVE",
"337 42 CURVE SMOOTH"
);
},
{
closed = 1;
nodes = (
"408 785 OFFCURVE",
"437 812 OFFCURVE",
"444 847 CURVE SMOOTH",
"451 882 OFFCURVE",
"434 909 OFFCURVE",
"397 909 CURVE SMOOTH",
"363 909 OFFCURVE",
"334 882 OFFCURVE",
"327 847 CURVE SMOOTH",
"320 812 OFFCURVE",
"337 785 OFFCURVE",
"372 785 CURVE SMOOTH"
);
},
{
closed = 1;
nodes = (
"638 785 OFFCURVE",
"667 812 OFFCURVE",
"675 847 CURVE SMOOTH",
"682 882 OFFCURVE",
"664 909 OFFCURVE",
"628 909 CURVE SMOOTH",
"591 909 OFFCURVE",
"564 882 OFFCURVE",
"557 847 CURVE SMOOTH",
"549 812 OFFCURVE",
"565 785 OFFCURVE",
"602 785 CURVE SMOOTH"
);
}
);
width = 735;
}
);
leftKerningGroup = O;
note = Odieresis;
rightKerningGroup = O;
unicode = 00D6;
},
{
glyphname = Odotbelow;
lastChange = "2015-10-27 13:18:36 +0000";
layers = (
{
layerId = "AD8C1534-DD1F-4D30-8D71-C3A36519B1B2";
name = "Bold Italic";
paths = (
{
closed = 1;
nodes = (
"543 -10 OFFCURVE",
"689 127 OFFCURVE",
"735 350 CURVE SMOOTH",
"780 572 OFFCURVE",
"690 710 OFFCURVE",
"473 710 CURVE SMOOTH",
"255 710 OFFCURVE",
"110 572 OFFCURVE",
"65 350 CURVE SMOOTH",
"19 127 OFFCURVE",
"108 -10 OFFCURVE",
"326 -10 CURVE SMOOTH"
);
},
{
closed = 1;
nodes = (
"329 -178 OFFCURVE",
"357 -151 OFFCURVE",
"365 -116 CURVE SMOOTH",
"372 -81 OFFCURVE",
"354 -54 OFFCURVE",
"318 -54 CURVE SMOOTH",
"282 -54 OFFCURVE",
"253 -81 OFFCURVE",
"247 -116 CURVE SMOOTH",
"239 -151 OFFCURVE",
"257 -178 OFFCURVE",
"293 -178 CURVE SMOOTH"
);
},
{
closed = 1;
nodes = (
"211 42 OFFCURVE",
"181 171 OFFCURVE",
"218 350 CURVE SMOOTH",
"254 528 OFFCURVE",
"337 658 OFFCURVE",
"463 658 CURVE SMOOTH",
"588 658 OFFCURVE",
"619 528 OFFCURVE",
"583 350 CURVE SMOOTH",
"546 171 OFFCURVE",
"462 42 OFFCURVE",
"337 42 CURVE SMOOTH"
);
}
);
width = 735;
}
);
leftKerningGroup = O;
note = Odotbelow;
rightKerningGroup = O;
unicode = 1ECC;
},
{
glyphname = Ograve;
lastChange = "2015-10-27 13:18:36 +0000";
layers = (
{
layerId = "AD8C1534-DD1F-4D30-8D71-C3A36519B1B2";
name = "Bold Italic";
paths = (
{
closed = 1;
nodes = (
"543 -10 OFFCURVE",
"689 127 OFFCURVE",
"735 350 CURVE SMOOTH",
"780 572 OFFCURVE",
"690 710 OFFCURVE",
"473 710 CURVE SMOOTH",
"255 710 OFFCURVE",
"110 572 OFFCURVE",
"65 350 CURVE SMOOTH",
"19 127 OFFCURVE",
"108 -10 OFFCURVE",
"326 -10 CURVE SMOOTH"
);
},
{
closed = 1;
nodes = (
"211 42 OFFCURVE",
"181 171 OFFCURVE",
"218 350 CURVE SMOOTH",
"254 528 OFFCURVE",
"337 658 OFFCURVE",
"463 658 CURVE SMOOTH",
"588 658 OFFCURVE",
"619 528 OFFCURVE",
"583 350 CURVE SMOOTH",
"546 171 OFFCURVE",
"462 42 OFFCURVE",
"337 42 CURVE SMOOTH"
);
},
{
closed = 1;
nodes = (
"601 821 LINE",
"509 948 LINE",
"505 955 OFFCURVE",
"487 982 OFFCURVE",
"455 982 CURVE SMOOTH",
"421 982 OFFCURVE",
"403 959 OFFCURVE",
"399 940 CURVE SMOOTH",
"395 916 OFFCURVE",
"408 898 OFFCURVE",
"435 879 CURVE SMOOTH",
"570 786 LINE"
);
}
);
width = 735;
}
);
leftKerningGroup = O;
note = Ograve;
rightKerningGroup = O;
unicode = 00D2;
},
{
glyphname = Ohookabove;
lastChange = "2015-10-27 13:18:36 +0000";
layers = (
{
layerId = "AD8C1534-DD1F-4D30-8D71-C3A36519B1B2";
name = "Bold Italic";
paths = (
{
closed = 1;
nodes = (
"543 -10 OFFCURVE",
"689 127 OFFCURVE",
"735 350 CURVE SMOOTH",
"780 572 OFFCURVE",
"690 710 OFFCURVE",
"473 710 CURVE SMOOTH",
"255 710 OFFCURVE",
"110 572 OFFCURVE",
"65 350 CURVE SMOOTH",
"19 127 OFFCURVE",
"108 -10 OFFCURVE",
"326 -10 CURVE SMOOTH"
);
},
{
closed = 1;
nodes = (
"211 42 OFFCURVE",
"181 171 OFFCURVE",
"218 350 CURVE SMOOTH",
"254 528 OFFCURVE",
"337 658 OFFCURVE",
"463 658 CURVE SMOOTH",
"588 658 OFFCURVE",
"619 528 OFFCURVE",
"583 350 CURVE SMOOTH",
"546 171 OFFCURVE",
"462 42 OFFCURVE",
"337 42 CURVE SMOOTH"
);
},
{
closed = 1;
nodes = (
"521 783 LINE",
"545 852 LINE",
"598 857 OFFCURVE",
"642 878 OFFCURVE",
"654 938 CURVE SMOOTH",
"667 1004 OFFCURVE",
"614 1029 OFFCURVE",
"557 1029 CURVE SMOOTH",
"525 1029 OFFCURVE",
"492 1021 OFFCURVE",
"470 1011 CURVE",
"469 972 LINE",
"492 984 OFFCURVE",
"515 988 OFFCURVE",
"532 988 CURVE SMOOTH",
"571 988 OFFCURVE",
"587 965 OFFCURVE",
"582 939 CURVE SMOOTH",
"574 901 OFFCURVE",
"542 887 OFFCURVE",
"516 887 CURVE SMOOTH",
"479 887 LINE",
"462 783 LINE"
);
}
);
width = 735;
}
);
leftKerningGroup = O;
note = Ohookabove;
rightKerningGroup = O;
unicode = 1ECE;
},
{
glyphname = Ohorn;
lastChange = "2015-10-27 13:18:36 +0000";
layers = (
{
layerId = "AD8C1534-DD1F-4D30-8D71-C3A36519B1B2";
name = "Bold Italic";
paths = (
{
closed = 1;
nodes = (
"543 -10 OFFCURVE",
"689 127 OFFCURVE",
"735 350 CURVE SMOOTH",
"780 572 OFFCURVE",
"690 710 OFFCURVE",
"473 710 CURVE SMOOTH",
"255 710 OFFCURVE",
"110 572 OFFCURVE",
"65 350 CURVE SMOOTH",
"19 127 OFFCURVE",
"108 -10 OFFCURVE",
"326 -10 CURVE SMOOTH"
);
},
{
closed = 1;
nodes = (
"211 42 OFFCURVE",
"181 171 OFFCURVE",
"218 350 CURVE SMOOTH",
"254 528 OFFCURVE",
"337 658 OFFCURVE",
"463 658 CURVE SMOOTH",
"588 658 OFFCURVE",
"619 528 OFFCURVE",
"583 350 CURVE SMOOTH",
"546 171 OFFCURVE",
"462 42 OFFCURVE",
"337 42 CURVE SMOOTH"
);
},
{
closed = 1;
nodes = (
"836 538 OFFCURVE",
"888 605 OFFCURVE",
"899 658 CURVE SMOOTH",
"905 688 OFFCURVE",
"910 741 OFFCURVE",
"840 741 CURVE SMOOTH",
"783 741 OFFCURVE",
"762 703 OFFCURVE",
"756 675 CURVE SMOOTH",
"748 636 OFFCURVE",
"766 612 OFFCURVE",
"802 612 CURVE SMOOTH",
"806 612 OFFCURVE",
"812 613 OFFCURVE",
"818 615 CURVE",
"797 566 OFFCURVE",
"727 519 OFFCURVE",
"702 503 CURVE",
"723 467 LINE"
);
}
);
width = 780;
}
);
leftKerningGroup = O;
note = Ohorn;
rightKerningGroup = O;
unicode = 01A0;
},
{
glyphname = Ohornacute;
lastChange = "2015-10-27 13:18:36 +0000";
layers = (
{
layerId = "AD8C1534-DD1F-4D30-8D71-C3A36519B1B2";
name = "Bold Italic";
paths = (
{
closed = 1;
nodes = (
"543 -10 OFFCURVE",
"689 127 OFFCURVE",
"735 350 CURVE SMOOTH",
"780 572 OFFCURVE",
"690 710 OFFCURVE",
"473 710 CURVE SMOOTH",
"255 710 OFFCURVE",
"110 572 OFFCURVE",
"65 350 CURVE SMOOTH",
"19 127 OFFCURVE",
"108 -10 OFFCURVE",
"326 -10 CURVE SMOOTH"
);
},
{
closed = 1;
nodes = (
"211 42 OFFCURVE",
"181 171 OFFCURVE",
"218 350 CURVE SMOOTH",
"254 528 OFFCURVE",
"337 658 OFFCURVE",
"463 658 CURVE SMOOTH",
"588 658 OFFCURVE",
"619 528 OFFCURVE",
"583 350 CURVE SMOOTH",
"546 171 OFFCURVE",
"462 42 OFFCURVE",
"337 42 CURVE SMOOTH"
);
},
{
closed = 1;
nodes = (
"580 878 LINE SMOOTH",
"614 897 OFFCURVE",
"635 915 OFFCURVE",
"639 939 CURVE SMOOTH",
"643 958 OFFCURVE",
"634 981 OFFCURVE",
"602 981 CURVE SMOOTH",
"569 981 OFFCURVE",
"540 953 OFFCURVE",
"534 946 CURVE",
"391 820 LINE",
"408 785 LINE"
);
},
{
closed = 1;
nodes = (
"836 538 OFFCURVE",
"888 605 OFFCURVE",
"899 658 CURVE SMOOTH",
"905 688 OFFCURVE",
"910 741 OFFCURVE",
"840 741 CURVE SMOOTH",
"783 741 OFFCURVE",
"762 703 OFFCURVE",
"756 675 CURVE SMOOTH",
"748 636 OFFCURVE",
"766 612 OFFCURVE",
"802 612 CURVE SMOOTH",
"806 612 OFFCURVE",
"812 613 OFFCURVE",
"818 615 CURVE",
"797 566 OFFCURVE",
"727 519 OFFCURVE",
"702 503 CURVE",
"723 467 LINE"
);
}
);
width = 780;
}
);
leftKerningGroup = O;
note = Ohornacute;
rightKerningGroup = O;
unicode = 1EDA;
},
{
glyphname = Ohorndotbelow;
lastChange = "2015-10-27 13:18:36 +0000";
layers = (
{
layerId = "AD8C1534-DD1F-4D30-8D71-C3A36519B1B2";
name = "Bold Italic";
paths = (
{
closed = 1;
nodes = (
"543 -10 OFFCURVE",
"689 127 OFFCURVE",
"735 350 CURVE SMOOTH",
"780 572 OFFCURVE",
"690 710 OFFCURVE",
"473 710 CURVE SMOOTH",
"255 710 OFFCURVE",
"110 572 OFFCURVE",
"65 350 CURVE SMOOTH",
"19 127 OFFCURVE",
"108 -10 OFFCURVE",
"326 -10 CURVE SMOOTH"
);
},
{
closed = 1;
nodes = (
"329 -178 OFFCURVE",
"357 -151 OFFCURVE",
"365 -116 CURVE SMOOTH",
"372 -81 OFFCURVE",
"354 -54 OFFCURVE",
"318 -54 CURVE SMOOTH",
"282 -54 OFFCURVE",
"253 -81 OFFCURVE",
"247 -116 CURVE SMOOTH",
"239 -151 OFFCURVE",
"257 -178 OFFCURVE",
"293 -178 CURVE SMOOTH"
);
},
{
closed = 1;
nodes = (
"211 42 OFFCURVE",
"181 171 OFFCURVE",
"218 350 CURVE SMOOTH",
"254 528 OFFCURVE",
"337 658 OFFCURVE",
"463 658 CURVE SMOOTH",
"588 658 OFFCURVE",
"619 528 OFFCURVE",
"583 350 CURVE SMOOTH",
"546 171 OFFCURVE",
"462 42 OFFCURVE",
"337 42 CURVE SMOOTH"
);
},
{
closed = 1;
nodes = (
"836 538 OFFCURVE",
"888 605 OFFCURVE",
"899 658 CURVE SMOOTH",
"905 688 OFFCURVE",
"910 741 OFFCURVE",
"840 741 CURVE SMOOTH",
"783 741 OFFCURVE",
"762 703 OFFCURVE",
"756 675 CURVE SMOOTH",
"748 636 OFFCURVE",
"766 612 OFFCURVE",
"802 612 CURVE SMOOTH",
"806 612 OFFCURVE",
"812 613 OFFCURVE",
"818 615 CURVE",
"797 566 OFFCURVE",
"727 519 OFFCURVE",
"702 503 CURVE",
"723 467 LINE"
);
}
);
width = 780;
}
);
leftKerningGroup = O;
note = Ohorndotbelow;
rightKerningGroup = O;
unicode = 1EE2;
},
{
glyphname = Ohorngrave;
lastChange = "2015-10-27 13:18:36 +0000";
layers = (
{
layerId = "AD8C1534-DD1F-4D30-8D71-C3A36519B1B2";
name = "Bold Italic";
paths = (
{
closed = 1;
nodes = (
"543 -10 OFFCURVE",
"689 127 OFFCURVE",
"735 350 CURVE SMOOTH",
"780 572 OFFCURVE",
"690 710 OFFCURVE",
"473 710 CURVE SMOOTH",
"255 710 OFFCURVE",
"110 572 OFFCURVE",
"65 350 CURVE SMOOTH",
"19 127 OFFCURVE",
"108 -10 OFFCURVE",
"326 -10 CURVE SMOOTH"
);
},
{
closed = 1;
nodes = (
"211 42 OFFCURVE",
"181 171 OFFCURVE",
"218 350 CURVE SMOOTH",
"254 528 OFFCURVE",
"337 658 OFFCURVE",
"463 658 CURVE SMOOTH",
"588 658 OFFCURVE",
"619 528 OFFCURVE",
"583 350 CURVE SMOOTH",
"546 171 OFFCURVE",
"462 42 OFFCURVE",
"337 42 CURVE SMOOTH"
);
},
{
closed = 1;
nodes = (
"602 820 LINE",
"510 947 LINE",
"506 954 OFFCURVE",
"488 981 OFFCURVE",
"456 981 CURVE SMOOTH",
"422 981 OFFCURVE",
"404 958 OFFCURVE",
"400 939 CURVE SMOOTH",
"396 915 OFFCURVE",
"409 897 OFFCURVE",
"436 878 CURVE SMOOTH",
"571 785 LINE"
);
},
{
closed = 1;
nodes = (
"836 538 OFFCURVE",
"888 605 OFFCURVE",
"899 658 CURVE SMOOTH",
"905 688 OFFCURVE",
"910 741 OFFCURVE",
"840 741 CURVE SMOOTH",
"783 741 OFFCURVE",
"762 703 OFFCURVE",
"756 675 CURVE SMOOTH",
"748 636 OFFCURVE",
"766 612 OFFCURVE",
"802 612 CURVE SMOOTH",
"806 612 OFFCURVE",
"812 613 OFFCURVE",
"818 615 CURVE",
"797 566 OFFCURVE",
"727 519 OFFCURVE",
"702 503 CURVE",
"723 467 LINE"
);
}
);
width = 780;
}
);
leftKerningGroup = O;
note = Ohorngrave;
rightKerningGroup = O;
unicode = 1EDC;
},
{
glyphname = Ohornhookabove;
lastChange = "2015-10-27 13:18:36 +0000";
layers = (
{
layerId = "AD8C1534-DD1F-4D30-8D71-C3A36519B1B2";
name = "Bold Italic";
paths = (
{
closed = 1;
nodes = (
"543 -10 OFFCURVE",
"689 127 OFFCURVE",
"735 350 CURVE SMOOTH",
"780 572 OFFCURVE",
"690 710 OFFCURVE",
"473 710 CURVE SMOOTH",
"255 710 OFFCURVE",
"110 572 OFFCURVE",
"65 350 CURVE SMOOTH",
"19 127 OFFCURVE",
"108 -10 OFFCURVE",
"326 -10 CURVE SMOOTH"
);
},
{
closed = 1;
nodes = (
"211 42 OFFCURVE",
"181 171 OFFCURVE",
"218 350 CURVE SMOOTH",
"254 528 OFFCURVE",
"337 658 OFFCURVE",
"463 658 CURVE SMOOTH",
"588 658 OFFCURVE",
"619 528 OFFCURVE",
"583 350 CURVE SMOOTH",
"546 171 OFFCURVE",
"462 42 OFFCURVE",
"337 42 CURVE SMOOTH"
);
},
{
closed = 1;
nodes = (
"836 538 OFFCURVE",
"888 605 OFFCURVE",
"899 658 CURVE SMOOTH",
"905 688 OFFCURVE",
"910 741 OFFCURVE",
"840 741 CURVE SMOOTH",
"783 741 OFFCURVE",
"762 703 OFFCURVE",
"756 675 CURVE SMOOTH",
"748 636 OFFCURVE",
"766 612 OFFCURVE",
"802 612 CURVE SMOOTH",
"806 612 OFFCURVE",
"812 613 OFFCURVE",
"818 615 CURVE",
"797 566 OFFCURVE",
"727 519 OFFCURVE",
"702 503 CURVE",
"723 467 LINE"
);
},
{
closed = 1;
nodes = (
"514 780 LINE",
"538 849 LINE",
"590 854 OFFCURVE",
"635 875 OFFCURVE",
"646 935 CURVE SMOOTH",
"660 1001 OFFCURVE",
"607 1026 OFFCURVE",
"549 1026 CURVE SMOOTH",
"517 1026 OFFCURVE",
"485 1018 OFFCURVE",
"463 1008 CURVE",
"462 969 LINE",
"484 981 OFFCURVE",
"507 985 OFFCURVE",
"524 985 CURVE SMOOTH",
"564 985 OFFCURVE",
"579 962 OFFCURVE",
"574 936 CURVE SMOOTH",
"566 898 OFFCURVE",
"535 884 OFFCURVE",
"508 884 CURVE SMOOTH",
"471 884 LINE",
"454 780 LINE"
);
}
);
width = 780;
}
);
leftKerningGroup = O;
note = Ohornhookabove;
rightKerningGroup = O;
unicode = 1EDE;
},
{
glyphname = Ohorntilde;
lastChange = "2015-10-27 13:18:36 +0000";
layers = (
{
layerId = "AD8C1534-DD1F-4D30-8D71-C3A36519B1B2";
name = "Bold Italic";
paths = (
{
closed = 1;
nodes = (
"543 -10 OFFCURVE",
"689 127 OFFCURVE",
"735 350 CURVE SMOOTH",
"780 572 OFFCURVE",
"690 710 OFFCURVE",
"473 710 CURVE SMOOTH",
"255 710 OFFCURVE",
"110 572 OFFCURVE",
"65 350 CURVE SMOOTH",
"19 127 OFFCURVE",
"108 -10 OFFCURVE",
"326 -10 CURVE SMOOTH"
);
},
{
closed = 1;
nodes = (
"211 42 OFFCURVE",
"181 171 OFFCURVE",
"218 350 CURVE SMOOTH",
"254 528 OFFCURVE",
"337 658 OFFCURVE",
"463 658 CURVE SMOOTH",
"588 658 OFFCURVE",
"619 528 OFFCURVE",
"583 350 CURVE SMOOTH",
"546 171 OFFCURVE",
"462 42 OFFCURVE",
"337 42 CURVE SMOOTH"
);
},
{
closed = 1;
nodes = (
"361 786 LINE",
"372 818 OFFCURVE",
"397 839 OFFCURVE",
"426 839 CURVE SMOOTH",
"461 839 OFFCURVE",
"511 786 OFFCURVE",
"567 786 CURVE SMOOTH",
"641 786 OFFCURVE",
"685 834 OFFCURVE",
"707 905 CURVE",
"645 905 LINE",
"625 859 OFFCURVE",
"599 851 OFFCURVE",
"575 851 CURVE SMOOTH",
"536 851 OFFCURVE",
"507 903 OFFCURVE",
"438 903 CURVE SMOOTH",
"372 903 OFFCURVE",
"323 863 OFFCURVE",
"297 786 CURVE"
);
},
{
closed = 1;
nodes = (
"836 538 OFFCURVE",
"888 605 OFFCURVE",
"899 658 CURVE SMOOTH",
"905 688 OFFCURVE",
"910 741 OFFCURVE",
"840 741 CURVE SMOOTH",
"783 741 OFFCURVE",
"762 703 OFFCURVE",
"756 675 CURVE SMOOTH",
"748 636 OFFCURVE",
"766 612 OFFCURVE",
"802 612 CURVE SMOOTH",
"806 612 OFFCURVE",
"812 613 OFFCURVE",
"818 615 CURVE",
"797 566 OFFCURVE",
"727 519 OFFCURVE",
"702 503 CURVE",
"723 467 LINE"
);
}
);
width = 780;
}
);
leftKerningGroup = O;
note = Ohorntilde;
rightKerningGroup = O;
unicode = 1EE0;
},
{
glyphname = Ohungarumlaut;
lastChange = "2015-10-27 13:18:35 +0000";
layers = (
{
layerId = "AD8C1534-DD1F-4D30-8D71-C3A36519B1B2";
name = "Bold Italic";
paths = (
{
closed = 1;
nodes = (
"543 -10 OFFCURVE",
"689 127 OFFCURVE",
"735 350 CURVE SMOOTH",
"780 572 OFFCURVE",
"690 710 OFFCURVE",
"473 710 CURVE SMOOTH",
"255 710 OFFCURVE",
"110 572 OFFCURVE",
"65 350 CURVE SMOOTH",
"19 127 OFFCURVE",
"108 -10 OFFCURVE",
"326 -10 CURVE SMOOTH"
);
},
{
closed = 1;
nodes = (
"211 42 OFFCURVE",
"181 171 OFFCURVE",
"218 350 CURVE SMOOTH",
"254 528 OFFCURVE",
"337 658 OFFCURVE",
"463 658 CURVE SMOOTH",
"588 658 OFFCURVE",
"619 528 OFFCURVE",
"583 350 CURVE SMOOTH",
"546 171 OFFCURVE",
"462 42 OFFCURVE",
"337 42 CURVE SMOOTH"
);
},
{
closed = 1;
nodes = (
"512 877 LINE SMOOTH",
"546 896 OFFCURVE",
"567 915 OFFCURVE",
"572 939 CURVE SMOOTH",
"576 957 OFFCURVE",
"566 980 OFFCURVE",
"533 980 CURVE SMOOTH",
"501 980 OFFCURVE",
"471 952 OFFCURVE",
"466 946 CURVE",
"324 820 LINE",
"340 784 LINE"
);
},
{
closed = 1;
nodes = (
"722 877 LINE SMOOTH",
"756 896 OFFCURVE",
"778 915 OFFCURVE",
"782 939 CURVE SMOOTH",
"786 957 OFFCURVE",
"778 980 OFFCURVE",
"744 980 CURVE SMOOTH",
"712 980 OFFCURVE",
"683 952 OFFCURVE",
"676 946 CURVE SMOOTH",
"533 820 LINE",
"549 784 LINE"
);
}
);
width = 735;
}
);
leftKerningGroup = O;
note = Ohungarumlaut;
rightKerningGroup = O;
unicode = 0150;
},
{
glyphname = Omacron;
lastChange = "2015-10-27 13:18:36 +0000";
layers = (
{
layerId = "AD8C1534-DD1F-4D30-8D71-C3A36519B1B2";
name = "Bold Italic";
paths = (
{
closed = 1;
nodes = (
"543 -10 OFFCURVE",
"689 127 OFFCURVE",
"735 350 CURVE SMOOTH",
"780 572 OFFCURVE",
"690 710 OFFCURVE",
"473 710 CURVE SMOOTH",
"255 710 OFFCURVE",
"110 572 OFFCURVE",
"65 350 CURVE SMOOTH",
"19 127 OFFCURVE",
"108 -10 OFFCURVE",
"326 -10 CURVE SMOOTH"
);
},
{
closed = 1;
nodes = (
"211 42 OFFCURVE",
"181 171 OFFCURVE",
"218 350 CURVE SMOOTH",
"254 528 OFFCURVE",
"337 658 OFFCURVE",
"463 658 CURVE SMOOTH",
"588 658 OFFCURVE",
"619 528 OFFCURVE",
"583 350 CURVE SMOOTH",
"546 171 OFFCURVE",
"462 42 OFFCURVE",
"337 42 CURVE SMOOTH"
);
},
{
closed = 1;
nodes = (
"676 790 LINE",
"685 838 LINE",
"312 838 LINE",
"302 790 LINE"
);
}
);
width = 735;
}
);
leftKerningGroup = O;
note = Omacron;
rightKerningGroup = O;
unicode = 014C;
},
{
glyphname = Oslash;
lastChange = "2015-10-27 13:18:36 +0000";
layers = (
{
layerId = "AD8C1534-DD1F-4D30-8D71-C3A36519B1B2";
name = "Bold Italic";
paths = (
{
closed = 1;
nodes = (
"764 692 LINE",
"729 725 LINE",
"16 -3 LINE",
"48 -36 LINE"
);
},
{
closed = 1;
nodes = (
"543 -10 OFFCURVE",
"689 127 OFFCURVE",
"735 350 CURVE SMOOTH",
"780 572 OFFCURVE",
"690 710 OFFCURVE",
"473 710 CURVE SMOOTH",
"255 710 OFFCURVE",
"110 572 OFFCURVE",
"65 350 CURVE SMOOTH",
"19 127 OFFCURVE",
"108 -10 OFFCURVE",
"326 -10 CURVE SMOOTH"
);
},
{
closed = 1;
nodes = (
"211 42 OFFCURVE",
"181 171 OFFCURVE",
"218 350 CURVE SMOOTH",
"254 528 OFFCURVE",
"337 658 OFFCURVE",
"463 658 CURVE SMOOTH",
"588 658 OFFCURVE",
"619 528 OFFCURVE",
"583 350 CURVE SMOOTH",
"546 171 OFFCURVE",
"462 42 OFFCURVE",
"337 42 CURVE SMOOTH"
);
}
);
width = 735;
}
);
leftKerningGroup = O;
note = Oslash;
rightKerningGroup = O;
unicode = 00D8;
},
{
glyphname = Oslashacute;
lastChange = "2015-10-27 13:18:36 +0000";
layers = (
{
layerId = "AD8C1534-DD1F-4D30-8D71-C3A36519B1B2";
name = "Bold Italic";
paths = (
{
closed = 1;
nodes = (
"764 692 LINE",
"729 725 LINE",
"16 -3 LINE",
"48 -36 LINE"
);
},
{
closed = 1;
nodes = (
"543 -10 OFFCURVE",
"689 127 OFFCURVE",
"735 350 CURVE SMOOTH",
"780 572 OFFCURVE",
"690 710 OFFCURVE",
"473 710 CURVE SMOOTH",
"255 710 OFFCURVE",
"110 572 OFFCURVE",
"65 350 CURVE SMOOTH",
"19 127 OFFCURVE",
"108 -10 OFFCURVE",
"326 -10 CURVE SMOOTH"
);
},
{
closed = 1;
nodes = (
"211 42 OFFCURVE",
"181 171 OFFCURVE",
"218 350 CURVE SMOOTH",
"254 528 OFFCURVE",
"337 658 OFFCURVE",
"463 658 CURVE SMOOTH",
"588 658 OFFCURVE",
"619 528 OFFCURVE",
"583 350 CURVE SMOOTH",
"546 171 OFFCURVE",
"462 42 OFFCURVE",
"337 42 CURVE SMOOTH"
);
},
{
closed = 1;
nodes = (
"584 879 LINE SMOOTH",
"618 898 OFFCURVE",
"638 916 OFFCURVE",
"643 940 CURVE SMOOTH",
"647 959 OFFCURVE",
"637 982 OFFCURVE",
"606 982 CURVE SMOOTH",
"573 982 OFFCURVE",
"544 954 OFFCURVE",
"538 947 CURVE",
"395 821 LINE",
"412 786 LINE"
);
}
);
width = 735;
}
);
leftKerningGroup = O;
note = Oslashacute;
rightKerningGroup = O;
unicode = 01FE;
},
{
glyphname = Otilde;
lastChange = "2015-10-27 13:18:36 +0000";
layers = (
{
layerId = "AD8C1534-DD1F-4D30-8D71-C3A36519B1B2";
name = "Bold Italic";
paths = (
{
closed = 1;
nodes = (
"543 -10 OFFCURVE",
"689 127 OFFCURVE",
"735 350 CURVE SMOOTH",
"780 572 OFFCURVE",
"690 710 OFFCURVE",
"473 710 CURVE SMOOTH",
"255 710 OFFCURVE",
"110 572 OFFCURVE",
"65 350 CURVE SMOOTH",
"19 127 OFFCURVE",
"108 -10 OFFCURVE",
"326 -10 CURVE SMOOTH"
);
},
{
closed = 1;
nodes = (
"211 42 OFFCURVE",
"181 171 OFFCURVE",
"218 350 CURVE SMOOTH",
"254 528 OFFCURVE",
"337 658 OFFCURVE",
"463 658 CURVE SMOOTH",
"588 658 OFFCURVE",
"619 528 OFFCURVE",
"583 350 CURVE SMOOTH",
"546 171 OFFCURVE",
"462 42 OFFCURVE",
"337 42 CURVE SMOOTH"
);
},
{
closed = 1;
nodes = (
"360 786 LINE",
"372 818 OFFCURVE",
"396 839 OFFCURVE",
"425 839 CURVE SMOOTH",
"460 839 OFFCURVE",
"510 786 OFFCURVE",
"566 786 CURVE SMOOTH",
"640 786 OFFCURVE",
"684 834 OFFCURVE",
"706 905 CURVE",
"644 905 LINE",
"624 859 OFFCURVE",
"598 851 OFFCURVE",
"574 851 CURVE SMOOTH",
"535 851 OFFCURVE",
"506 903 OFFCURVE",
"437 903 CURVE SMOOTH",
"372 903 OFFCURVE",
"322 863 OFFCURVE",
"296 786 CURVE"
);
}
);
width = 735;
}
);
leftKerningGroup = O;
note = Otilde;
rightKerningGroup = O;
unicode = 00D5;
},
{
glyphname = OE;
lastChange = "2015-10-27 13:18:36 +0000";
layers = (
{
layerId = "AD8C1534-DD1F-4D30-8D71-C3A36519B1B2";
name = "Bold Italic";
paths = (
{
closed = 1;
nodes = (
"373 -10 OFFCURVE",
"426 7 OFFCURVE",
"480 53 CURVE",
"469 0 LINE",
"936 0 LINE",
"989 175 LINE",
"956 175 LINE",
"935 154 OFFCURVE",
"893 85 OFFCURVE",
"882 49 CURVE",
"630 49 LINE",
"687 334 LINE",
"853 334 LINE",
"852 317 OFFCURVE",
"852 278 OFFCURVE",
"855 248 CURVE",
"879 248 LINE",
"924 470 LINE",
"900 470 LINE",
"884 442 OFFCURVE",
"870 402 OFFCURVE",
"864 384 CURVE",
"698 384 LINE",
"753 650 LINE",
"999 650 LINE",
"995 619 OFFCURVE",
"1002 546 OFFCURVE",
"1011 523 CURVE",
"1044 523 LINE",
"1079 700 LINE",
"612 700 LINE",
"600 643 LINE",
"572 685 OFFCURVE",
"520 710 OFFCURVE",
"447 710 CURVE SMOOTH",
"228 710 OFFCURVE",
"103 533 OFFCURVE",
"65 350 CURVE SMOOTH",
"28 166 OFFCURVE",
"82 -10 OFFCURVE",
"300 -10 CURVE SMOOTH"
);
},
{
closed = 1;
nodes = (
"212 42 OFFCURVE",
"182 171 OFFCURVE",
"219 350 CURVE SMOOTH",
"255 528 OFFCURVE",
"338 658 OFFCURVE",
"463 658 CURVE SMOOTH",
"526 658 OFFCURVE",
"569 616 OFFCURVE",
"585 567 CURVE",
"495 131 LINE",
"455 78 OFFCURVE",
"400 42 OFFCURVE",
"337 42 CURVE SMOOTH"
);
}
);
width = 1030;
}
);
note = OE;
unicode = 0152;
},
{
glyphname = P;
lastChange = "2015-10-27 13:18:36 +0000";
layers = (
{
layerId = "AD8C1534-DD1F-4D30-8D71-C3A36519B1B2";
name = "Bold Italic";
paths = (
{
closed = 1;
nodes = (
"289 0 LINE",
"292 18 LINE",
"268 26 OFFCURVE",
"241 35 OFFCURVE",
"219 39 CURVE",
"266 271 LINE",
"394 271 LINE SMOOTH",
"544 271 OFFCURVE",
"636 374 OFFCURVE",
"661 494 CURVE SMOOTH",
"685 613 OFFCURVE",
"646 700 OFFCURVE",
"464 700 CURVE SMOOTH",
"128 700 LINE",
"124 681 LINE",
"149 672 OFFCURVE",
"173 665 OFFCURVE",
"195 660 CURVE",
"68 40 LINE",
"61 39 OFFCURVE",
"14 28 OFFCURVE",
"-12 20 CURVE",
"-16 0 LINE"
);
},
{
closed = 1;
nodes = (
"344 650 LINE",
"432 650 LINE SMOOTH",
"510 650 OFFCURVE",
"532 591 OFFCURVE",
"513 496 CURVE SMOOTH",
"493 402 OFFCURVE",
"446 320 OFFCURVE",
"365 320 CURVE SMOOTH",
"276 320 LINE"
);
}
);
width = 619;
}
);
note = P;
unicode = 0050;
},
{
glyphname = Thorn;
lastChange = "2015-10-27 13:18:37 +0000";
layers = (
{
layerId = "AD8C1534-DD1F-4D30-8D71-C3A36519B1B2";
name = "Bold Italic";
paths = (
{
closed = 1;
nodes = (
"289 0 LINE",
"292 18 LINE",
"268 26 OFFCURVE",
"241 35 OFFCURVE",
"219 39 CURVE",
"241 148 LINE",
"370 148 LINE SMOOTH",
"519 148 OFFCURVE",
"612 251 OFFCURVE",
"636 371 CURVE SMOOTH",
"659 484 OFFCURVE",
"624 576 OFFCURVE",
"454 576 CURVE SMOOTH",
"328 576 LINE",
"353 700 LINE",
"128 700 LINE",
"124 681 LINE",
"149 672 OFFCURVE",
"173 665 OFFCURVE",
"195 660 CURVE",
"68 40 LINE",
"61 39 OFFCURVE",
"15 28 OFFCURVE",
"-12 20 CURVE",
"-16 0 LINE"
);
},
{
closed = 1;
nodes = (
"319 527 LINE",
"407 527 LINE SMOOTH",
"486 527 OFFCURVE",
"507 468 OFFCURVE",
"488 373 CURVE SMOOTH",
"468 279 OFFCURVE",
"420 197 OFFCURVE",
"339 197 CURVE SMOOTH",
"251 197 LINE"
);
}
);
width = 618;
}
);
note = Thorn;
unicode = 00DE;
},
{
glyphname = Q;
lastChange = "2015-10-27 13:18:36 +0000";
layers = (
{
layerId = "AD8C1534-DD1F-4D30-8D71-C3A36519B1B2";
name = "Bold Italic";
paths = (
{
closed = 1;
nodes = (
"543 -10 OFFCURVE",
"689 127 OFFCURVE",
"735 350 CURVE SMOOTH",
"780 572 OFFCURVE",
"690 710 OFFCURVE",
"473 710 CURVE SMOOTH",
"255 710 OFFCURVE",
"110 572 OFFCURVE",
"65 350 CURVE SMOOTH",
"19 127 OFFCURVE",
"108 -10 OFFCURVE",
"326 -10 CURVE SMOOTH"
);
},
{
closed = 1;
nodes = (
"552 -112 LINE",
"456 -104 OFFCURVE",
"406 -52 OFFCURVE",
"415 24 CURVE",
"268 24 LINE",
"260 -74 OFFCURVE",
"348 -142 OFFCURVE",
"542 -159 CURVE"
);
},
{
closed = 1;
nodes = (
"212 42 OFFCURVE",
"181 171 OFFCURVE",
"218 350 CURVE SMOOTH",
"254 528 OFFCURVE",
"338 658 OFFCURVE",
"463 658 CURVE SMOOTH",
"588 658 OFFCURVE",
"619 528 OFFCURVE",
"583 350 CURVE SMOOTH",
"546 171 OFFCURVE",
"462 42 OFFCURVE",
"337 42 CURVE SMOOTH"
);
}
);
width = 735;
}
);
leftKerningGroup = O;
note = Q;
rightKerningGroup = O;
unicode = 0051;
},
{
glyphname = R;
lastChange = "2015-10-27 13:18:36 +0000";
layers = (
{
layerId = "AD8C1534-DD1F-4D30-8D71-C3A36519B1B2";
name = "Bold Italic";
paths = (
{
closed = 1;
nodes = (
"296 0 LINE",
"299 18 LINE",
"275 26 OFFCURVE",
"248 35 OFFCURVE",
"227 39 CURVE",
"279 299 LINE",
"419 299 LINE SMOOTH",
"552 299 OFFCURVE",
"652 378 OFFCURVE",
"678 504 CURVE SMOOTH",
"701 617 OFFCURVE",
"669 700 OFFCURVE",
"499 700 CURVE SMOOTH",
"134 700 LINE",
"131 681 LINE",
"156 672 OFFCURVE",
"180 665 OFFCURVE",
"203 660 CURVE",
"76 40 LINE",
"68 39 OFFCURVE",
"22 28 OFFCURVE",
"-6 20 CURVE",
"-10 0 LINE"
);
},
{
closed = 1;
nodes = (
"636 0 LINE",
"639 18 LINE",
"616 28 OFFCURVE",
"591 34 OFFCURVE",
"570 39 CURVE",
"482 315 LINE",
"351 315 LINE",
"442 0 LINE"
);
},
{
closed = 1;
nodes = (
"351 650 LINE",
"439 650 LINE SMOOTH",
"522 650 OFFCURVE",
"548 601 OFFCURVE",
"529 506 CURVE SMOOTH",
"510 412 OFFCURVE",
"464 348 OFFCURVE",
"376 348 CURVE SMOOTH",
"289 348 LINE"
);
}
);
width = 692;
}
);
note = R;
rightKerningGroup = R;
unicode = 0052;
},
{
glyphname = Racute;
lastChange = "2015-10-27 13:18:36 +0000";
layers = (
{
layerId = "AD8C1534-DD1F-4D30-8D71-C3A36519B1B2";
name = "Bold Italic";
paths = (
{
closed = 1;
nodes = (
"296 0 LINE",
"299 18 LINE",
"275 26 OFFCURVE",
"248 35 OFFCURVE",
"227 39 CURVE",
"279 299 LINE",
"419 299 LINE SMOOTH",
"552 299 OFFCURVE",
"652 378 OFFCURVE",
"678 504 CURVE SMOOTH",
"701 617 OFFCURVE",
"669 700 OFFCURVE",
"499 700 CURVE SMOOTH",
"134 700 LINE",
"131 681 LINE",
"156 672 OFFCURVE",
"180 665 OFFCURVE",
"203 660 CURVE",
"76 40 LINE",
"68 39 OFFCURVE",
"22 28 OFFCURVE",
"-6 20 CURVE",
"-10 0 LINE"
);
},
{
closed = 1;
nodes = (
"636 0 LINE",
"639 18 LINE",
"616 28 OFFCURVE",
"591 34 OFFCURVE",
"570 39 CURVE",
"482 315 LINE",
"351 315 LINE",
"442 0 LINE"
);
},
{
closed = 1;
nodes = (
"351 650 LINE",
"439 650 LINE SMOOTH",
"522 650 OFFCURVE",
"548 601 OFFCURVE",
"529 506 CURVE SMOOTH",
"510 412 OFFCURVE",
"464 348 OFFCURVE",
"376 348 CURVE SMOOTH",
"289 348 LINE"
);
},
{
closed = 1;
nodes = (
"554 879 LINE SMOOTH",
"588 898 OFFCURVE",
"609 916 OFFCURVE",
"613 940 CURVE SMOOTH",
"617 959 OFFCURVE",
"608 982 OFFCURVE",
"576 982 CURVE SMOOTH",
"543 982 OFFCURVE",
"515 954 OFFCURVE",
"508 947 CURVE",
"365 821 LINE",
"382 786 LINE"
);
}
);
width = 692;
}
);
note = Racute;
rightKerningGroup = R;
unicode = 0154;
},
{
glyphname = Rcaron;
lastChange = "2015-10-27 13:18:36 +0000";
layers = (
{
layerId = "AD8C1534-DD1F-4D30-8D71-C3A36519B1B2";
name = "Bold Italic";
paths = (
{
closed = 1;
nodes = (
"296 0 LINE",
"299 18 LINE",
"275 26 OFFCURVE",
"248 35 OFFCURVE",
"227 39 CURVE",
"279 299 LINE",
"419 299 LINE SMOOTH",
"552 299 OFFCURVE",
"652 378 OFFCURVE",
"678 504 CURVE SMOOTH",
"701 617 OFFCURVE",
"669 700 OFFCURVE",
"499 700 CURVE SMOOTH",
"134 700 LINE",
"131 681 LINE",
"156 672 OFFCURVE",
"180 665 OFFCURVE",
"203 660 CURVE",
"76 40 LINE",
"68 39 OFFCURVE",
"22 28 OFFCURVE",
"-6 20 CURVE",
"-10 0 LINE"
);
},
{
closed = 1;
nodes = (
"636 0 LINE",
"639 18 LINE",
"616 28 OFFCURVE",
"591 34 OFFCURVE",
"570 39 CURVE",
"482 315 LINE",
"351 315 LINE",
"442 0 LINE"
);
},
{
closed = 1;
nodes = (
"351 650 LINE",
"439 650 LINE SMOOTH",
"522 650 OFFCURVE",
"548 601 OFFCURVE",
"529 506 CURVE SMOOTH",
"510 412 OFFCURVE",
"464 348 OFFCURVE",
"376 348 CURVE SMOOTH",
"289 348 LINE"
);
},
{
closed = 1;
nodes = (
"440 786 OFFCURVE",
"492 786 OFFCURVE",
"500 786 CURVE",
"530 822 OFFCURVE",
"630 900 OFFCURVE",
"678 929 CURVE",
"628 974 LINE",
"581 942 OFFCURVE",
"510 882 OFFCURVE",
"479 846 CURVE",
"478 846 OFFCURVE",
"476 846 OFFCURVE",
"475 846 CURVE",
"461 882 OFFCURVE",
"414 942 OFFCURVE",
"381 974 CURVE",
"312 929 LINE",
"348 900 OFFCURVE",
"415 822 OFFCURVE",
"431 786 CURVE"
);
}
);
width = 692;
}
);
note = Rcaron;
rightKerningGroup = R;
unicode = 0158;
},
{
glyphname = Rcommaaccent;
lastChange = "2015-10-27 13:18:36 +0000";
layers = (
{
layerId = "AD8C1534-DD1F-4D30-8D71-C3A36519B1B2";
name = "Bold Italic";
paths = (
{
closed = 1;
nodes = (
"296 0 LINE",
"299 18 LINE",
"275 26 OFFCURVE",
"248 35 OFFCURVE",
"227 39 CURVE",
"279 299 LINE",
"419 299 LINE SMOOTH",
"552 299 OFFCURVE",
"652 378 OFFCURVE",
"678 504 CURVE SMOOTH",
"701 617 OFFCURVE",
"669 700 OFFCURVE",
"499 700 CURVE SMOOTH",
"134 700 LINE",
"131 681 LINE",
"156 672 OFFCURVE",
"180 665 OFFCURVE",
"203 660 CURVE",
"76 40 LINE",
"68 39 OFFCURVE",
"22 28 OFFCURVE",
"-6 20 CURVE",
"-10 0 LINE"
);
},
{
closed = 1;
nodes = (
"294 -319 OFFCURVE",
"352 -235 OFFCURVE",
"368 -159 CURVE SMOOTH",
"376 -117 OFFCURVE",
"360 -81 OFFCURVE",
"308 -81 CURVE SMOOTH",
"271 -81 OFFCURVE",
"232 -106 OFFCURVE",
"224 -148 CURVE SMOOTH",
"216 -188 OFFCURVE",
"240 -215 OFFCURVE",
"278 -217 CURVE",
"263 -261 OFFCURVE",
"220 -306 OFFCURVE",
"191 -332 CURVE",
"229 -368 LINE"
);
},
{
closed = 1;
nodes = (
"636 0 LINE",
"639 18 LINE",
"616 28 OFFCURVE",
"591 34 OFFCURVE",
"570 39 CURVE",
"482 315 LINE",
"351 315 LINE",
"442 0 LINE"
);
},
{
closed = 1;
nodes = (
"351 650 LINE",
"439 650 LINE SMOOTH",
"522 650 OFFCURVE",
"548 601 OFFCURVE",
"529 506 CURVE SMOOTH",
"510 412 OFFCURVE",
"464 348 OFFCURVE",
"376 348 CURVE SMOOTH",
"289 348 LINE"
);
}
);
width = 692;
}
);
note = Rcommaaccent;
rightKerningGroup = R;
unicode = 0156;
},
{
glyphname = Rdotbelow;
lastChange = "2015-10-27 13:18:36 +0000";
layers = (
{
layerId = "AD8C1534-DD1F-4D30-8D71-C3A36519B1B2";
name = "Bold Italic";
paths = (
{
closed = 1;
nodes = (
"296 0 LINE",
"299 18 LINE",
"275 26 OFFCURVE",
"248 35 OFFCURVE",
"227 39 CURVE",
"279 299 LINE",
"419 299 LINE SMOOTH",
"552 299 OFFCURVE",
"652 378 OFFCURVE",
"678 504 CURVE SMOOTH",
"701 617 OFFCURVE",
"669 700 OFFCURVE",
"499 700 CURVE SMOOTH",
"134 700 LINE",
"131 681 LINE",
"156 672 OFFCURVE",
"180 665 OFFCURVE",
"203 660 CURVE",
"76 40 LINE",
"68 39 OFFCURVE",
"22 28 OFFCURVE",
"-6 20 CURVE",
"-10 0 LINE"
);
},
{
closed = 1;
nodes = (
"312 -178 OFFCURVE",
"340 -151 OFFCURVE",
"348 -116 CURVE SMOOTH",
"354 -81 OFFCURVE",
"337 -54 OFFCURVE",
"300 -54 CURVE SMOOTH",
"265 -54 OFFCURVE",
"236 -81 OFFCURVE",
"229 -116 CURVE SMOOTH",
"222 -151 OFFCURVE",
"240 -178 OFFCURVE",
"276 -178 CURVE SMOOTH"
);
},
{
closed = 1;
nodes = (
"636 0 LINE",
"639 18 LINE",
"616 28 OFFCURVE",
"591 34 OFFCURVE",
"570 39 CURVE",
"482 315 LINE",
"351 315 LINE",
"442 0 LINE"
);
},
{
closed = 1;
nodes = (
"351 650 LINE",
"439 650 LINE SMOOTH",
"522 650 OFFCURVE",
"548 601 OFFCURVE",
"529 506 CURVE SMOOTH",
"510 412 OFFCURVE",
"464 348 OFFCURVE",
"376 348 CURVE SMOOTH",
"289 348 LINE"
);
}
);
width = 692;
}
);
note = Rdotbelow;
rightKerningGroup = R;
unicode = 1E5A;
},
{
glyphname = Rdotbelowmacron;
lastChange = "2015-10-27 13:18:36 +0000";
layers = (
{
layerId = "AD8C1534-DD1F-4D30-8D71-C3A36519B1B2";
name = "Bold Italic";
paths = (
{
closed = 1;
nodes = (
"296 0 LINE",
"299 18 LINE",
"275 26 OFFCURVE",
"248 35 OFFCURVE",
"227 39 CURVE",
"279 299 LINE",
"419 299 LINE SMOOTH",
"552 299 OFFCURVE",
"652 378 OFFCURVE",
"678 504 CURVE SMOOTH",
"701 617 OFFCURVE",
"669 700 OFFCURVE",
"499 700 CURVE SMOOTH",
"134 700 LINE",
"131 681 LINE",
"156 672 OFFCURVE",
"180 665 OFFCURVE",
"203 660 CURVE",
"76 40 LINE",
"68 39 OFFCURVE",
"22 28 OFFCURVE",
"-6 20 CURVE",
"-10 0 LINE"
);
},
{
closed = 1;
nodes = (
"312 -178 OFFCURVE",
"340 -151 OFFCURVE",
"348 -116 CURVE SMOOTH",
"354 -81 OFFCURVE",
"337 -54 OFFCURVE",
"300 -54 CURVE SMOOTH",
"264 -54 OFFCURVE",
"236 -81 OFFCURVE",
"229 -116 CURVE SMOOTH",
"222 -151 OFFCURVE",
"239 -178 OFFCURVE",
"276 -178 CURVE SMOOTH"
);
},
{
closed = 1;
nodes = (
"636 0 LINE",
"639 18 LINE",
"616 28 OFFCURVE",
"591 34 OFFCURVE",
"570 39 CURVE",
"482 315 LINE",
"351 315 LINE",
"442 0 LINE"
);
},
{
closed = 1;
nodes = (
"351 650 LINE",
"439 650 LINE SMOOTH",
"522 650 OFFCURVE",
"548 601 OFFCURVE",
"529 506 CURVE SMOOTH",
"510 412 OFFCURVE",
"464 348 OFFCURVE",
"376 348 CURVE SMOOTH",
"289 348 LINE"
);
},
{
closed = 1;
nodes = (
"635 785 LINE",
"645 834 LINE",
"235 834 LINE",
"225 785 LINE"
);
}
);
width = 692;
}
);
note = Rdotbelowmacron;
rightKerningGroup = R;
unicode = 1E5C;
},
{
glyphname = Rlinebelow;
lastChange = "2015-10-27 13:18:36 +0000";
layers = (
{
layerId = "AD8C1534-DD1F-4D30-8D71-C3A36519B1B2";
name = "Bold Italic";
paths = (
{
closed = 1;
nodes = (
"296 0 LINE",
"299 18 LINE",
"275 26 OFFCURVE",
"248 35 OFFCURVE",
"227 39 CURVE",
"279 299 LINE",
"419 299 LINE SMOOTH",
"552 299 OFFCURVE",
"652 378 OFFCURVE",
"678 504 CURVE SMOOTH",
"701 617 OFFCURVE",
"669 700 OFFCURVE",
"499 700 CURVE SMOOTH",
"134 700 LINE",
"131 681 LINE",
"156 672 OFFCURVE",
"180 665 OFFCURVE",
"203 660 CURVE",
"76 40 LINE",
"68 39 OFFCURVE",
"22 28 OFFCURVE",
"-6 20 CURVE",
"-10 0 LINE"
);
},
{
closed = 1;
nodes = (
"452 -109 LINE",
"463 -61 LINE",
"89 -61 LINE",
"79 -109 LINE"
);
},
{
closed = 1;
nodes = (
"636 0 LINE",
"639 18 LINE",
"616 28 OFFCURVE",
"591 34 OFFCURVE",
"570 39 CURVE",
"482 315 LINE",
"351 315 LINE",
"442 0 LINE"
);
},
{
closed = 1;
nodes = (
"351 650 LINE",
"439 650 LINE SMOOTH",
"522 650 OFFCURVE",
"548 601 OFFCURVE",
"529 506 CURVE SMOOTH",
"510 412 OFFCURVE",
"464 348 OFFCURVE",
"376 348 CURVE SMOOTH",
"289 348 LINE"
);
}
);
width = 692;
}
);
note = Rlinebelow;
rightKerningGroup = R;
unicode = 1E5E;
},
{
glyphname = S;
lastChange = "2015-10-27 13:18:36 +0000";
layers = (
{
layerId = "AD8C1534-DD1F-4D30-8D71-C3A36519B1B2";
name = "Bold Italic";
paths = (
{
closed = 1;
nodes = (
"386 -10 OFFCURVE",
"517 63 OFFCURVE",
"544 195 CURVE SMOOTH",
"599 462 OFFCURVE",
"240 411 OFFCURVE",
"269 555 CURVE SMOOTH",
"284 628 OFFCURVE",
"346 658 OFFCURVE",
"422 658 CURVE SMOOTH",
"470 658 OFFCURVE",
"514 645 OFFCURVE",
"536 621 CURVE",
"531 575 OFFCURVE",
"530 535 OFFCURVE",
"534 500 CURVE",
"569 500 LINE",
"611 637 LINE",
"569 688 OFFCURVE",
"504 710 OFFCURVE",
"401 710 CURVE SMOOTH",
"251 710 OFFCURVE",
"135 651 OFFCURVE",
"110 530 CURVE SMOOTH",
"60 281 OFFCURVE",
"423 356 OFFCURVE",
"386 174 CURVE SMOOTH",
"368 83 OFFCURVE",
"286 42 OFFCURVE",
"208 42 CURVE SMOOTH",
"153 42 OFFCURVE",
"107 65 OFFCURVE",
"83 98 CURVE",
"88 143 OFFCURVE",
"94 196 OFFCURVE",
"90 231 CURVE",
"56 231 LINE",
"12 85 LINE",
"43 29 OFFCURVE",
"129 -10 OFFCURVE",
"237 -10 CURVE SMOOTH"
);
}
);
width = 577;
}
);
leftKerningGroup = S;
note = S;
rightKerningGroup = S;
unicode = 0053;
},
{
glyphname = Sacute;
lastChange = "2015-10-27 13:18:36 +0000";
layers = (
{
layerId = "AD8C1534-DD1F-4D30-8D71-C3A36519B1B2";
name = "Bold Italic";
paths = (
{
closed = 1;
nodes = (
"386 -10 OFFCURVE",
"517 63 OFFCURVE",
"544 195 CURVE SMOOTH",
"599 462 OFFCURVE",
"240 411 OFFCURVE",
"269 555 CURVE SMOOTH",
"284 628 OFFCURVE",
"346 658 OFFCURVE",
"422 658 CURVE SMOOTH",
"470 658 OFFCURVE",
"514 645 OFFCURVE",
"536 621 CURVE",
"531 575 OFFCURVE",
"530 535 OFFCURVE",
"534 500 CURVE",
"569 500 LINE",
"611 637 LINE",
"569 688 OFFCURVE",
"504 710 OFFCURVE",
"401 710 CURVE SMOOTH",
"251 710 OFFCURVE",
"135 651 OFFCURVE",
"110 530 CURVE SMOOTH",
"60 281 OFFCURVE",
"423 356 OFFCURVE",
"386 174 CURVE SMOOTH",
"368 83 OFFCURVE",
"286 42 OFFCURVE",
"208 42 CURVE SMOOTH",
"153 42 OFFCURVE",
"107 65 OFFCURVE",
"83 98 CURVE",
"88 143 OFFCURVE",
"94 196 OFFCURVE",
"90 231 CURVE",
"56 231 LINE",
"12 85 LINE",
"43 29 OFFCURVE",
"129 -10 OFFCURVE",
"237 -10 CURVE SMOOTH"
);
},
{
closed = 1;
nodes = (
"501 879 LINE SMOOTH",
"536 898 OFFCURVE",
"556 916 OFFCURVE",
"561 940 CURVE SMOOTH",
"564 959 OFFCURVE",
"555 982 OFFCURVE",
"523 982 CURVE SMOOTH",
"491 982 OFFCURVE",
"462 954 OFFCURVE",
"455 947 CURVE",
"312 821 LINE",
"329 786 LINE"
);
}
);
width = 577;
}
);
leftKerningGroup = S;
note = Sacute;
rightKerningGroup = S;
unicode = 015A;
},
{
glyphname = Scaron;
lastChange = "2015-10-27 13:18:35 +0000";
layers = (
{
layerId = "AD8C1534-DD1F-4D30-8D71-C3A36519B1B2";
name = "Bold Italic";
paths = (
{
closed = 1;
nodes = (
"386 -10 OFFCURVE",
"517 63 OFFCURVE",
"544 195 CURVE SMOOTH",
"599 462 OFFCURVE",
"240 411 OFFCURVE",
"269 555 CURVE SMOOTH",
"284 628 OFFCURVE",
"346 658 OFFCURVE",
"422 658 CURVE SMOOTH",
"470 658 OFFCURVE",
"514 645 OFFCURVE",
"536 621 CURVE",
"531 575 OFFCURVE",
"530 535 OFFCURVE",
"534 500 CURVE",
"569 500 LINE",
"611 637 LINE",
"569 688 OFFCURVE",
"504 710 OFFCURVE",
"401 710 CURVE SMOOTH",
"251 710 OFFCURVE",
"135 651 OFFCURVE",
"110 530 CURVE SMOOTH",
"60 281 OFFCURVE",
"423 356 OFFCURVE",
"386 174 CURVE SMOOTH",
"368 83 OFFCURVE",
"286 42 OFFCURVE",
"208 42 CURVE SMOOTH",
"153 42 OFFCURVE",
"107 65 OFFCURVE",
"83 98 CURVE",
"88 143 OFFCURVE",
"94 196 OFFCURVE",
"90 231 CURVE",
"56 231 LINE",
"12 85 LINE",
"43 29 OFFCURVE",
"129 -10 OFFCURVE",
"237 -10 CURVE SMOOTH"
);
},
{
closed = 1;
nodes = (
"382 786 OFFCURVE",
"434 786 OFFCURVE",
"443 786 CURVE",
"472 822 OFFCURVE",
"572 900 OFFCURVE",
"620 929 CURVE",
"570 974 LINE",
"523 942 OFFCURVE",
"452 882 OFFCURVE",
"421 846 CURVE",
"420 846 OFFCURVE",
"419 846 OFFCURVE",
"418 846 CURVE",
"403 882 OFFCURVE",
"356 942 OFFCURVE",
"324 974 CURVE",
"254 929 LINE",
"291 900 OFFCURVE",
"357 822 OFFCURVE",
"373 786 CURVE"
);
}
);
width = 577;
}
);
leftKerningGroup = S;
note = Scaron;
rightKerningGroup = S;
unicode = 0160;
},
{
glyphname = Scedilla;
lastChange = "2015-10-27 13:18:36 +0000";
layers = (
{
layerId = "AD8C1534-DD1F-4D30-8D71-C3A36519B1B2";
name = "Bold Italic";
paths = (
{
closed = 1;
nodes = (
"386 -10 OFFCURVE",
"517 63 OFFCURVE",
"544 195 CURVE SMOOTH",
"599 462 OFFCURVE",
"240 411 OFFCURVE",
"269 555 CURVE SMOOTH",
"284 628 OFFCURVE",
"346 658 OFFCURVE",
"422 658 CURVE SMOOTH",
"470 658 OFFCURVE",
"514 645 OFFCURVE",
"536 621 CURVE",
"531 575 OFFCURVE",
"530 535 OFFCURVE",
"534 500 CURVE",
"569 500 LINE",
"611 637 LINE",
"569 688 OFFCURVE",
"504 710 OFFCURVE",
"401 710 CURVE SMOOTH",
"251 710 OFFCURVE",
"135 651 OFFCURVE",
"110 530 CURVE SMOOTH",
"60 281 OFFCURVE",
"423 356 OFFCURVE",
"386 174 CURVE SMOOTH",
"368 83 OFFCURVE",
"286 42 OFFCURVE",
"208 42 CURVE SMOOTH",
"153 42 OFFCURVE",
"107 65 OFFCURVE",
"83 98 CURVE",
"88 143 OFFCURVE",
"94 196 OFFCURVE",
"90 231 CURVE",
"56 231 LINE",
"12 85 LINE",
"43 29 OFFCURVE",
"129 -10 OFFCURVE",
"237 -10 CURVE SMOOTH"
);
},
{
closed = 1;
nodes = (
"259 -252 OFFCURVE",
"330 -216 OFFCURVE",
"345 -145 CURVE SMOOTH",
"353 -102 OFFCURVE",
"327 -60 OFFCURVE",
"247 -60 CURVE",
"303 24 LINE",
"240 24 LINE",
"176 -70 LINE",
"193 -104 LINE",
"201 -103 OFFCURVE",
"208 -102 OFFCURVE",
"216 -102 CURVE SMOOTH",
"245 -102 OFFCURVE",
"278 -111 OFFCURVE",
"272 -145 CURVE SMOOTH",
"263 -187 OFFCURVE",
"225 -200 OFFCURVE",
"182 -200 CURVE SMOOTH",
"156 -200 OFFCURVE",
"128 -193 OFFCURVE",
"111 -182 CURVE",
"81 -221 LINE",
"105 -241 OFFCURVE",
"147 -252 OFFCURVE",
"183 -252 CURVE SMOOTH"
);
}
);
width = 577;
}
);
leftKerningGroup = S;
note = Scedilla;
rightKerningGroup = S;
unicode = 015E;
},
{
glyphname = Scircumflex;
lastChange = "2015-10-27 13:18:36 +0000";
layers = (
{
layerId = "AD8C1534-DD1F-4D30-8D71-C3A36519B1B2";
name = "Bold Italic";
paths = (
{
closed = 1;
nodes = (
"386 -10 OFFCURVE",
"517 63 OFFCURVE",
"544 195 CURVE SMOOTH",
"599 462 OFFCURVE",
"240 411 OFFCURVE",
"269 555 CURVE SMOOTH",
"284 628 OFFCURVE",
"346 658 OFFCURVE",
"422 658 CURVE SMOOTH",
"470 658 OFFCURVE",
"514 645 OFFCURVE",
"536 621 CURVE",
"531 575 OFFCURVE",
"530 535 OFFCURVE",
"534 500 CURVE",
"569 500 LINE",
"611 637 LINE",
"569 688 OFFCURVE",
"504 710 OFFCURVE",
"401 710 CURVE SMOOTH",
"251 710 OFFCURVE",
"135 651 OFFCURVE",
"110 530 CURVE SMOOTH",
"60 281 OFFCURVE",
"423 356 OFFCURVE",
"386 174 CURVE SMOOTH",
"368 83 OFFCURVE",
"286 42 OFFCURVE",
"208 42 CURVE SMOOTH",
"153 42 OFFCURVE",
"107 65 OFFCURVE",
"83 98 CURVE",
"88 143 OFFCURVE",
"94 196 OFFCURVE",
"90 231 CURVE",
"56 231 LINE",
"12 85 LINE",
"43 29 OFFCURVE",
"129 -10 OFFCURVE",
"237 -10 CURVE SMOOTH"
);
},
{
closed = 1;
nodes = (
"330 816 OFFCURVE",
"402 876 OFFCURVE",
"431 912 CURVE",
"432 912 OFFCURVE",
"434 912 OFFCURVE",
"435 912 CURVE",
"451 876 OFFCURVE",
"497 816 OFFCURVE",
"531 783 CURVE",
"600 829 LINE",
"564 857 OFFCURVE",
"496 936 OFFCURVE",
"480 972 CURVE",
"471 972 OFFCURVE",
"420 972 OFFCURVE",
"411 972 CURVE",
"381 936 OFFCURVE",
"283 857 OFFCURVE",
"234 829 CURVE",
"285 783 LINE"
);
}
);
width = 577;
}
);
leftKerningGroup = S;
note = Scircumflex;
rightKerningGroup = S;
unicode = 015C;
},
{
glyphname = Scommaaccent;
lastChange = "2015-10-27 13:18:36 +0000";
layers = (
{
layerId = "AD8C1534-DD1F-4D30-8D71-C3A36519B1B2";
name = "Bold Italic";
paths = (
{
closed = 1;
nodes = (
"386 -10 OFFCURVE",
"517 63 OFFCURVE",
"544 195 CURVE SMOOTH",
"599 462 OFFCURVE",
"240 411 OFFCURVE",
"269 555 CURVE SMOOTH",
"284 628 OFFCURVE",
"346 658 OFFCURVE",
"422 658 CURVE SMOOTH",
"470 658 OFFCURVE",
"514 645 OFFCURVE",
"536 621 CURVE",
"531 575 OFFCURVE",
"530 535 OFFCURVE",
"534 500 CURVE",
"569 500 LINE",
"611 637 LINE",
"569 688 OFFCURVE",
"504 710 OFFCURVE",
"401 710 CURVE SMOOTH",
"251 710 OFFCURVE",
"135 651 OFFCURVE",
"110 530 CURVE SMOOTH",
"60 281 OFFCURVE",
"423 356 OFFCURVE",
"386 174 CURVE SMOOTH",
"368 83 OFFCURVE",
"286 42 OFFCURVE",
"208 42 CURVE SMOOTH",
"153 42 OFFCURVE",
"107 65 OFFCURVE",
"83 98 CURVE",
"88 143 OFFCURVE",
"94 196 OFFCURVE",
"90 231 CURVE",
"56 231 LINE",
"12 85 LINE",
"43 29 OFFCURVE",
"129 -10 OFFCURVE",
"237 -10 CURVE SMOOTH"
);
},
{
closed = 1;
nodes = (
"225 -295 OFFCURVE",
"285 -206 OFFCURVE",
"300 -130 CURVE SMOOTH",
"309 -89 OFFCURVE",
"291 -52 OFFCURVE",
"239 -52 CURVE SMOOTH",
"201 -52 OFFCURVE",
"163 -78 OFFCURVE",
"155 -120 CURVE SMOOTH",
"148 -152 OFFCURVE",
"166 -178 OFFCURVE",
"192 -185 CURVE",
"198 -188 OFFCURVE",
"204 -189 OFFCURVE",
"210 -189 CURVE",
"195 -234 OFFCURVE",
"151 -282 OFFCURVE",
"121 -308 CURVE",
"160 -344 LINE"
);
}
);
width = 577;
}
);
leftKerningGroup = S;
note = Scommaaccent;
rightKerningGroup = S;
unicode = 0218;
},
{
glyphname = Sdotaccent;
lastChange = "2015-10-27 13:18:36 +0000";
layers = (
{
layerId = "AD8C1534-DD1F-4D30-8D71-C3A36519B1B2";
name = "Bold Italic";
paths = (
{
closed = 1;
nodes = (
"386 -10 OFFCURVE",
"517 63 OFFCURVE",
"544 195 CURVE SMOOTH",
"599 462 OFFCURVE",
"240 411 OFFCURVE",
"269 555 CURVE SMOOTH",
"284 628 OFFCURVE",
"346 658 OFFCURVE",
"422 658 CURVE SMOOTH",
"470 658 OFFCURVE",
"514 645 OFFCURVE",
"536 621 CURVE",
"531 575 OFFCURVE",
"530 535 OFFCURVE",
"534 500 CURVE",
"569 500 LINE",
"611 637 LINE",
"569 688 OFFCURVE",
"504 710 OFFCURVE",
"401 710 CURVE SMOOTH",
"251 710 OFFCURVE",
"135 651 OFFCURVE",
"110 530 CURVE SMOOTH",
"60 281 OFFCURVE",
"423 356 OFFCURVE",
"386 174 CURVE SMOOTH",
"368 83 OFFCURVE",
"286 42 OFFCURVE",
"208 42 CURVE SMOOTH",
"153 42 OFFCURVE",
"107 65 OFFCURVE",
"83 98 CURVE",
"88 143 OFFCURVE",
"94 196 OFFCURVE",
"90 231 CURVE",
"56 231 LINE",
"12 85 LINE",
"43 29 OFFCURVE",
"129 -10 OFFCURVE",
"237 -10 CURVE SMOOTH"
);
},
{
closed = 1;
nodes = (
"459 785 OFFCURVE",
"488 812 OFFCURVE",
"495 847 CURVE SMOOTH",
"502 882 OFFCURVE",
"485 909 OFFCURVE",
"449 909 CURVE SMOOTH",
"413 909 OFFCURVE",
"385 882 OFFCURVE",
"378 847 CURVE SMOOTH",
"371 812 OFFCURVE",
"387 785 OFFCURVE",
"423 785 CURVE SMOOTH"
);
}
);
width = 577;
}
);
leftKerningGroup = S;
note = Sdotaccent;
rightKerningGroup = S;
unicode = 1E60;
},
{
glyphname = Sdotbelow;
lastChange = "2015-10-27 13:18:37 +0000";
layers = (
{
layerId = "AD8C1534-DD1F-4D30-8D71-C3A36519B1B2";
name = "Bold Italic";
paths = (
{
closed = 1;
nodes = (
"386 -10 OFFCURVE",
"517 63 OFFCURVE",
"544 195 CURVE SMOOTH",
"599 462 OFFCURVE",
"240 411 OFFCURVE",
"269 555 CURVE SMOOTH",
"284 628 OFFCURVE",
"346 658 OFFCURVE",
"422 658 CURVE SMOOTH",
"470 658 OFFCURVE",
"514 645 OFFCURVE",
"536 621 CURVE",
"531 575 OFFCURVE",
"530 535 OFFCURVE",
"534 500 CURVE",
"569 500 LINE",
"611 637 LINE",
"569 688 OFFCURVE",
"504 710 OFFCURVE",
"401 710 CURVE SMOOTH",
"251 710 OFFCURVE",
"135 651 OFFCURVE",
"110 530 CURVE SMOOTH",
"60 281 OFFCURVE",
"423 356 OFFCURVE",
"386 174 CURVE SMOOTH",
"368 83 OFFCURVE",
"286 42 OFFCURVE",
"208 42 CURVE SMOOTH",
"153 42 OFFCURVE",
"107 65 OFFCURVE",
"83 98 CURVE",
"88 143 OFFCURVE",
"94 196 OFFCURVE",
"90 231 CURVE",
"56 231 LINE",
"12 85 LINE",
"43 29 OFFCURVE",
"129 -10 OFFCURVE",
"237 -10 CURVE SMOOTH"
);
},
{
closed = 1;
nodes = (
"256 -178 OFFCURVE",
"284 -151 OFFCURVE",
"292 -116 CURVE SMOOTH",
"299 -81 OFFCURVE",
"281 -54 OFFCURVE",
"245 -54 CURVE SMOOTH",
"209 -54 OFFCURVE",
"180 -81 OFFCURVE",
"174 -116 CURVE SMOOTH",
"166 -151 OFFCURVE",
"184 -178 OFFCURVE",
"220 -178 CURVE SMOOTH"
);
}
);
width = 577;
}
);
leftKerningGroup = S;
note = Sdotbelow;
rightKerningGroup = S;
unicode = 1E62;
},
{
glyphname = Germandbls;
lastChange = "2015-10-27 13:18:36 +0000";
layers = (
{
layerId = "AD8C1534-DD1F-4D30-8D71-C3A36519B1B2";
name = "Bold Italic";
paths = (
{
closed = 1;
nodes = (
"587 -10 OFFCURVE",
"688 90 OFFCURVE",
"711 206 CURVE SMOOTH",
"732 310 OFFCURVE",
"664 383 OFFCURVE",
"530 401 CURVE",
"702 553 LINE",
"694 627 OFFCURVE",
"619 710 OFFCURVE",
"470 710 CURVE SMOOTH",
"281 710 OFFCURVE",
"180 625 OFFCURVE",
"152 484 CURVE SMOOTH",
"61 40 LINE",
"34 34 OFFCURVE",
"6 27 OFFCURVE",
"-20 20 CURVE",
"-24 0 LINE",
"251 0 LINE",
"255 26 LINE",
"245 31 OFFCURVE",
"217 38 OFFCURVE",
"209 40 CURVE",
"308 525 LINE SMOOTH",
"325 610 OFFCURVE",
"379 658 OFFCURVE",
"456 658 CURVE SMOOTH",
"531 658 OFFCURVE",
"572 619 OFFCURVE",
"585 570 CURVE",
"373 382 LINE",
"368 356 LINE",
"456 356 LINE SMOOTH",
"547 356 OFFCURVE",
"581 294 OFFCURVE",
"563 206 CURVE SMOOTH",
"542 107 OFFCURVE",
"484 39 OFFCURVE",
"404 39 CURVE SMOOTH",
"369 39 OFFCURVE",
"332 45 OFFCURVE",
"299 57 CURVE",
"288 5 LINE",
"318 -5 OFFCURVE",
"355 -10 OFFCURVE",
"397 -10 CURVE SMOOTH"
);
}
);
width = 737;
}
);
note = uni1E9E;
unicode = 1E9E;
},
{
glyphname = Schwa;
lastChange = "2015-10-27 13:18:35 +0000";
layers = (
{
layerId = "AD8C1534-DD1F-4D30-8D71-C3A36519B1B2";
name = "Bold Italic";
paths = (
{
closed = 1;
nodes = (
"517 -10 OFFCURVE",
"682 111 OFFCURVE",
"730 344 CURVE SMOOTH",
"773 559 OFFCURVE",
"665 710 OFFCURVE",
"427 710 CURVE SMOOTH",
"282 710 OFFCURVE",
"190 662 OFFCURVE",
"138 629 CURVE",
"148 580 LINE",
"248 640 OFFCURVE",
"321 657 OFFCURVE",
"402 657 CURVE SMOOTH",
"564 657 OFFCURVE",
"613 493 OFFCURVE",
"580 328 CURVE SMOOTH",
"550 179 OFFCURVE",
"455 39 OFFCURVE",
"308 39 CURVE SMOOTH",
"194 39 OFFCURVE",
"173 174 OFFCURVE",
"198 294 CURVE",
"584 294 LINE",
"594 346 LINE",
"62 346 LINE",
"56 312 LINE SMOOTH",
"20 138 OFFCURVE",
"84 -10 OFFCURVE",
"302 -10 CURVE SMOOTH"
);
}
);
width = 729;
}
);
note = uni018F;
unicode = 018F;
},
{
glyphname = T;
lastChange = "2015-10-27 13:18:36 +0000";
layers = (
{
layerId = "AD8C1534-DD1F-4D30-8D71-C3A36519B1B2";
name = "Bold Italic";
paths = (
{
closed = 1;
nodes = (
"446 0 LINE",
"449 18 LINE",
"425 26 OFFCURVE",
"392 35 OFFCURVE",
"370 39 CURVE",
"494 650 LINE",
"645 650 LINE",
"640 619 OFFCURVE",
"643 523 OFFCURVE",
"652 501 CURVE",
"684 501 LINE",
"725 700 LINE",
"132 700 LINE",
"92 501 LINE",
"125 501 LINE",
"143 523 OFFCURVE",
"184 619 OFFCURVE",
"193 650 CURVE",
"344 650 LINE",
"219 40 LINE",
"189 33 OFFCURVE",
"157 27 OFFCURVE",
"132 20 CURVE",
"128 0 LINE"
);
}
);
width = 651;
}
);
leftKerningGroup = T;
note = T;
rightKerningGroup = T;
unicode = 0054;
},
{
glyphname = Tbar;
lastChange = "2015-10-27 13:18:36 +0000";
layers = (
{
layerId = "AD8C1534-DD1F-4D30-8D71-C3A36519B1B2";
name = "Bold Italic";
paths = (
{
closed = 1;
nodes = (
"446 0 LINE",
"449 18 LINE",
"425 26 OFFCURVE",
"392 35 OFFCURVE",
"370 39 CURVE",
"494 650 LINE",
"645 650 LINE",
"640 619 OFFCURVE",
"643 523 OFFCURVE",
"652 501 CURVE",
"684 501 LINE",
"725 700 LINE",
"132 700 LINE",
"92 501 LINE",
"125 501 LINE",
"143 523 OFFCURVE",
"184 619 OFFCURVE",
"193 650 CURVE",
"344 650 LINE",
"219 40 LINE",
"189 33 OFFCURVE",
"157 27 OFFCURVE",
"132 20 CURVE",
"128 0 LINE"
);
},
{
closed = 1;
nodes = (
"565 297 LINE",
"576 346 LINE",
"151 346 LINE",
"140 297 LINE"
);
}
);
width = 651;
}
);
leftKerningGroup = T;
note = Tbar;
rightKerningGroup = T;
unicode = 0166;
},
{
glyphname = Tcaron;
lastChange = "2015-10-27 13:18:36 +0000";
layers = (
{
layerId = "AD8C1534-DD1F-4D30-8D71-C3A36519B1B2";
name = "Bold Italic";
paths = (
{
closed = 1;
nodes = (
"446 0 LINE",
"449 18 LINE",
"425 26 OFFCURVE",
"392 35 OFFCURVE",
"370 39 CURVE",
"494 650 LINE",
"645 650 LINE",
"640 619 OFFCURVE",
"643 523 OFFCURVE",
"652 501 CURVE",
"684 501 LINE",
"725 700 LINE",
"132 700 LINE",
"92 501 LINE",
"125 501 LINE",
"143 523 OFFCURVE",
"184 619 OFFCURVE",
"193 650 CURVE",
"344 650 LINE",
"219 40 LINE",
"189 33 OFFCURVE",
"157 27 OFFCURVE",
"132 20 CURVE",
"128 0 LINE"
);
},
{
closed = 1;
nodes = (
"419 786 OFFCURVE",
"470 786 OFFCURVE",
"479 786 CURVE",
"509 822 OFFCURVE",
"609 900 OFFCURVE",
"657 929 CURVE",
"607 974 LINE",
"560 942 OFFCURVE",
"489 882 OFFCURVE",
"458 846 CURVE",
"457 846 OFFCURVE",
"455 846 OFFCURVE",
"454 846 CURVE",
"440 882 OFFCURVE",
"393 942 OFFCURVE",
"360 974 CURVE",
"291 929 LINE",
"327 900 OFFCURVE",
"394 822 OFFCURVE",
"410 786 CURVE"
);
}
);
width = 651;
}
);
leftKerningGroup = T;
note = Tcaron;
rightKerningGroup = T;
unicode = 0164;
},
{
glyphname = Tcedilla;
lastChange = "2015-10-27 13:18:36 +0000";
layers = (
{
layerId = "AD8C1534-DD1F-4D30-8D71-C3A36519B1B2";
name = "Bold Italic";
paths = (
{
closed = 1;
nodes = (
"446 0 LINE",
"449 18 LINE",
"425 26 OFFCURVE",
"392 35 OFFCURVE",
"370 39 CURVE",
"494 650 LINE",
"645 650 LINE",
"640 619 OFFCURVE",
"643 523 OFFCURVE",
"652 501 CURVE",
"684 501 LINE",
"725 700 LINE",
"132 700 LINE",
"92 501 LINE",
"125 501 LINE",
"143 523 OFFCURVE",
"184 619 OFFCURVE",
"193 650 CURVE",
"344 650 LINE",
"219 40 LINE",
"189 33 OFFCURVE",
"157 27 OFFCURVE",
"132 20 CURVE",
"128 0 LINE"
);
},
{
closed = 1;
nodes = (
"279 -252 OFFCURVE",
"350 -216 OFFCURVE",
"365 -145 CURVE SMOOTH",
"372 -104 OFFCURVE",
"351 -65 OFFCURVE",
"280 -61 CURVE",
"276 -61 OFFCURVE",
"270 -60 OFFCURVE",
"267 -60 CURVE",
"324 24 LINE",
"260 24 LINE",
"195 -70 LINE",
"212 -104 LINE",
"220 -103 OFFCURVE",
"228 -102 OFFCURVE",
"235 -102 CURVE SMOOTH",
"265 -102 OFFCURVE",
"299 -111 OFFCURVE",
"292 -145 CURVE SMOOTH",
"283 -187 OFFCURVE",
"244 -200 OFFCURVE",
"203 -200 CURVE SMOOTH",
"175 -200 OFFCURVE",
"147 -193 OFFCURVE",
"131 -182 CURVE",
"100 -221 LINE",
"125 -241 OFFCURVE",
"167 -252 OFFCURVE",
"204 -252 CURVE SMOOTH"
);
}
);
width = 651;
}
);
leftKerningGroup = T;
note = Tcedilla;
rightKerningGroup = T;
unicode = 0162;
},
{
glyphname = Tcommaaccent;
lastChange = "2015-10-27 13:18:36 +0000";
layers = (
{
layerId = "AD8C1534-DD1F-4D30-8D71-C3A36519B1B2";
name = "Bold Italic";
paths = (
{
closed = 1;
nodes = (
"446 0 LINE",
"449 18 LINE",
"425 26 OFFCURVE",
"392 35 OFFCURVE",
"370 39 CURVE",
"494 650 LINE",
"645 650 LINE",
"640 619 OFFCURVE",
"643 523 OFFCURVE",
"652 501 CURVE",
"684 501 LINE",
"725 700 LINE",
"132 700 LINE",
"92 501 LINE",
"125 501 LINE",
"143 523 OFFCURVE",
"184 619 OFFCURVE",
"193 650 CURVE",
"344 650 LINE",
"219 40 LINE",
"189 33 OFFCURVE",
"157 27 OFFCURVE",
"132 20 CURVE",
"128 0 LINE"
);
},
{
closed = 1;
nodes = (
"253 -319 OFFCURVE",
"312 -235 OFFCURVE",
"327 -159 CURVE SMOOTH",
"336 -117 OFFCURVE",
"320 -81 OFFCURVE",
"268 -81 CURVE SMOOTH",
"230 -81 OFFCURVE",
"192 -106 OFFCURVE",
"183 -148 CURVE SMOOTH",
"176 -188 OFFCURVE",
"200 -215 OFFCURVE",
"238 -217 CURVE",
"223 -261 OFFCURVE",
"180 -306 OFFCURVE",
"151 -332 CURVE",
"189 -368 LINE"
);
}
);
width = 651;
}
);
leftKerningGroup = T;
note = Tcommaaccent;
rightKerningGroup = T;
unicode = 021A;
},
{
glyphname = Tdotbelow;
lastChange = "2015-10-27 13:18:36 +0000";
layers = (
{
layerId = "AD8C1534-DD1F-4D30-8D71-C3A36519B1B2";
name = "Bold Italic";
paths = (
{
closed = 1;
nodes = (
"446 0 LINE",
"449 18 LINE",
"425 26 OFFCURVE",
"392 35 OFFCURVE",
"370 39 CURVE",
"494 650 LINE",
"645 650 LINE",
"640 619 OFFCURVE",
"643 523 OFFCURVE",
"652 501 CURVE",
"684 501 LINE",
"725 700 LINE",
"132 700 LINE",
"92 501 LINE",
"125 501 LINE",
"143 523 OFFCURVE",
"184 619 OFFCURVE",
"193 650 CURVE",
"344 650 LINE",
"219 40 LINE",
"189 33 OFFCURVE",
"157 27 OFFCURVE",
"132 20 CURVE",
"128 0 LINE"
);
},
{
closed = 1;
nodes = (
"286 -178 OFFCURVE",
"314 -151 OFFCURVE",
"322 -116 CURVE SMOOTH",
"328 -81 OFFCURVE",
"311 -54 OFFCURVE",
"275 -54 CURVE SMOOTH",
"239 -54 OFFCURVE",
"210 -81 OFFCURVE",
"204 -116 CURVE SMOOTH",
"196 -151 OFFCURVE",
"214 -178 OFFCURVE",
"250 -178 CURVE SMOOTH"
);
}
);
width = 651;
}
);
leftKerningGroup = T;
note = Tdotbelow;
rightKerningGroup = T;
unicode = 1E6C;
},
{
glyphname = Tlinebelow;
lastChange = "2015-10-27 13:18:36 +0000";
layers = (
{
layerId = "AD8C1534-DD1F-4D30-8D71-C3A36519B1B2";
name = "Bold Italic";
paths = (
{
closed = 1;
nodes = (
"446 0 LINE",
"449 18 LINE",
"425 26 OFFCURVE",
"392 35 OFFCURVE",
"370 39 CURVE",
"494 650 LINE",
"645 650 LINE",
"640 619 OFFCURVE",
"643 523 OFFCURVE",
"652 501 CURVE",
"684 501 LINE",
"725 700 LINE",
"132 700 LINE",
"92 501 LINE",
"125 501 LINE",
"143 523 OFFCURVE",
"184 619 OFFCURVE",
"193 650 CURVE",
"344 650 LINE",
"219 40 LINE",
"189 33 OFFCURVE",
"157 27 OFFCURVE",
"132 20 CURVE",
"128 0 LINE"
);
},
{
closed = 1;
nodes = (
"450 -109 LINE",
"461 -61 LINE",
"87 -61 LINE",
"77 -109 LINE"
);
}
);
width = 651;
}
);
leftKerningGroup = T;
note = Tlinebelow;
rightKerningGroup = T;
unicode = 1E6E;
},
{
glyphname = U;
lastChange = "2015-10-27 13:18:36 +0000";
layers = (
{
layerId = "AD8C1534-DD1F-4D30-8D71-C3A36519B1B2";
name = "Bold Italic";
paths = (
{
closed = 1;
nodes = (
"533 -10 OFFCURVE",
"642 69 OFFCURVE",
"673 220 CURVE SMOOTH",
"763 659 LINE",
"776 661 OFFCURVE",
"807 669 OFFCURVE",
"845 682 CURVE",
"849 700 LINE",
"634 700 LINE",
"630 682 LINE",
"656 672 OFFCURVE",
"680 666 OFFCURVE",
"704 661 CURVE",
"611 206 LINE SMOOTH",
"586 83 OFFCURVE",
"491 42 OFFCURVE",
"398 42 CURVE SMOOTH",
"306 42 OFFCURVE",
"229 79 OFFCURVE",
"255 206 CURVE SMOOTH",
"348 659 LINE",
"376 666 OFFCURVE",
"404 672 OFFCURVE",
"429 680 CURVE",
"433 700 LINE",
"129 700 LINE",
"125 682 LINE",
"150 672 OFFCURVE",
"176 665 OFFCURVE",
"198 660 CURVE",
"108 220 LINE SMOOTH",
"75 60 OFFCURVE",
"166 -10 OFFCURVE",
"350 -10 CURVE SMOOTH"
);
}
);
width = 770;
}
);
leftKerningGroup = U;
note = U;
rightKerningGroup = U;
unicode = 0055;
},
{
glyphname = Uacute;
lastChange = "2015-10-27 13:18:36 +0000";
layers = (
{
layerId = "AD8C1534-DD1F-4D30-8D71-C3A36519B1B2";
name = "Bold Italic";
paths = (
{
closed = 1;
nodes = (
"533 -10 OFFCURVE",
"642 69 OFFCURVE",
"673 220 CURVE SMOOTH",
"763 659 LINE",
"776 661 OFFCURVE",
"807 669 OFFCURVE",
"845 682 CURVE",
"849 700 LINE",
"634 700 LINE",
"630 682 LINE",
"656 672 OFFCURVE",
"680 666 OFFCURVE",
"704 661 CURVE",
"611 206 LINE SMOOTH",
"586 83 OFFCURVE",
"491 42 OFFCURVE",
"398 42 CURVE SMOOTH",
"306 42 OFFCURVE",
"229 79 OFFCURVE",
"255 206 CURVE SMOOTH",
"348 659 LINE",
"376 666 OFFCURVE",
"404 672 OFFCURVE",
"429 680 CURVE",
"433 700 LINE",
"129 700 LINE",
"125 682 LINE",
"150 672 OFFCURVE",
"176 665 OFFCURVE",
"198 660 CURVE",
"108 220 LINE SMOOTH",
"75 60 OFFCURVE",
"166 -10 OFFCURVE",
"350 -10 CURVE SMOOTH"
);
},
{
closed = 1;
nodes = (
"635 879 LINE SMOOTH",
"669 898 OFFCURVE",
"689 916 OFFCURVE",
"694 940 CURVE SMOOTH",
"698 959 OFFCURVE",
"688 982 OFFCURVE",
"657 982 CURVE SMOOTH",
"624 982 OFFCURVE",
"595 954 OFFCURVE",
"588 947 CURVE",
"445 821 LINE",
"463 786 LINE"
);
}
);
width = 770;
}
);
leftKerningGroup = U;
note = Uacute;
rightKerningGroup = U;
unicode = 00DA;
},
{
glyphname = Ubreve;
lastChange = "2015-10-27 13:18:36 +0000";
layers = (
{
layerId = "AD8C1534-DD1F-4D30-8D71-C3A36519B1B2";
name = "Bold Italic";
paths = (
{
closed = 1;
nodes = (
"533 -10 OFFCURVE",
"642 69 OFFCURVE",
"673 220 CURVE SMOOTH",
"763 659 LINE",
"776 661 OFFCURVE",
"807 669 OFFCURVE",
"845 682 CURVE",
"849 700 LINE",
"634 700 LINE",
"630 682 LINE",
"656 672 OFFCURVE",
"680 666 OFFCURVE",
"704 661 CURVE",
"611 206 LINE SMOOTH",
"586 83 OFFCURVE",
"491 42 OFFCURVE",
"398 42 CURVE SMOOTH",
"306 42 OFFCURVE",
"229 79 OFFCURVE",
"255 206 CURVE SMOOTH",
"348 659 LINE",
"376 666 OFFCURVE",
"404 672 OFFCURVE",
"429 680 CURVE",
"433 700 LINE",
"129 700 LINE",
"125 682 LINE",
"150 672 OFFCURVE",
"176 665 OFFCURVE",
"198 660 CURVE",
"108 220 LINE SMOOTH",
"75 60 OFFCURVE",
"166 -10 OFFCURVE",
"350 -10 CURVE SMOOTH"
);
},
{
closed = 1;
nodes = (
"609 781 OFFCURVE",
"683 824 OFFCURVE",
"715 915 CURVE",
"633 915 LINE",
"611 842 OFFCURVE",
"564 833 OFFCURVE",
"525 833 CURVE SMOOTH",
"486 833 OFFCURVE",
"443 842 OFFCURVE",
"450 915 CURVE",
"369 915 LINE",
"365 824 OFFCURVE",
"420 781 OFFCURVE",
"515 781 CURVE SMOOTH"
);
}
);
width = 770;
}
);
leftKerningGroup = U;
note = Ubreve;
rightKerningGroup = U;
unicode = 016C;
},
{
glyphname = Ucaron;
lastChange = "2015-10-27 13:18:36 +0000";
layers = (
{
layerId = "AD8C1534-DD1F-4D30-8D71-C3A36519B1B2";
name = "Bold Italic";
paths = (
{
closed = 1;
nodes = (
"533 -10 OFFCURVE",
"642 69 OFFCURVE",
"673 220 CURVE SMOOTH",
"763 659 LINE",
"776 661 OFFCURVE",
"807 669 OFFCURVE",
"845 682 CURVE",
"849 700 LINE",
"634 700 LINE",
"630 682 LINE",
"656 672 OFFCURVE",
"680 666 OFFCURVE",
"704 661 CURVE",
"611 206 LINE SMOOTH",
"586 83 OFFCURVE",
"491 42 OFFCURVE",
"398 42 CURVE SMOOTH",
"306 42 OFFCURVE",
"229 79 OFFCURVE",
"255 206 CURVE SMOOTH",
"348 659 LINE",
"376 666 OFFCURVE",
"404 672 OFFCURVE",
"429 680 CURVE",
"433 700 LINE",
"129 700 LINE",
"125 682 LINE",
"150 672 OFFCURVE",
"176 665 OFFCURVE",
"198 660 CURVE",
"108 220 LINE SMOOTH",
"75 60 OFFCURVE",
"166 -10 OFFCURVE",
"350 -10 CURVE SMOOTH"
);
},
{
closed = 1;
nodes = (
"478 786 OFFCURVE",
"530 786 OFFCURVE",
"539 786 CURVE",
"568 822 OFFCURVE",
"668 900 OFFCURVE",
"716 929 CURVE",
"666 974 LINE",
"619 942 OFFCURVE",
"548 882 OFFCURVE",
"517 846 CURVE",
"516 846 OFFCURVE",
"515 846 OFFCURVE",
"514 846 CURVE",
"499 882 OFFCURVE",
"452 942 OFFCURVE",
"420 974 CURVE",
"350 929 LINE",
"387 900 OFFCURVE",
"453 822 OFFCURVE",
"469 786 CURVE"
);
}
);
width = 770;
}
);
leftKerningGroup = U;
note = Ucaron;
rightKerningGroup = U;
unicode = 01D3;
},
{
glyphname = Ucircumflex;
lastChange = "2015-10-27 13:18:36 +0000";
layers = (
{
layerId = "AD8C1534-DD1F-4D30-8D71-C3A36519B1B2";
name = "Bold Italic";
paths = (
{
closed = 1;
nodes = (
"533 -10 OFFCURVE",
"642 69 OFFCURVE",
"673 220 CURVE SMOOTH",
"763 659 LINE",
"776 661 OFFCURVE",
"807 669 OFFCURVE",
"845 682 CURVE",
"849 700 LINE",
"634 700 LINE",
"630 682 LINE",
"656 672 OFFCURVE",
"680 666 OFFCURVE",
"704 661 CURVE",
"611 206 LINE SMOOTH",
"586 83 OFFCURVE",
"491 42 OFFCURVE",
"398 42 CURVE SMOOTH",
"306 42 OFFCURVE",
"229 79 OFFCURVE",
"255 206 CURVE SMOOTH",
"348 659 LINE",
"376 666 OFFCURVE",
"404 672 OFFCURVE",
"429 680 CURVE",
"433 700 LINE",
"129 700 LINE",
"125 682 LINE",
"150 672 OFFCURVE",
"176 665 OFFCURVE",
"198 660 CURVE",
"108 220 LINE SMOOTH",
"75 60 OFFCURVE",
"166 -10 OFFCURVE",
"350 -10 CURVE SMOOTH"
);
},
{
closed = 1;
nodes = (
"428 816 OFFCURVE",
"500 876 OFFCURVE",
"529 912 CURVE",
"530 912 OFFCURVE",
"532 912 OFFCURVE",
"533 912 CURVE",
"549 876 OFFCURVE",
"595 816 OFFCURVE",
"629 783 CURVE",
"698 829 LINE",
"661 857 OFFCURVE",
"594 936 OFFCURVE",
"578 972 CURVE",
"569 972 OFFCURVE",
"517 972 OFFCURVE",
"509 972 CURVE",
"479 936 OFFCURVE",
"381 857 OFFCURVE",
"332 829 CURVE",
"383 783 LINE"
);
}
);
width = 770;
}
);
leftKerningGroup = U;
note = Ucircumflex;
rightKerningGroup = U;
unicode = 00DB;
},
{
glyphname = Udieresis;
lastChange = "2015-10-27 13:18:36 +0000";
layers = (
{
layerId = "AD8C1534-DD1F-4D30-8D71-C3A36519B1B2";
name = "Bold Italic";
paths = (
{
closed = 1;
nodes = (
"533 -10 OFFCURVE",
"642 69 OFFCURVE",
"673 220 CURVE SMOOTH",
"763 659 LINE",
"776 661 OFFCURVE",
"807 669 OFFCURVE",
"845 682 CURVE",
"849 700 LINE",
"634 700 LINE",
"630 682 LINE",
"656 672 OFFCURVE",
"680 666 OFFCURVE",
"704 661 CURVE",
"611 206 LINE SMOOTH",
"586 83 OFFCURVE",
"491 42 OFFCURVE",
"398 42 CURVE SMOOTH",
"306 42 OFFCURVE",
"229 79 OFFCURVE",
"255 206 CURVE SMOOTH",
"348 659 LINE",
"376 666 OFFCURVE",
"404 672 OFFCURVE",
"429 680 CURVE",
"433 700 LINE",
"129 700 LINE",
"125 682 LINE",
"150 672 OFFCURVE",
"176 665 OFFCURVE",
"198 660 CURVE",
"108 220 LINE SMOOTH",
"75 60 OFFCURVE",
"166 -10 OFFCURVE",
"350 -10 CURVE SMOOTH"
);
},
{
closed = 1;
nodes = (
"447 785 OFFCURVE",
"476 812 OFFCURVE",
"484 847 CURVE SMOOTH",
"491 882 OFFCURVE",
"473 909 OFFCURVE",
"437 909 CURVE SMOOTH",
"402 909 OFFCURVE",
"373 882 OFFCURVE",
"367 847 CURVE SMOOTH",
"359 812 OFFCURVE",
"376 785 OFFCURVE",
"411 785 CURVE SMOOTH"
);
},
{
closed = 1;
nodes = (
"678 785 OFFCURVE",
"707 812 OFFCURVE",
"714 847 CURVE SMOOTH",
"721 882 OFFCURVE",
"704 909 OFFCURVE",
"667 909 CURVE SMOOTH",
"631 909 OFFCURVE",
"603 882 OFFCURVE",
"596 847 CURVE SMOOTH",
"588 812 OFFCURVE",
"605 785 OFFCURVE",
"641 785 CURVE SMOOTH"
);
}
);
width = 770;
}
);
leftKerningGroup = U;
note = Udieresis;
rightKerningGroup = U;
unicode = 00DC;
},
{
glyphname = Udieresisacute;
lastChange = "2015-10-27 13:18:36 +0000";
layers = (
{
layerId = "AD8C1534-DD1F-4D30-8D71-C3A36519B1B2";
name = "Bold Italic";
paths = (
{
closed = 1;
nodes = (
"533 -10 OFFCURVE",
"642 69 OFFCURVE",
"673 220 CURVE SMOOTH",
"763 659 LINE",
"776 661 OFFCURVE",
"807 669 OFFCURVE",
"845 682 CURVE",
"849 700 LINE",
"634 700 LINE",
"630 682 LINE",
"656 672 OFFCURVE",
"680 666 OFFCURVE",
"704 661 CURVE",
"611 206 LINE SMOOTH",
"586 83 OFFCURVE",
"491 42 OFFCURVE",
"398 42 CURVE SMOOTH",
"306 42 OFFCURVE",
"229 79 OFFCURVE",
"255 206 CURVE SMOOTH",
"348 659 LINE",
"376 666 OFFCURVE",
"404 672 OFFCURVE",
"429 680 CURVE",
"433 700 LINE",
"129 700 LINE",
"125 682 LINE",
"150 672 OFFCURVE",
"176 665 OFFCURVE",
"198 660 CURVE",
"108 220 LINE SMOOTH",
"75 60 OFFCURVE",
"166 -10 OFFCURVE",
"350 -10 CURVE SMOOTH"
);
},
{
closed = 1;
nodes = (
"450 785 OFFCURVE",
"479 812 OFFCURVE",
"487 847 CURVE SMOOTH",
"493 881 OFFCURVE",
"476 909 OFFCURVE",
"440 909 CURVE SMOOTH",
"403 909 OFFCURVE",
"375 881 OFFCURVE",
"369 847 CURVE SMOOTH",
"361 812 OFFCURVE",
"377 785 OFFCURVE",
"414 785 CURVE SMOOTH"
);
},
{
closed = 1;
nodes = (
"681 785 OFFCURVE",
"709 812 OFFCURVE",
"717 847 CURVE SMOOTH",
"724 881 OFFCURVE",
"707 909 OFFCURVE",
"670 909 CURVE SMOOTH",
"634 909 OFFCURVE",
"606 881 OFFCURVE",
"599 847 CURVE SMOOTH",
"591 812 OFFCURVE",
"608 785 OFFCURVE",
"644 785 CURVE SMOOTH"
);
},
{
closed = 1;
nodes = (
"673 1037 LINE SMOOTH",
"708 1056 OFFCURVE",
"728 1075 OFFCURVE",
"732 1098 CURVE SMOOTH",
"736 1117 OFFCURVE",
"727 1141 OFFCURVE",
"694 1141 CURVE SMOOTH",
"661 1141 OFFCURVE",
"633 1112 OFFCURVE",
"627 1106 CURVE",
"492 986 LINE",
"510 951 LINE"
);
}
);
width = 770;
}
);
leftKerningGroup = U;
note = Udieresisacute;
rightKerningGroup = U;
unicode = 01D7;
},
